<?xml version="1.0" standalone="no"?>
<!DOCTYPE svg PUBLIC "-//W3C//DTD SVG 1.1//EN" "http://www.w3.org/Graphics/SVG/1.1/DTD/svg11.dtd" >
<svg xmlns="http://www.w3.org/2000/svg" xmlns:xlink="http://www.w3.org/1999/xlink" version="1.1">
<metadata>
Created by FontForge 20170731 at Wed Jul 15 14:47:06 2020
 By Aleksey,,,
(c) 1996, 2003 Adobe Systems Incorporated. All rights reserved.
</metadata>
<defs>
<font id="KeplerStd-BoldDisp" horiz-adv-x="2048" >
  <font-face 
    font-family="Kepler Std Disp"
    font-weight="700"
    font-stretch="normal"
    units-per-em="2048"
    panose-1="2 4 8 3 6 7 10 6 2 4"
    ascent="1434"
    descent="-614"
    x-height="866"
    cap-height="1315"
    bbox="-371 -592 7082.16 1815"
    underline-thickness="118"
    underline-position="-405"
    unicode-range="U+0020-FB06"
  />
<missing-glyph horiz-adv-x="1024" 
d="M0 0v1434h1024v-1434h-1024zM512 809l348 522h-696zM573 717l349 -522v1044zM164 102h696l-348 523zM102 1239v-1044l349 522z" />
    <glyph glyph-name="T_h" unicode="Th" horiz-adv-x="2172" 
d="M487 545v387v344q-158 0 -223.5 -20t-95.5 -72q-19 -33 -37.5 -73t-26.5 -60t-25.5 -70t-19.5 -55l-22 8q14 57 26.5 187.5t14.5 207.5q116 -22 465 -22h190q355 0 453 14q0 43 -2 53q52 1 157 11.5t142 17.5q-8 -176 -8 -377v-272q161 135 313 135q165 0 223 -113
q25 -52 25 -123q0 -100 -1 -301.5t-1 -267.5q0 -40 18.5 -52.5t89.5 -13.5l-2 -26q-20 0 -107.5 4t-136.5 4q-58 0 -139 -4t-98 -4v26q50 1 67.5 12.5t20.5 41.5q6 59 6 264q0 228 -2 290.5t-8 88.5q-25 86 -105 86q-99 0 -147 -88q-16 -31 -16 -78v-287q0 -215 6 -272
q2 -34 18 -44.5t74 -13.5v-26q-18 0 -104 4t-132 4q-85 0 -166 -4t-96 -4v26q63 1 83.5 13.5t23.5 48.5q8 244 8 360v574q0 174 -2 237q-189 30 -391 25q0 -14 -2 -121t-2 -188v-430q0 -356 10 -441q1 -34 12.5 -47t40.5 -16q17 -2 57.5 -8t69.5 -7l-6 -26q-13 0 -131 4
t-217 4q-65 0 -180.5 -4t-151.5 -4l-4 26q18 1 50 5.5t63 7.5q40 5 56 16.5t17 42.5q8 144 8 455z" />
    <glyph glyph-name="f_f" unicode="ff" horiz-adv-x="1167" 
d="M33 860h121v55q0 243 114 357q103 100 244 100q109 0 161 -44.5t52 -108.5q0 -44 -32.5 -76.5t-94.5 -32.5q-57 0 -57 66q2 78 -11.5 117.5t-50.5 39.5q-58 0 -61 -108q-1 -28 9 -147t13 -218h283q0 27 -2 39q-2 117 10 187t51 131q108 186 316 186q117 0 170 -46
t53 -112q0 -42 -32.5 -74t-92.5 -32q-63 0 -63 61q2 89 -12.5 127.5t-55.5 38.5q-62 0 -68 -109q-3 -42 15 -397h178l-8 -33l-172 -10q-4 -180 -4 -340q0 -250 10 -383q3 -36 12.5 -50t36.5 -17q52 -9 80 -9l-6 -26q-29 0 -104.5 4t-121.5 4q-71 0 -299 -8l4 26
q57 1 74.5 10.5t20.5 37.5q8 114 8 296v457h-281q-4 -218 -4 -366q0 -262 6 -361q2 -35 10.5 -50.5t28.5 -16.5q7 -1 33 -4t45 -3l-6 -26q-17 0 -89 4t-120 4q-40 0 -98.5 -1.5t-126.5 -3.5t-92 -3l4 26q72 6 91.5 13.5t20.5 34.5q9 86 9 301v452l-125 12z" />
    <glyph glyph-name="f_f_i" unicode="ffi" horiz-adv-x="1712" 
d="M33 860h123v80q0 82 26.5 159t73.5 128q134 147 358 147q82 0 145.5 -29t92.5 -65q146 123 352 123q168 0 252 -58t84 -155q0 -54 -36 -95.5t-115 -41.5q-45 0 -77 20.5t-32 65.5q0 11 6 46t6 58q0 123 -118 123q-50 0 -87 -34.5t-49 -94.5q-9 -45 -14 -74t-9.5 -108
t-4.5 -195h204q250 0 369 27q-8 -94 -8 -326v-244q0 -98 6 -233q5 -38 25 -50t92 -16l-2 -26q-37 0 -126.5 4t-148.5 4q-55 0 -98.5 -1.5t-81.5 -3.5t-53 -3v26q55 1 73 13.5t21 44.5q8 78 8 252v225q0 178 -10 233q-9 33 -92 33h-180q0 -42 -1 -156t-1 -188q0 -251 10 -381
q3 -47 22.5 -59t94.5 -17l-7 -26q-38 0 -103.5 4t-109.5 4q-89 0 -301 -8l4 26q57 1 74.5 11t22.5 39q8 114 8 294v457h-281q-4 -188 -4 -354q0 -265 6 -379q4 -41 24.5 -53t86.5 -15l-6 -26q-15 0 -84.5 4t-118.5 4q-8 0 -328 -8l4 26q74 1 97 11t26 39q9 133 9 294v457
l-125 12zM440 860h281q0 173 43 295q-16 68 -64.5 126t-113.5 58q-45 0 -78 -32t-45 -93q-26 -116 -23 -354z" />
    <glyph glyph-name="f_f_l" unicode="ffl" horiz-adv-x="1712" 
d="M31 860h125v72q0 86 29.5 169.5t76.5 133.5q130 139 348 139q81 0 145 -26.5t97 -61.5q123 114 311 117q116 0 197 -43q13 3 48 7.5t87.5 11t91.5 12.5q-12 -177 -12 -430v-529q0 -246 4 -344q3 -45 22.5 -57t102.5 -13l-2 -26q-40 0 -182 4t-179 4q-40 0 -91.5 -4
t-71.5 -4v26q59 1 77 16.5t23 61.5q12 123 12 398v598q0 142 -12 172q-13 47 -51 76.5t-84 29.5q-80 0 -105 -94q-28 -109 -28 -416h194l-8 -35l-186 -8q-4 -188 -4 -340q0 -250 10 -383q3 -46 21 -59t89 -17l-6 -26q-36 0 -112.5 4t-128.5 4q-53 0 -265 -8l2 26
q58 1 76 10.5t21 37.5q8 118 8 296v457h-281q-4 -188 -4 -354q0 -269 6 -371q4 -49 23 -61t94 -15l-4 -26q-16 0 -89.5 4t-121.5 4q-25 0 -321 -8l2 26q74 1 95 10.5t23 37.5q9 88 9 296v457l-127 12zM440 860h285q0 185 33 295q-14 68 -61.5 125t-114.5 57q-91 0 -119 -112
q-23 -79 -23 -365z" />
    <glyph glyph-name="f_i" unicode="fi" horiz-adv-x="1142" 
d="M23 831l4 29h127v51q0 229 114 346q149 146 367 146q174 0 255 -60t81 -155q0 -53 -38.5 -93t-117.5 -40q-44 0 -74 21t-30 67q0 12 8 48t8 58q0 117 -123 117q-59 0 -95.5 -41.5t-49.5 -107.5q-21 -115 -21 -357h207q249 0 371 27q-10 -78 -10 -326v-244q0 -174 8 -231
q3 -40 23 -52t93 -16l-2 -26q-37 0 -127 4t-149 4q-70 0 -142.5 -4t-91.5 -4v26q55 1 73.5 14.5t21.5 45.5q8 74 8 250v225q0 178 -10 233q-10 33 -93 33h-182v-407q0 -234 4 -310q3 -55 19 -69t84 -15l2 -26q-16 1 -53 3t-73 3.5t-71 1.5q-41 0 -160 -4t-165 -4v26
q75 1 94 11.5t24 46.5q11 90 11 286v457z" />
    <glyph glyph-name="f_l" unicode="fl" horiz-adv-x="1142" 
d="M25 860h129v66q0 133 30 217t90 139q124 121 320 121q123 0 197 -45q35 7 225 31q-10 -285 -10 -428v-531q0 -244 4 -342q3 -45 23 -57t102 -13l-2 -26q-41 0 -182 4t-179 4q-40 0 -93 -4t-73 -4v26q57 0 77.5 16.5t25.5 61.5q16 167 14 398q0 426 -2 596q0 139 -14 174
q-39 104 -136 104q-90 0 -110 -104q-23 -104 -23 -404h195l-6 -33l-189 -10q-2 -129 -2 -409q0 -230 4 -306q3 -55 19 -69t84 -15l-4 -26q-27 0 -88.5 4t-102.5 4q-45 0 -167 -4t-156 -4v26q69 1 91 12.5t25 45.5q11 135 11 286v455l-132 10z" />
    <glyph glyph-name=".notdef" horiz-adv-x="1024" 
d="M0 0v1434h1024v-1434h-1024zM512 809l348 522h-696zM573 717l349 -522v1044zM164 102h696l-348 523zM102 1239v-1044l349 522z" />
    <glyph glyph-name=".null" horiz-adv-x="0" 
 />
    <glyph glyph-name="nonmarkingreturn" horiz-adv-x="682" 
 />
    <glyph glyph-name="space" unicode=" " horiz-adv-x="327" 
 />
    <glyph glyph-name="exclam" unicode="!" horiz-adv-x="507" 
d="M256 1339h2q46 0 116 -66.5t70 -129.5q0 -56 -45 -158q-125 -306 -125 -545h-36q0 236 -125 545q-45 102 -45 158q0 36 23 73.5t55 63.5t62.5 42.5t47.5 16.5zM260 -29h-2q-63 0 -107.5 46.5t-44.5 115.5q0 68 45.5 114t110.5 46t109.5 -45.5t44.5 -114.5q0 -70 -44 -116
t-112 -46z" />
    <glyph glyph-name="quotedbl" unicode="&#x22;" horiz-adv-x="649" 
d="M526 1436h2q28 0 43 -39.5t15 -71.5q0 -60 -39 -183.5t-72 -203.5l-26 8q-10 108 -32 237.5t-38 190.5q22 17 70.5 39.5t76.5 22.5zM227 1436h2q28 0 43 -39.5t15 -71.5q0 -60 -39 -183.5t-72 -203.5l-26 8q-11 118 -32 248.5t-38 179.5q22 17 70.5 39.5t76.5 22.5z" />
    <glyph glyph-name="numbersign" unicode="#" horiz-adv-x="925" 
d="M592 805h-213l-47 -195h215zM426 1196l55 6q-7 -17 -16.5 -53t-23.5 -96t-25 -101h209q5 22 26.5 113.5t28.5 130.5l59 6q-50 -166 -69 -250h184q-22 -75 -35 -149h-184l-47 -191q189 3 207 4q-25 -91 -33 -153q-18 1 -84.5 1.5t-122.5 2.5q-14 -73 -59 -281l-56 -6
q6 21 16 62t26.5 110l27.5 115h-209q-13 -48 -68 -281l-55 -12q5 17 14.5 54t27 108.5t32.5 130.5q-31 -2 -92.5 -2.5t-83.5 -1.5q18 60 30 151q7 0 183 -4l49 195q-76 2 -207 -2q25 92 31 151q43 -2 211 -2q47 208 53 244z" />
    <glyph glyph-name="dollar" unicode="$" horiz-adv-x="1024" 
d="M754 250v2q0 21 -2.5 38t-12 33.5t-16 27.5t-25.5 25.5t-29.5 22.5t-39 24t-42.5 23.5t-52 26.5l-17 -412q106 3 171 52.5t65 136.5zM305 1030v-2q0 -72 50.5 -117.5t154.5 -93.5l18 402q-61 -1 -106 -17.5t-69.5 -44.5t-36 -59.5t-11.5 -67.5zM537 1405l51 12l-13 -168
q74 -3 148.5 -24.5t112.5 -55.5l32 88l21 -12q-45 -225 -45 -401l-29 6q2 155 -59 251t-183 116l-24 -418q40 -20 90.5 -45t74 -36.5t51 -26t44.5 -24.5t31 -20q110 -78 110 -248q0 -142 -84 -229q-126 -133 -350 -141l-4 -179l-57 -18l12 197q-47 0 -103 6t-89.5 12
t-96.5 19t-80 16q24 151 33 379l27 10q-2 -107 22 -187.5t69 -126.5t100 -69t122 -25l21 429q-169 78 -230 116q-145 93 -145 277q0 168 125 272q48 40 125 66t163 26z" />
    <glyph glyph-name="percent" unicode="%" horiz-adv-x="1323" 
d="M248 0l-35 43q116 164 384.5 563t399.5 600q-42 -26 -67.5 -39t-79.5 -26t-121 -13q-94 0 -154 25q29 -74 29 -176q0 -149 -70.5 -245.5t-197.5 -96.5q-128 0 -199 80.5t-71 234.5q0 159 84.5 250.5t218.5 91.5q64 0 123 -32l30 16q79 -109 242 -109q57 0 105.5 12.5
t80.5 32.5t51 37t31 33q9 13 24.5 32.5t24.5 31.5l76 8q-662 -968 -909 -1354zM385 1251h-2q-21 0 -42 -11.5t-32 -27.5q-48 -73 -51 -251q-3 -176 45 -244q31 -39 86 -39q59 0 103.5 76.5t44.5 230.5q0 54 -7.5 98.5t-23.5 83.5t-47 61.5t-74 22.5zM1012 694h2
q88 0 145 -46.5t79 -115t22 -157.5q0 -146 -69 -240t-194 -94q-131 0 -202.5 80.5t-71.5 228.5q0 160 80.5 252t208.5 92zM1051 655h-2q-63 0 -86 -45q-48 -75 -48 -245q-3 -182 50 -248q25 -37 77 -37q64 0 107 77.5t43 221.5q0 48 -7.5 94.5t-23.5 88.5t-44.5 67.5
t-65.5 25.5z" />
    <glyph glyph-name="ampersand" unicode="&#x26;" horiz-adv-x="1439" 
d="M1395 47v-24q-137 -62 -316 -62q-77 0 -146.5 36t-168.5 148q-127 -178 -332 -178q-86 0 -148.5 22t-117.5 77q-43 42 -67.5 108t-24.5 145q0 74 24 126.5t76 95.5q50 44 174 116q-112 146 -112 310q0 144 95.5 234.5t254.5 90.5q147 0 232 -75.5t85 -188.5
q0 -66 -27 -107t-81 -75q-49 -33 -179 -101q137 -179 287 -337q26 64 44 103.5t31.5 67.5t22.5 48q54 122 105 182.5t123 60.5q47 0 71.5 -26t24.5 -72q0 -27 -13 -51.5t-32 -38.5q-20 -15 -43 -2q-25 14 -51 14q-45 0 -77.5 -24t-72.5 -86q-60 -90 -110 -201
q175 -190 281.5 -264.5t187.5 -71.5zM582 1262h-2q-48 0 -82.5 -46t-34.5 -139q0 -78 34 -150t101 -159q52 44 84.5 118.5t32.5 151.5q0 105 -34 164.5t-99 59.5zM315 467v-2q0 -96 37.5 -182t103.5 -139.5t144 -53.5q89 0 143 78q-10 12 -76.5 87t-103 118t-96 117.5
t-105.5 138.5q-47 -60 -47 -162z" />
    <glyph glyph-name="quotesingle" unicode="'" horiz-adv-x="348" 
d="M227 1436h2q28 0 44 -39.5t16 -71.5q0 -99 -111 -387l-26 8q-10 113 -32 242t-40 186q25 18 72.5 40t74.5 22z" />
    <glyph glyph-name="parenleft" unicode="(" horiz-adv-x="675" 
d="M90 535v2q0 463 240 735q110 128 252 198l16 -28q-39 -19 -74.5 -49t-75.5 -80t-71 -129.5t-47 -179.5q-27 -166 -27 -469q0 -295 27 -474q51 -328 268 -436l-16 -31q-143 73 -252 201q-240 272 -240 740z" />
    <glyph glyph-name="parenright" unicode=")" horiz-adv-x="675" 
d="M590 530v-2q0 -464 -242 -735q-107 -125 -248 -199l-20 31q39 19 75 48t76 78.5t71.5 129.5t47.5 180q25 165 25 471q0 309 -25 472q-54 332 -268 436l18 30q137 -72 250 -200q240 -272 240 -740z" />
    <glyph glyph-name="asterisk" unicode="*" horiz-adv-x="704" 
d="M412 1098l-6 20q40 11 98 60t71 51q24 4 49 -22t29 -44q5 -21 -4.5 -54t-36.5 -36q-10 -1 -84.5 15.5t-115.5 9.5zM389 1053l14 14q23 -23 64 -40t75.5 -28.5t43.5 -21.5q12 -16 8.5 -37.5t-12 -39t-15.5 -23.5q-10 -8 -26.5 -16t-39 -10.5t-34.5 15.5q-5 7 -28 80.5
t-50 106.5zM338 1049l18 -5q-9 -40 4.5 -115t8.5 -87q-8 -25 -42 -33.5t-53 -3.5q-12 6 -26 16t-26.5 29t-6.5 37q4 11 56 66.5t67 95.5zM309 1087l4 -20q-38 -11 -96 -60t-72 -51q-24 -4 -47 21t-30 45q-3 24 5.5 55.5t35.5 34.5q12 2 85.5 -15t114.5 -10zM330 1135
l-15 -15q-29 28 -100.5 55t-79.5 37q-12 15 -9 36.5t11 39.5t15 25q9 8 26 15.5t39 9.5t35 -15q5 -7 28.5 -81t49.5 -107zM381 1135l-19 6q10 42 -4 116.5t-10 85.5q8 24 41 32t55 5q13 -6 27 -16t26.5 -29t6.5 -37q-4 -11 -56 -67t-67 -96z" />
    <glyph glyph-name="plus" unicode="+" horiz-adv-x="907" 
d="M502 51h-94v350h-322v88h322v320h94v-320h319v-88h-319v-350z" />
    <glyph glyph-name="comma" unicode="," horiz-adv-x="468" 
d="M72 -258l-11 29q110 14 186.5 84t76.5 176q0 12 -6 14t-15 -6q-30 -27 -92 -27q-56 0 -95 39t-38 105q0 58 44 101.5t103 43.5q86 0 132 -61t46 -162q0 -82 -31 -147.5t-81 -104.5t-106.5 -60.5t-112.5 -23.5z" />
    <glyph glyph-name="hyphen" unicode="-" horiz-adv-x="620" 
d="M68 401l22 115q229 -6 463 0l-21 -115q-238 6 -464 0z" />
    <glyph glyph-name="period" unicode="." horiz-adv-x="468" 
d="M236 293h2q64 0 108.5 -46t44.5 -116q0 -68 -45 -114t-110 -46q-66 0 -111 45.5t-45 114.5q0 68 46 115t110 47z" />
    <glyph glyph-name="slash" unicode="/" horiz-adv-x="790" 
d="M668 1427l61 -34q-21 -42 -118.5 -300t-190.5 -518q-115 -324 -289 -804l-65 30q31 72 77 194.5t116 315t110 299.5q233 624 299 817z" />
    <glyph glyph-name="zero" unicode="0" horiz-adv-x="1024" 
d="M522 1294h2q95 0 166 -29t135 -96q75 -80 114.5 -218t39.5 -302q0 -221 -55 -368.5t-146 -221.5q-107 -88 -276 -88q-79 0 -155.5 26.5t-129.5 76.5q-89 85 -130.5 230.5t-41.5 320.5q0 186 52.5 337t162.5 238q111 94 262 94zM518 1264h-2q-40 0 -63.5 -23t-46.5 -78
q-27 -72 -42.5 -217t-15.5 -309q0 -138 15 -290.5t40 -227.5q19 -56 45.5 -86.5t67.5 -30.5q42 0 68 27t45 86q23 75 36 222.5t13 297.5q0 365 -51 520q-19 56 -44.5 82.5t-64.5 26.5z" />
    <glyph glyph-name="one" unicode="1" horiz-adv-x="1024" 
d="M862 23l4 -29q-75 0 -190 3t-158 3q-48 0 -171 -3t-169 -3l-8 26l129 13q40 3 55 16t17 37q6 171 6 340v418q0 242 -6 330q-2 14 -7 20t-18 6q-76 0 -143 -6l10 31q410 44 469 73l6 -6q0 -20 -4 -165.5t-4 -286.5v-412q0 -194 8 -346q0 -44 47 -47z" />
    <glyph glyph-name="two" unicode="2" horiz-adv-x="1024" 
d="M950 406l23 -19q-25 -84 -42.5 -205t-21.5 -194q-159 12 -633 12q-166 0 -217 -4l-10 16q41 113 64 158q373 238 452 541q29 129 29 268q0 128 -39.5 204.5t-116.5 76.5q-80 0 -114.5 -51t-34.5 -160q0 -33 16 -111q9 -41 -26 -76t-89 -35q-59 0 -93 37.5t-34 106.5
q0 120 121 225q52 46 136 72t178 26q86 0 158.5 -19.5t115.5 -51.5q77 -57 108 -134.5t31 -181.5q0 -195 -141 -311q-136 -110 -504 -365q450 10 588 23q25 3 38.5 12.5t20.5 32.5q26 71 37 107z" />
    <glyph glyph-name="three" unicode="3" horiz-adv-x="1024" 
d="M506 1294h2q58 0 112 -10t104 -32.5t86.5 -56t58.5 -83.5t22 -111q0 -81 -39.5 -139t-101.5 -90q-78 -40 -246 -86v-12q240 -6 346 -84q108 -79 108 -223q0 -95 -38 -168t-101 -121t-160.5 -77.5t-205.5 -29.5q-188 0 -289 65t-101 167q0 50 39 86.5t97 36.5
q32 0 49.5 -19t21.5 -45q21 -147 63 -202.5t122 -55.5q170 0 170 324q0 76 -9.5 129.5t-32 96.5t-64 64t-103.5 21q-52 0 -90 -14l-31 22l4 10q138 11 203 76q90 75 90 252q0 71 -15.5 130.5t-52.5 100.5t-90 41q-70 0 -106.5 -44.5t-36.5 -145.5q0 -38 10 -80
q3 -13 -3 -30.5t-17 -28.5q-28 -31 -76 -31q-52 0 -83.5 32t-31.5 93q0 102 113 187t303 85z" />
    <glyph glyph-name="four" unicode="4" horiz-adv-x="1024" 
d="M504 424q5 114 8 247.5t5 270.5t3 188q-253 -368 -424 -667q30 -13 154 -26t254 -13zM33 399l-21 33q56 84 191.5 284.5t211.5 316.5t117 188q65 12 152 36t119 39l10 -4q-12 -202 -12 -692v-168q117 2 219 35v-25q-69 -44 -219 -63q0 -137 4 -379q-208 0 -311 -27l-9 7
q8 99 17 389q-327 3 -469 30z" />
    <glyph glyph-name="five" unicode="5" horiz-adv-x="1024" 
d="M172 528l-35 37q33 112 54.5 366t19.5 343q31 -14 119 -23q92 -10 196 -10q191 0 277.5 16t126.5 74l18 -14q-21 -94 -68 -175t-104 -110q-97 -47 -280 -47q-154 0 -254 21q-34 -297 -54 -394q71 61 169 101.5t200 40.5q86 0 155.5 -19t124.5 -58.5t85.5 -108.5
t31.5 -162q0 -152 -80 -259q-63 -83 -174 -129.5t-247 -46.5q-174 0 -277.5 63.5t-103.5 158.5q0 63 42 92.5t97 29.5q57 0 70 -65q24 -127 64.5 -186.5t111.5 -59.5q82 0 127 85.5t45 254.5q0 94 -24 171t-70 116q-49 43 -127 43q-83 0 -143.5 -41t-92.5 -105z" />
    <glyph glyph-name="six" unicode="6" horiz-adv-x="1024" 
d="M893 1274l4 -37q-41 16 -96 16q-100 0 -182 -48.5t-136.5 -131t-86 -188t-36.5 -223.5q151 147 295 147q156 0 240 -101t84 -270q0 -200 -115 -325q-58 -65 -147.5 -103.5t-198.5 -38.5q-198 0 -311 105q-75 66 -115.5 182t-40.5 256q0 400 244 621q99 87 211.5 123
t247.5 36q72 0 139 -20zM518 715h-2q-50 0 -87 -31t-56 -84q-21 -58 -21 -160q0 -130 25 -247q41 -189 147 -189q81 0 119 111q35 106 35 266q0 111 -23 199q-41 135 -137 135z" />
    <glyph glyph-name="seven" unicode="7" horiz-adv-x="1024" 
d="M104 825l-24 13q30 97 46.5 246t10.5 204q82 -22 438 -22q349 0 392 2l4 -11l-14 -53q-14 -52 -20 -71.5t-20.5 -63.5t-29.5 -78.5t-33 -66.5q-74 -136 -123 -236t-100 -226.5t-76.5 -246.5t-24.5 -233l-8 -9q-100 -6 -172 23q-31 12 -49 35t-18 49q0 43 34 117
q40 91 153.5 249t227 314.5t152.5 245.5q-102 8 -340 8q-145 0 -218 -7t-97 -18.5t-37 -36.5q-29 -56 -54 -127z" />
    <glyph glyph-name="eight" unicode="8" horiz-adv-x="1024" 
d="M539 1294h2q93 0 172 -34.5t129.5 -105t50.5 -163.5q0 -89 -64 -145q-33 -29 -170 -113q172 -94 233.5 -175.5t61.5 -190.5q0 -179 -118 -277q-66 -56 -160 -86.5t-187 -30.5q-190 0 -304.5 81t-114.5 233q0 112 86 186q54 42 174 113q-111 73 -163 147t-52 178
q0 143 80 242q50 63 139 102t205 39zM500 1260h-2q-75 0 -128 -52.5t-53 -140.5q0 -102 66 -162q71 -63 250 -151q90 90 90 231q0 120 -57 197.5t-166 77.5zM526 8h2q95 0 148 54.5t53 154.5q0 53 -25.5 95.5t-107 104.5t-238.5 152q-98 -86 -98 -235q0 -84 27 -156t89 -121
t150 -49z" />
    <glyph glyph-name="nine" unicode="9" horiz-adv-x="1024" 
d="M158 -8l-2 28q91 -12 186 19q152 43 234.5 194.5t95.5 374.5q-60 -62 -138.5 -100.5t-142.5 -38.5q-163 0 -251.5 99.5t-88.5 279.5q0 165 99 285q58 73 151 117t217 44q190 0 303 -110q160 -150 160 -469q0 -190 -63 -343t-173 -251q-168 -150 -428 -150q-107 0 -159 21
zM510 1262h-2q-83 0 -119 -113q-33 -112 -33 -256q0 -83 16.5 -155.5t54.5 -122.5t91 -50q93 0 133 88q22 54 25 187q1 124 -16.5 220t-47.5 140q-24 33 -46 47.5t-56 14.5z" />
    <glyph glyph-name="colon" unicode=":" horiz-adv-x="466" 
d="M233 279h3q64 0 106.5 -44.5t42.5 -109.5q0 -67 -44 -110.5t-108 -43.5q-62 0 -105.5 43.5t-43.5 110.5q0 64 43.5 109t105.5 45zM236 840h2q63 0 105 -44t42 -110t-43 -110t-106 -44q-62 0 -107 44.5t-45 109.5t45 109.5t107 44.5z" />
    <glyph glyph-name="semicolon" unicode=";" horiz-adv-x="468" 
d="M227 840h2q64 0 107 -44t43 -110t-44.5 -110t-107.5 -44q-62 0 -105.5 44.5t-43.5 109.5t44 109.5t105 44.5zM76 -256l-10 29q107 14 180 82t73 172q0 10 -5 12t-11 -6q-34 -27 -92 -27q-55 0 -92.5 37.5t-36.5 101.5q0 56 42.5 99t100.5 43q84 0 128 -59t44 -158
q0 -80 -30.5 -143.5t-79.5 -101t-102.5 -58t-108.5 -23.5z" />
    <glyph glyph-name="less" unicode="&#x3c;" horiz-adv-x="892" 
d="M113 422v78l669 366v-102l-565 -301v-4l565 -303v-103z" />
    <glyph glyph-name="equal" unicode="=" horiz-adv-x="907" 
d="M819 336v-88h-733v88h733zM819 639v-86h-733v86h733z" />
    <glyph glyph-name="greater" unicode="&#x3e;" horiz-adv-x="892" 
d="M782 500v-78l-669 -367v101l563 303v4l-563 301v102z" />
    <glyph glyph-name="question" unicode="?" horiz-adv-x="839" 
d="M412 440l-23 -14q-111 115 -119 233q-5 78 62 142q34 34 117 110.5t86 79.5q51 48 51 121q0 96 -44 144.5t-112 48.5q-67 0 -104 -41.5t-37 -102.5q0 -49 22 -102q9 -23 4.5 -37.5t-24.5 -32.5q-43 -43 -115 -43q-42 0 -73 32.5t-31 94.5q0 82 56 144.5t136 92t164 29.5
q180 0 270 -100t90 -272q0 -139 -112 -219q-207 -160 -217 -170q-39 -33 -49.5 -63t2.5 -75zM416 -29h-2q-63 0 -107.5 46.5t-44.5 115.5q0 68 45 114t109 46q66 0 110.5 -46t44.5 -116q0 -69 -44 -114.5t-111 -45.5z" />
    <glyph glyph-name="at" unicode="@" horiz-adv-x="1439" 
d="M606 203v-2q0 -22 10 -38t21 -16q45 0 92.5 48.5t85.5 122t64 159.5q14 42 39 146q3 43 -15.5 68.5t-54.5 25.5q-27 0 -59.5 -24t-55.5 -62q-127 -221 -127 -428zM1049 -47l12 -33q-176 -205 -479 -205q-233 0 -366.5 139.5t-133.5 397.5q0 129 32 248.5t97 221.5
t156 177.5t215.5 118.5t269.5 43q106 0 192 -26.5t145 -71.5t99 -107.5t58 -133t18 -149.5q0 -214 -120.5 -359.5t-293.5 -145.5q-34 0 -57.5 5t-39.5 12.5t-23.5 24.5t-10.5 33t0.5 46t9 55t15.5 69q-50 -99 -132 -171t-180 -72q-120 0 -120 166q0 118 61.5 251.5
t173.5 204.5q90 58 191 58q35 0 62 -18t38 -44l12 43h176q-44 -125 -80.5 -281.5t-50.5 -248.5q-7 -41 -0.5 -59.5t33.5 -18.5q73 0 140 58.5t109 158.5t42 211q0 211 -124.5 341t-352.5 130q-131 0 -236.5 -54.5t-173.5 -150.5q-172 -239 -172 -579q0 -242 107 -361
q104 -115 288 -115q125 0 220.5 47.5t173.5 143.5z" />
    <glyph glyph-name="A" unicode="A" horiz-adv-x="1234" 
d="M1260 18v-26q-165 6 -306 6q-3 0 -303 -6l6 26q79 11 98 21.5t13 42.5q-3 18 -111 434q-43 2 -174 2q-133 0 -178 -2q-96 -316 -104 -379q-7 -25 -2.5 -44t11.5 -31t29.5 -20.5t52.5 -14t79 -9.5l-9 -26q-18 0 -81.5 4t-112.5 4q-26 0 -106.5 -4t-116.5 -4v26
q84 8 118.5 31.5t65.5 100.5q84 213 346 1048q16 50 19 98q44 -2 136 9.5t120 27.5q52 -223 186 -686.5t184 -566.5q19 -47 68 -53zM498 1145q-133 -427 -179 -584q20 0 79 -1t89 -1q34 0 89.5 1t68.5 1q-98 401 -147 584z" />
    <glyph glyph-name="B" unicode="B" horiz-adv-x="1241" 
d="M23 -8l2 26q93 6 121.5 16t31.5 42q12 118 12 391v424q0 266 -8 342q-1 27 -33.5 38t-123.5 17l-5 27q26 0 135 -4t167 -4q40 0 182 4t188 4q141 0 205.5 -14t114.5 -50q90 -64 90 -217q0 -189 -168 -266q-75 -36 -213 -57v-13q227 -15 334 -82q121 -72 121 -245
q0 -182 -134 -279q-131 -96 -436 -96q-48 0 -145.5 2t-145.5 2q-41 0 -95 -1.5t-114 -3.5t-83 -3zM498 989v-274q18 -2 84 -2q103 0 152.5 65t49.5 226q0 127 -36 198q-42 80 -164 80q-46 0 -62 -8t-16 -29q-8 -244 -8 -256zM498 676v-291q0 -263 8 -324q3 -34 82 -34
q74 0 119 22t75 66q54 87 54 260q0 163 -52 235q-54 72 -204 72q-55 0 -82 -6z" />
    <glyph glyph-name="C" unicode="C" horiz-adv-x="1271" 
d="M1178 879l-27 -9q-8 84 -31.5 158t-64.5 137.5t-107 100.5t-149 37q-82 0 -140.5 -29.5t-105.5 -93.5q-61 -83 -95 -215t-34 -295q0 -296 96 -455q103 -166 309 -166q61 0 115.5 16.5t106 52.5t93 100.5t66.5 152.5l27 -19q-50 -190 -185 -289.5t-345 -99.5
q-333 0 -492 197q-143 167 -143 469q0 183 60 327t175 238q170 147 453 147q263 0 379 -122l37 114l20 -10q-14 -99 -18.5 -238t0.5 -206z" />
    <glyph glyph-name="D" unicode="D" horiz-adv-x="1398" 
d="M190 537v329q0 218 -6 359q-1 29 -16 40.5t-45 14.5l-96 8l4 27q14 0 126.5 -4t172.5 -4q51 0 169 4t177 4q163 0 257 -20t159 -60q237 -143 237 -535q0 -105 -18 -199t-57 -180t-106 -154t-159 -110q-143 -65 -364 -65q-54 0 -163 3t-165 3q-72 0 -168.5 -3t-110.5 -3
l2 26l89 7q38 3 52.5 16.5t16.5 42.5q12 258 12 453zM498 844v-318q0 -395 8 -460q3 -22 22 -31.5t70 -9.5q112 0 179.5 33.5t109.5 95.5q110 162 110 530q0 357 -110 492q-87 106 -264 106q-72 0 -92 -11t-25 -40q-8 -116 -8 -387z" />
    <glyph glyph-name="E" unicode="E" horiz-adv-x="1155" 
d="M27 1288v25q24 0 156 -3t188 -3h350q215 0 289 18q-15 -109 -9 -369l-24 -6q-19 129 -72 224q-24 43 -51.5 62.5t-80 27.5t-159.5 8h-67q-21 0 -29 -7.5t-8 -25.5q-12 -198 -12 -346v-195q27 -2 114 -2q123 0 173 44.5t69 158.5h25q-12 -99 -14.5 -247.5t5.5 -225.5h-24
q-10 65 -22 103.5t-37.5 70.5t-69 45.5t-111.5 13.5q-94 0 -108 -2v-163q0 -305 8 -406q2 -30 25.5 -41.5t97.5 -11.5q126 0 185 12t112 55q52 39 93.5 120t65.5 167l25 -8q-1 -32 -26 -190.5t-35 -200.5q-160 10 -449 10h-233q-69 0 -196.5 -4t-156.5 -4l2 26l97 11
q33 3 48.5 18t18.5 51q10 137 10 416v354q0 284 -8 363q-3 26 -19.5 36.5t-51.5 12.5z" />
    <glyph glyph-name="F" unicode="F" horiz-adv-x="1091" 
d="M29 1288l-4 27q220 -8 362 -8h275q257 0 372 18q-18 -167 -10 -375l-23 -2q-21 135 -65 207q-35 62 -98.5 90.5t-202.5 28.5h-86q-36 0 -39 -27q-10 -115 -10 -370v-199q23 -6 118 -6q123 0 182 42.5t77 162.5l24 -5q-10 -86 -10.5 -251t8.5 -222h-25q-12 65 -25 102
t-40 70.5t-73 47.5t-118 14q-100 0 -118 -4v-207q0 -248 8 -330q2 -29 13.5 -42.5t41.5 -16.5q11 -1 54.5 -7.5t68.5 -7.5l-4 -26q-26 0 -146 4t-180 4q-75 0 -194.5 -4t-132.5 -4l-4 26l96 11q27 3 41.5 15t17.5 38q13 146 13 412v383q0 193 -7 350q-1 23 -13.5 37
t-31.5 16z" />
    <glyph glyph-name="G" unicode="G" horiz-adv-x="1384" 
d="M1198 866h-29q-23 214 -122 328.5t-246 114.5q-90 0 -151 -33t-109 -105q-117 -177 -117 -532q0 -147 25 -272t69 -203q46 -85 107 -124.5t149 -39.5q135 0 144 115q10 63 10 319q-2 93 -15.5 118.5t-68.5 29.5l-96 8l-7 26q30 0 157.5 -3t168.5 -3q129 0 276 6l7 -24
q-68 -9 -87.5 -22t-25.5 -52q-8 -90 -8 -219q0 -105 8 -231q-30 -7 -101.5 -29.5t-84.5 -26.5q-160 -47 -297 -47q-205 0 -339.5 51t-217.5 160q-127 164 -127 465q0 191 72.5 346t207.5 246q157 108 432 108q129 0 231.5 -36.5t151.5 -83.5l41 120l21 -12
q-13 -61 -24.5 -210.5t-4.5 -252.5z" />
    <glyph glyph-name="H" unicode="H" horiz-adv-x="1452" 
d="M193 465v373q0 301 -7 383q-1 39 -32.5 51.5t-112.5 15.5l2 27q24 0 134.5 -4t154.5 -4q38 0 154.5 4t148.5 4l-2 -27q-70 0 -94 -14t-29 -55q-10 -98 -10 -338v-172q49 -2 205 -2q167 0 249 2v200q0 186 -8 322q-1 32 -33 43.5t-104 13.5l2 27q23 -1 90 -3t120.5 -3.5
t78.5 -1.5q153 0 309 8l2 -27q-80 -3 -109 -15t-30 -46q-10 -185 -10 -365v-354q0 -326 12 -436q3 -27 33 -38.5t112 -15.5l-8 -24q-18 0 -127.5 3t-179.5 3q-68 0 -174.5 -3t-128.5 -3l2 24q75 6 106.5 20.5t34.5 47.5q10 235 10 369v207q-136 4 -245 4q-111 0 -209 -4
v-201q0 -269 8 -375q3 -36 35.5 -50.5t111.5 -17.5v-26q-31 0 -145 4t-182 4q-50 0 -157 -4t-144 -4v26q82 3 116 18t37 52q13 153 13 377z" />
    <glyph glyph-name="I" unicode="I" horiz-adv-x="690" 
d="M190 473v373q0 296 -6 373q-4 39 -32 51t-115 18l2 27q23 0 131 -4t182 -4q62 0 167.5 4t129.5 4l4 -27q-85 -5 -113 -17t-32 -48q-8 -196 -8 -375v-375q0 -253 10 -385q3 -40 31 -52t116 -18l-4 -26q-29 0 -138 4t-173 4q-68 0 -178 -4t-133 -4l4 26q82 5 112 18t33 50
q10 78 10 387z" />
    <glyph glyph-name="J" unicode="J" horiz-adv-x="665" 
d="M33 1288l8 27q22 0 121.5 -4t165.5 -4q57 0 174 4t137 4l-2 -27l-76 -8q-29 -3 -40 -16t-13 -41q-13 -166 -10 -938q0 -163 -35 -262q-52 -150 -148 -238q-162 -156 -340 -156q-61 0 -102 27t-41 57q0 33 33.5 68t64.5 35q28 0 43 -27q57 -98 121 -98q73 0 82 159
q11 238 14 603l3 460q0 194 -7 304q-3 53 -45 59q-51 9 -108 12z" />
    <glyph glyph-name="K" unicode="K" horiz-adv-x="1341" 
d="M190 467v373q0 314 -6 385q-1 36 -28 46t-113 17l4 27q9 0 113.5 -4t181.5 -4q70 0 173 4t122 4l4 -27q-32 -3 -45.5 -4t-32.5 -4t-25.5 -6.5t-14.5 -10t-10 -15t-3 -21.5q-12 -165 -12 -398v-163q111 61 280 253.5t238 307.5q12 25 6.5 33.5t-29.5 11.5l-135 14l19 27
q26 0 94 -2t123 -2q82 0 217 6l4 -25q-142 -8 -203 -61q-32 -27 -86 -85t-142.5 -157.5t-129.5 -144.5q97 -174 268.5 -443t228.5 -331q27 -25 52.5 -33.5t97.5 -14.5l-10 -26q-109 4 -285 0q-3 0 -201 -17q-15 31 -82.5 145.5t-152 256t-119.5 203.5q-34 55 -53 61v-160
q0 -267 10 -399q3 -37 28.5 -47.5t118.5 -18.5l-4 -26q-22 0 -134 4t-191 4q-71 0 -179.5 -4t-121.5 -4l2 26q90 8 118.5 19.5t32.5 46.5q12 82 12 383z" />
    <glyph glyph-name="L" unicode="L" horiz-adv-x="1089" 
d="M1038 401l25 -2q-6 -47 -21.5 -201.5t-21.5 -207.5q-8 1 -223 8q-230 4 -453 4q-54 0 -182 -4t-142 -4l3 26l96 9q34 4 45 15t14 40q15 139 15 471v340q0 258 -7 340q0 23 -12.5 33t-40.5 12l-92 8l2 27q15 0 135 -4t178 -4q66 0 173.5 4t125.5 4l9 -27l-91 -8
q-32 -3 -46 -14.5t-15 -38.5q-12 -264 -12 -457v-225q0 -416 6 -473q2 -20 18 -28.5t58 -8.5q139 0 206 15t111 63q84 90 139 288z" />
    <glyph glyph-name="M" unicode="M" horiz-adv-x="1671" 
d="M41 1288l2 27q156 -8 258 -8q145 0 211 8q18 -56 76.5 -203.5t141 -351t132.5 -334.5q83 219 180.5 504t128.5 385q57 -8 197 -8q63 0 151.5 4t106.5 4l6 -25q-13 -2 -60.5 -7t-62.5 -7q-34 -3 -34 -53v-271q-3 -625 10 -850q3 -41 16 -55.5t45 -17.5l99 -11l-3 -26
q-164 8 -309 8q-5 0 -309 -8l2 26q76 4 103 17t30 47q7 112 23 1139h-2q-80 -241 -162 -496.5t-144.5 -456.5t-78.5 -250l-129 -30q-41 137 -212.5 613.5t-213.5 598.5h-4q0 -520 14 -1003q1 -94 20 -126t68 -38l106 -15l-10 -26q-17 0 -101 4t-136 4q-47 0 -109 -4t-72 -4
v26q38 6 76 13q28 4 44 17t27.5 50t14.5 103q23 472 23 1028l-8 22q-12 23 -58 29z" />
    <glyph glyph-name="N" unicode="N" horiz-adv-x="1300" 
d="M23 1288v25q5 0 95.5 -3t151.5 -3q138 0 201 6q8 -15 21 -36.5t38.5 -61t47.5 -74.5q101 -164 516 -776q0 702 -17 823q-6 52 -25 70t-77 22l-84 8l10 25q29 0 104.5 -4t112.5 -4q41 0 111 4t86 4v-25q-13 -3 -45 -7t-45 -7q-27 -6 -39.5 -23t-20.5 -53q-14 -66 -23 -265
t-9 -452v-483q-62 0 -175 -21q-185 302 -718 1143q0 -861 16 -1005q10 -69 72 -80q9 -1 51.5 -8t66.5 -9l-4 -26q-23 0 -106 4t-146 4q-55 0 -110 -4t-70 -4v26q11 0 42.5 5t43.5 6q35 7 51.5 32t24.5 78q5 52 12 168t14 355.5t7 502.5q-15 33 -37 68q-25 37 -68 43z" />
    <glyph glyph-name="O" unicode="O" horiz-adv-x="1419" 
d="M713 1341h2q294 0 464.5 -183t170.5 -478q0 -337 -167.5 -526t-473.5 -189q-155 0 -277.5 50t-201 140.5t-119.5 214.5t-41 275q0 116 26 219.5t79 191t129 151t180.5 99t228.5 35.5zM702 1309h-2q-123 0 -192 -127q-37 -73 -60.5 -202t-23.5 -294q0 -177 29 -335
t75 -232q70 -119 197 -119q129 0 193 127q36 74 56.5 212.5t20.5 305.5t-24 311t-64 224q-35 69 -85.5 99t-119.5 30z" />
    <glyph glyph-name="P" unicode="P" horiz-adv-x="1191" 
d="M190 610v273q0 191 -6 350q-2 25 -10.5 33.5t-40.5 11.5l-108 10l10 25q14 0 128.5 -3t168.5 -3q51 0 155 4t181 4q161 -1 238.5 -25t129.5 -76q94 -94 94 -268q0 -184 -98 -289q-63 -66 -151.5 -95.5t-175.5 -29.5q-88 0 -146 21l2 27q69 -11 88 -11q30 0 57.5 16.5
t41.5 41.5q55 95 55 313q0 99 -18 176t-48 111q-48 57 -151 57q-46 0 -61.5 -8.5t-16.5 -34.5q-10 -180 -10 -420v-235v-217q0 -113 8 -277q1 -33 16 -45t60 -18l100 -13l-4 -24q-24 0 -137 3t-205 3q-71 0 -176.5 -3t-136.5 -3v24l73 9q50 3 65.5 17.5t18.5 61.5
q10 136 10 506z" />
    <glyph glyph-name="Q" unicode="Q" horiz-adv-x="1419" 
d="M1544 -193l4 -18q-42 -58 -107 -94.5t-122.5 -49t-116.5 -12.5q-176 0 -430 234q-65 62 -107 83.5t-126 41.5q-104 23 -187 71t-147.5 124.5t-99.5 189.5t-35 254q0 156 40.5 284.5t119 224t203.5 148.5t286 53q290 0 460.5 -181.5t170.5 -493.5q0 -140 -33.5 -255
t-86 -189t-123 -128t-137.5 -80t-136 -37v-8q101 -31 167 -63q254 -113 398 -115q74 -5 145 16zM707 1311h-2q-119 0 -187 -119q-44 -76 -69 -216t-25 -308q0 -185 28.5 -339t75.5 -229q70 -114 193 -114q63 0 108.5 25.5t77.5 86.5q39 75 62.5 225.5t23.5 333.5
q0 174 -24 314t-66 221q-37 63 -83.5 91t-112.5 28z" />
    <glyph glyph-name="R" unicode="R" horiz-adv-x="1265" 
d="M190 492v337q0 302 -4 396q-2 25 -12.5 36.5t-38.5 14.5l-115 12l11 25q8 0 124 -3t171 -3q47 0 162.5 3t187.5 3q154 0 229 -18.5t123 -61.5q78 -70 78 -207q0 -160 -106 -239.5t-318 -102.5v-10q190 -24 282 -78t123 -154q51 -110 60 -321q1 -54 22 -78.5t64 -24.5
q28 0 61 11l-8 -29q-45 -20 -156 -20q-158 0 -239 61.5t-90 212.5q-2 31 -5 101t-5 102q-5 64 -20.5 103t-49 60t-77 28t-116.5 7h-30v-176q0 -301 6 -393q3 -36 28.5 -48t114.5 -20l-4 -26q-24 0 -128 4t-167 4q-70 0 -185.5 -4t-133.5 -4l4 26q83 6 113.5 18.5t33.5 45.5
q10 113 10 410zM498 868v-180h30q144 0 201 73t57 238q0 146 -41 211q-44 72 -153 72q-9 0 -57 -6q-24 -6 -27 -43q-10 -145 -10 -365z" />
    <glyph glyph-name="S" unicode="S" horiz-adv-x="997" 
d="M88 414l25 10q-3 -106 34 -200.5t120 -158t196 -63.5q104 0 163.5 59.5t59.5 167.5q0 118 -96 179q-16 12 -67.5 44t-128 78.5t-113.5 69.5q-195 116 -195 328q0 194 116.5 303.5t315.5 109.5q83 0 160.5 -23.5t116.5 -62.5l45 99l18 -6q-34 -208 -29 -408l-24 -8
q-9 165 -89.5 271t-197.5 106q-98 0 -153.5 -62t-55.5 -164q0 -127 107 -190q45 -31 96 -63t83 -50.5t82.5 -46.5t65.5 -37q98 -52 143.5 -124t45.5 -185q0 -137 -68 -234t-181.5 -142.5t-262.5 -45.5q-82 0 -182 21.5t-162 48.5q12 131 12 379z" />
    <glyph glyph-name="T" unicode="T" horiz-adv-x="1193" 
d="M745 965v-428q0 -346 11 -443q2 -33 12 -45.5t39 -15.5q31 -3 71 -8.5t66 -6.5l-6 -26q-12 0 -135 4t-223 4q-65 0 -183 -4t-155 -4l-4 26q18 1 51.5 5.5t64.5 7.5q41 5 58 16.5t18 42.5q8 144 8 455v387v344q-105 0 -160 -10.5t-76.5 -27.5t-43.5 -56q-13 -23 -25.5 -48
t-20.5 -42.5t-18.5 -46.5t-14 -40t-14 -43.5t-12.5 -37.5l-24 10q14 56 26.5 186.5t14.5 208.5q115 -22 422 -22h196q214 0 312 4t147 18q-6 -43 -14.5 -161.5t-4.5 -211.5l-24 -16q-26 188 -90 274q-22 37 -73.5 51t-190.5 11q0 -14 -2.5 -122t-2.5 -189z" />
    <glyph glyph-name="U" unicode="U" horiz-adv-x="1310" 
d="M774 35h2q66 0 115.5 15t93 52t69.5 108t33 175q26 396 0 803q-3 54 -22 71.5t-61 20.5l-95 8l-4 27q24 0 99 -4t108 -4q40 0 100 4t86 4l9 -27l-68 -6q-41 -4 -54.5 -23t-15.5 -67q-4 -83 -10.5 -270.5t-13 -336.5t-15.5 -229q-23 -218 -157 -309q-115 -80 -311 -80
q-286 0 -400 131q-85 99 -88 318q-1 98 -2 399t-2 393q-2 38 -10.5 54.5t-32.5 17.5l-98 8v27q30 0 138.5 -4t166.5 -4q63 0 167 4t128 4l6 -27l-94 -10q-22 -3 -31 -14t-12 -35q-27 -308 -13 -805q3 -151 22 -219.5t64 -106.5q30 -29 87 -46t116 -17z" />
    <glyph glyph-name="V" unicode="V" horiz-adv-x="1239" 
d="M-45 1288v27q17 0 128.5 -4t180.5 -4q58 0 157 4t146 4l11 -27l-89 -12q-24 -3 -32 -12.5t-2 -34.5q9 -42 119.5 -374.5t191.5 -563.5q243 681 293 923q4 30 -5 43.5t-36 16.5q-46 10 -119 14l-4 27q21 0 98.5 -4t114.5 -4q31 0 90.5 4t101.5 4l11 -27q-83 0 -120 -28
t-73 -113q-65 -156 -182.5 -489t-228.5 -676q-25 3 -79 1t-79 -8q-186 562 -432 1215q-26 60 -56 78.5t-106 19.5z" />
    <glyph glyph-name="W" unicode="W" horiz-adv-x="1837" 
d="M1503 1288l-8 27q24 0 99.5 -4.5t113.5 -3.5q51 1 108 4.5t82 3.5v-27q-87 -10 -115 -32t-59 -101q-42 -118 -94 -279t-88 -278t-98 -324t-88 -292q-117 0 -160 -7q-30 119 -138.5 480.5t-158.5 543.5q-192 -744 -254 -1017q-77 3 -166 -7q-79 306 -179 649.5t-161 514.5
q-34 97 -61 120.5t-109 28.5v27q22 0 127.5 -4t159.5 -4q56 0 156 4t149 4l10 -27l-90 -12q-24 -3 -32.5 -13.5t-2.5 -37.5q26 -109 124 -457t118 -426q62 236 140 575.5t87 397.5q89 -12 211 -2q12 -52 32.5 -126t51.5 -180.5t57.5 -194.5t72 -240.5t73.5 -247.5
q77 239 150 494t98 378q9 44 -1 60.5t-42 19.5z" />
    <glyph glyph-name="X" unicode="X" horiz-adv-x="1196" 
d="M-2 1288l-2 27q33 0 143 -4t172 -4q53 0 145 4t136 4l12 -27l-78 -10q-26 -3 -31.5 -14.5t5.5 -36.5q41 -97 192 -373q15 24 47 75.5t50 81t41.5 69.5t39.5 69t25 51q19 38 9.5 56t-60.5 24l-92 8l12 27q13 0 217 -8q49 -1 121 3.5t98 4.5v-27q-58 -5 -93.5 -12
t-63.5 -23.5t-44.5 -33.5t-46.5 -54q-95 -110 -243 -350q267 -524 378 -717q35 -61 107 -69l72 -11l-9 -26q-44 0 -161 3.5t-172 4.5q-57 0 -151.5 -4t-141.5 -4l2 26q68 9 88 20.5t10 37.5q-22 55 -239 493q-12 -21 -49.5 -83.5t-58 -97t-50 -85.5t-50 -89.5t-34.5 -68.5
q-28 -65 -17 -87t60 -27l108 -13l9 -26q-31 0 -104 4t-116 4q-59 0 -129.5 -4t-101.5 -4l-8 26q81 8 116.5 25t79.5 74q50 62 147 210t177 279q-206 416 -326 625q-17 29 -47 41t-100 16z" />
    <glyph glyph-name="Y" unicode="Y" horiz-adv-x="1110" 
d="M895 18l8 -26q-46 0 -170.5 4t-177.5 4q-88 0 -192 -4t-138 -4l-8 26q27 2 66.5 8t52.5 7q38 5 55 20.5t21 52.5q4 52 10 443q0 42 -19 84q-33 85 -127 268.5t-163 290.5q-30 44 -46.5 60.5t-43.5 25.5t-78 10l-2 27q19 0 131 -4t168 -4q84 0 188 4t125 4l4 -27l-84 -8
q-26 -3 -30 -17t8 -40q13 -31 260 -549q165 352 229 526q12 46 5.5 59.5t-32.5 16.5q-19 2 -62.5 6.5t-49.5 5.5l4 27q15 0 84 -4t115 -4q42 0 101 4t93 4l6 -27q-86 -5 -121 -21.5t-69 -74.5q-27 -44 -66 -119t-63.5 -125t-75.5 -156t-61 -126q-21 -46 -21 -103
q-5 -343 10 -485q3 -40 41 -45q13 -1 30.5 -3t42.5 -6t42 -6z" />
    <glyph glyph-name="Z" unicode="Z" horiz-adv-x="1228" 
d="M530 1307h150q180 0 248 2q61 0 209 8q-17 -70 -62 -150q-220 -384 -291 -510q-75 -139 -184 -334.5t-156 -287.5q247 0 359 9t153 27t80 64q69 82 125 291l21 -10q-3 -23 -15 -111t-21 -171t-11 -148q-98 10 -230 10q-90 4 -264 4h-377q-133 0 -203 -6l-8 24
q50 87 208 355t297.5 507.5t221.5 391.5h-178q-137 0 -215 -14.5t-110.5 -39t-57.5 -71.5q-39 -70 -82 -246l-24 12q12 80 18.5 208.5t3.5 203.5q69 -13 144 -16q51 -2 251 -2z" />
    <glyph glyph-name="bracketleft" unicode="[" horiz-adv-x="671" 
d="M590 -322l-12 -34q-300 6 -385 -11q6 205 6 904q0 768 -6 895q41 -7 179.5 -6.5t217.5 6.5l-6 -35q-73 0 -174 -15q-30 -3 -33 -39q-19 -108 -19 -806q0 -725 13 -816q3 -31 57 -34z" />
    <glyph glyph-name="backslash" unicode="\" horiz-adv-x="774" 
d="M61 1393l62 34q53 -159 293 -821q38 -105 105.5 -293.5t113 -313t76.5 -198.5l-66 -28q-100 275 -283 807q-258 729 -301 813z" />
    <glyph glyph-name="bracketright" unicode="]" horiz-adv-x="671" 
d="M80 1386l12 35q298 -6 387 11q-6 -208 -6 -908q0 -766 6 -891q-41 7 -179.5 6.5t-219.5 -6.5l8 33q95 0 172 17q33 3 35 38q16 91 16 803q0 742 -12 826q-3 27 -59 30z" />
    <glyph glyph-name="asciicircum" unicode="^" horiz-adv-x="872" 
d="M791 653h-101l-258 553l-244 -553h-106l313 658h84z" />
    <glyph glyph-name="underscore" unicode="_" horiz-adv-x="1024" 
d="M1024 -227v-119h-1024v119h1024z" />
    <glyph glyph-name="grave" unicode="`" horiz-adv-x="933" 
d="M518 981l-22 -10q-151 142 -238 223q-49 53 -49 100q0 39 19 55.5t40 16.5q33 0 55.5 -18.5t43.5 -53.5q17 -30 76.5 -157.5t74.5 -155.5z" />
    <glyph glyph-name="a" unicode="a" horiz-adv-x="1001" 
d="M590 575l-2 105q0 178 -121 178q-70 0 -104.5 -41.5t-32.5 -116.5q0 -45 6 -75t-17 -50q-35 -28 -98 -28q-50 0 -83.5 26.5t-33.5 79.5q0 31 15 63t48 63t79.5 55.5t116 39.5t151.5 15q222 0 315 -123q29 -45 29 -100v-531q0 -47 9.5 -61.5t31.5 -14.5q28 0 55 44.5
t39 107.5l31 -14q-40 -226 -258 -226q-48 0 -82.5 11.5t-54.5 33.5t-30 46.5t-15 56.5q-139 -148 -283 -148q-115 0 -179.5 70t-64.5 186q0 67 26.5 113.5t76.5 65.5q46 18 147 53t173 63.5t110 52.5zM354 270v-2q0 -32 6 -63t18 -59.5t34 -46t51 -17.5q27 0 47 9.5t33 29
t18.5 30.5t13.5 33q11 55 11 86l4 273q-15 -8 -49 -25.5t-61 -31.5t-44 -25q-38 -25 -60 -66.5t-22 -124.5z" />
    <glyph glyph-name="b" unicode="b" horiz-adv-x="1095" 
d="M-2 1341v27q73 0 206 9.5t212 25.5q0 -14 -3 -88.5t-6.5 -193t-3.5 -238.5v-129q83 70 156 102.5t162 32.5q176 -3 258 -139q63 -108 63 -269q0 -254 -122.5 -381t-358.5 -127q-68 0 -139.5 15.5t-114.5 38.5q-27 -7 -182 -58l-10 6q0 48 2 226.5t2 306.5v491
q0 145 -8 293q-2 32 -21 40.5t-92 8.5zM549 2h2q98 0 144 110.5t46 340.5q0 178 -47 268q-41 84 -125 84q-53 0 -93 -30t-64 -77q-11 -23 -14 -76.5t-3 -244.5q0 -122 3.5 -185.5t7.5 -79.5t14 -34q50 -76 129 -76z" />
    <glyph glyph-name="c" unicode="c" horiz-adv-x="917" 
d="M854 264l27 -14q-77 -279 -379 -279q-136 0 -219.5 34t-141.5 106q-86 104 -86 301q0 104 31 190.5t90 150.5t152 100t211 36q142 0 236.5 -54.5t94.5 -164.5q0 -65 -45.5 -96t-101.5 -31q-40 0 -64 16q-26 21 -18 64q8 62 8 77q0 160 -114 160q-82 0 -127.5 -110
t-45.5 -297q0 -157 37 -250q31 -84 81.5 -120t125.5 -36q92 0 152 54.5t96 162.5z" />
    <glyph glyph-name="d" unicode="d" horiz-adv-x="1116" 
d="M573 1348l5 24q173 4 417 31q-10 -279 -12 -483l-2 -459q-2 -197 10 -373q1 -29 10.5 -39t32.5 -12l74 -2l-10 -27q-288 -13 -406 -37q0 23 1 68.5t1 60.5l-4 2q-68 -61 -136.5 -96t-150.5 -35q-159 0 -247 101q-101 116 -101 329q0 101 26.5 187t80.5 154.5t144.5 107.5
t209.5 39q58 0 107 -12t73 -31q0 365 -4 442q-1 23 -3.5 33t-16 17.5t-34 8.5t-65.5 1zM358 438v-2q0 -82 15.5 -163.5t40.5 -125.5q49 -84 133 -84q87 0 133 87q9 22 12.5 82.5t3.5 252.5q0 243 -14 275q-38 94 -129 94q-65 0 -110 -56.5t-65 -148t-20 -211.5z" />
    <glyph glyph-name="e" unicode="e" horiz-adv-x="931" 
d="M885 250q-84 -279 -389 -279q-241 0 -351 135q-90 111 -90 310q0 100 28.5 185t83 149.5t142.5 101.5t199 37q96 0 169 -28t111.5 -67.5t62.5 -91.5t30 -89.5t6 -73.5q0 -26 -9 -48.5t-22 -29.5q-65 -22 -283 -25h-217q-6 -143 45 -258q29 -65 77.5 -97t125.5 -32
q97 0 157 54.5t99 160.5zM506 858h-2q-64 0 -102.5 -106.5t-43.5 -282.5q39 2 113 2q83 0 121 12q39 10 39 84q0 41 -4.5 82.5t-16 93t-38.5 83.5t-66 32z" />
    <glyph glyph-name="f" unicode="f" horiz-adv-x="600" 
d="M33 829l4 31h117v96q0 222 112 334q110 113 262 113q116 0 171 -45.5t55 -110.5q0 -44 -33.5 -76t-95.5 -32t-62 61q2 83 -11.5 125.5t-55.5 42.5q-61 0 -70 -113q-1 -27 1.5 -82.5t7.5 -145.5t7 -167h160l-8 -31l-154 -14q-4 -184 -4 -336q0 -303 4 -387q3 -33 14 -47.5
t38 -17.5q56 -9 86 -9l-9 -26q-25 0 -124 4t-144 4q-6 0 -270 -8l4 26q67 3 86.5 13t21.5 39q9 133 9 292v455z" />
    <glyph glyph-name="g" unicode="g" horiz-adv-x="983" 
d="M264 -131l8 -16q-38 -15 -58.5 -40t-20.5 -69q0 -83 83 -143t230 -60q92 0 161 20t107.5 54.5t57 74.5t18.5 85q0 49 -34.5 77.5t-90.5 28.5h-387q-88 0 -145.5 24t-102.5 83q-49 63 -49 155q0 54 24 105t48 77.5t61 59.5q-57 69 -57 178q0 72 24 129.5t62 93.5t89.5 60
t103 33.5t104.5 9.5q85 0 145.5 -16.5t83.5 -32.5q125 110 191 110q36 0 63 -22.5t27 -44.5q-4 -22 -29 -55.5t-41 -39.5q-20 17 -56 29t-67 12q-41 0 -65 -8q116 -91 116 -235q0 -70 -24 -125.5t-62 -90t-90 -57.5t-104 -32t-107 -9q-102 0 -175.5 24.5t-106.5 59.5
q-34 -10 -56 -43.5t-22 -68.5q0 -39 29 -61.5t73 -22.5q53 0 223 4t306 4q99 0 168 -59q38 -34 61 -86.5t23 -106.5q0 -85 -34.5 -157t-91.5 -120t-131 -82t-152.5 -49.5t-156.5 -15.5q-201 0 -295 59t-94 162q0 34 20 60t64 51q62 34 131 45zM489 858h-2q-48 0 -74 -58.5
t-26 -207.5q0 -129 28.5 -210t82.5 -81q37 0 58.5 35.5t29.5 92.5t8 144q0 50 -4.5 95t-15 90.5t-32.5 72.5t-53 27z" />
    <glyph glyph-name="h" unicode="h" horiz-adv-x="1118" 
d="M33 1348v24q83 1 220.5 12t176.5 19q-8 -176 -8 -385v-264q161 135 313 135q54 0 96.5 -12t67.5 -32t38 -36t21 -33q27 -50 27 -123q0 -75 -1.5 -293.5t-0.5 -275.5q0 -40 18 -52.5t89 -13.5v-26q-21 0 -108.5 4t-137.5 4q-57 0 -139 -4t-99 -4v26q50 1 67.5 12.5
t20.5 41.5q6 58 6 264q0 228 -2 290.5t-8 88.5q-25 86 -104 86q-48 0 -87 -23.5t-61 -64.5q-16 -31 -16 -80v-285q0 -215 6 -272q2 -34 18 -44.5t74 -13.5l-2 -26q-17 0 -102 4t-131 4q-85 0 -166 -4t-96 -4v26q63 1 83 13.5t23 48.5q8 122 8 360v568q0 240 -6 299
q-2 26 -19.5 33.5t-78.5 7.5z" />
    <glyph glyph-name="i" unicode="i" horiz-adv-x="573" 
d="M287 1305h2q62 0 96.5 -37.5t34.5 -102.5q0 -57 -39.5 -93t-99.5 -36q-55 0 -91 35.5t-36 93.5q0 62 36.5 101t96.5 39zM545 18l-2 -26q-24 0 -110.5 4t-156.5 4q-77 0 -150 -4t-89 -4v26q66 4 85.5 16.5t22.5 45.5q7 65 7 239v234q0 149 -5 227q-3 27 -21.5 34.5
t-78.5 4.5v29q228 7 395 39q-6 -73 -6 -328v-237q0 -166 6 -240q3 -36 20.5 -47t82.5 -17z" />
    <glyph glyph-name="j" unicode="j" horiz-adv-x="552" 
d="M274 1305h2q62 0 98 -36.5t36 -101.5q0 -58 -40.5 -94.5t-101.5 -36.5q-55 0 -91 35.5t-36 93.5q0 62 36.5 101t96.5 39zM33 827l-10 27q231 10 407 35l6 -4q-2 -137 -2 -744q0 -203 -28 -301q-36 -128 -111 -200q-77 -73 -171 -106.5t-138 -33.5q-30 0 -47 21
q-14 17 -19 30l10 15q49 -22 101 -19q89 0 100 129q19 163 19 598q2 394 -7 521q-3 20 -11 26t-30 6h-69z" />
    <glyph glyph-name="k" unicode="k" horiz-adv-x="1034" 
d="M33 1343l2 25q287 13 393 35q-8 -234 -8 -492v-446q52 11 160.5 125.5t162.5 206.5q10 15 7.5 22t-23.5 10l-84 5v26q75 0 367 19v-23q-78 -9 -114 -20.5t-62 -34.5q-67 -55 -189 -185q11 -19 82 -147.5t140 -246t108 -165.5q27 -34 65 -34l52 -3v-26q-297 0 -408 -25
q-24 51 -115.5 224t-107.5 206q-12 24 -20.5 32t-20.5 5q0 -291 4 -352q3 -39 21.5 -51t86.5 -15v-26q-22 0 -110.5 4t-149.5 4q-77 0 -157 -4t-95 -4l3 26q62 0 81.5 12.5t22.5 43.5q8 82 8 362v451q0 322 -4 428q0 26 -47 26z" />
    <glyph glyph-name="l" unicode="l" horiz-adv-x="555" 
d="M29 1348v24q155 3 401 31q-10 -148 -10 -436v-533q0 -293 2 -344q3 -46 21 -57.5t87 -14.5l-2 -26q-30 0 -123 4t-124 4q-69 0 -160.5 -4t-104.5 -4v26q64 0 85 15t24 63q10 215 10 398v493q0 262 -4 311q-5 33 -20 41t-82 9z" />
    <glyph glyph-name="m" unicode="m" horiz-adv-x="1687" 
d="M152 336v203q0 149 -7 256q-1 14 -7.5 20.5t-29 9.5t-67.5 2l6 25q206 0 373 29q13 -57 18 -144q39 33 62.5 50.5t69.5 46t96 42t104 13.5q122 0 178 -72q16 -20 39 -78q5 4 33.5 27t39 30.5t38.5 26.5t47.5 27t48 19t58.5 15.5t63 4.5q77 0 128 -30.5t75 -72.5
q32 -50 32 -118v-590q0 -33 17 -42.5t90 -17.5l-2 -26q-40 0 -127.5 2.5t-138.5 3.5q-57 1 -103.5 -0.5t-75 -3.5t-36.5 -2v26q51 3 67 13.5t19 40.5q6 141 6 309q1 142 -1 219t-4.5 95t-7.5 34q-29 64 -100 64q-91 0 -143 -95q-17 -35 -17 -88v-340q0 -149 4 -202
q2 -27 20 -36.5t79 -13.5l-4 -26q-15 0 -106 3t-146 3q-69 0 -143 -3t-85 -3v26q56 5 72.5 15.5t17.5 46.5q7 100 7 256v266q0 103 -13 133q-28 58 -92 58q-39 0 -76.5 -24.5t-64.5 -66.5q-27 -39 -27 -102v-330q0 -109 6 -198q3 -30 19 -39t74 -15l-9 -26q-11 0 -96.5 3
t-140.5 3q-66 0 -149.5 -3t-98.5 -3v26q67 5 85 15t19 49q7 93 7 254z" />
    <glyph glyph-name="n" unicode="n" horiz-adv-x="1134" 
d="M41 -8v26q67 3 84 13t18 49q9 99 9 235v224q0 189 -7 249q-2 22 -18 29t-76 10v25q175 0 373 29q11 -87 14 -138q37 33 60.5 51t65.5 44t87.5 38.5t96.5 12.5q85 0 140.5 -31t80.5 -76q30 -52 30 -112v-592q0 -32 17.5 -42.5t87.5 -17.5v-26q-28 1 -112.5 4.5t-131.5 3.5
q-71 0 -153.5 -4t-85.5 -4v26q52 3 68 14.5t18 43.5q8 82 8 305q1 221 -2 279t-15 81q-28 54 -92 54q-93 0 -147 -86q-23 -39 -23 -91v-313q0 -174 4 -233q3 -29 21 -39.5t76 -14.5l-2 -26q-19 0 -109 4t-141 4q-63 0 -145 -4t-99 -4z" />
    <glyph glyph-name="o" unicode="o" horiz-adv-x="1073" 
d="M545 889h2q219 0 345 -119t126 -332q0 -222 -133 -344.5t-353 -122.5q-232 0 -354.5 122t-122.5 329q0 216 129.5 341.5t360.5 125.5zM535 858h-3q-72 0 -118 -86q-47 -92 -47 -317q0 -229 51 -357q44 -96 135 -96q84 0 121 92q39 112 39 322q0 109 -14 203t-35 143
q-41 96 -129 96z" />
    <glyph glyph-name="p" unicode="p" horiz-adv-x="1118" 
d="M-14 -481l10 26q82 7 103 19t24 47q14 168 14 473v428q0 142 -8 274q-1 25 -21 32t-88 9l9 25q90 0 205 10t184 27q1 -17 3 -78t3 -80q36 36 63.5 58t68.5 48t89 39t103 13q146 0 231 -115q36 -48 59 -130t23 -167q0 -258 -121 -382t-342 -124q-104 0 -178 49
q-3 -279 6 -397q1 -30 10.5 -43t38.5 -20t94 -9l-8 -26q-8 0 -101.5 3t-183.5 3q-67 0 -125 -2.5t-104.5 -5.5t-60.5 -4zM571 6h2q39 0 70 20t50.5 56t33.5 78t20.5 94.5t9.5 97t3 92.5q0 167 -49 267q-39 86 -115 86q-96 0 -154 -107q-18 -38 -18 -76q-5 -156 -2 -460
q0 -33 16 -64q22 -38 58.5 -61t74.5 -23z" />
    <glyph glyph-name="q" unicode="q" horiz-adv-x="1097" 
d="M979 440v-520q0 -206 10 -311q3 -29 25 -37.5t106 -9.5l-8 -29q-368 4 -582 -22l11 28q89 12 115 25t28 45q8 86 8 248v229q-66 -54 -132.5 -84.5t-156.5 -30.5q-155 0 -243 95q-105 111 -105 327q0 232 123.5 364t351.5 132q126 0 222 -49l217 45h14q0 -1 -2 -148
t-2 -297zM555 856h-2q-67 0 -112.5 -63.5t-64 -153t-18.5 -195.5q0 -209 60 -307q52 -84 137 -84q83 0 121 74q11 20 14.5 62t3.5 200q0 270 -6 340q-3 37 -29 72q-37 55 -104 55z" />
    <glyph glyph-name="r" unicode="r" horiz-adv-x="815" 
d="M152 346v166q0 195 -17 270q-3 18 -11 25.5t-26 7.5h-55l-4 27q86 2 198.5 13.5t170.5 29.5l6 -6q14 -65 14 -224h6q44 119 98.5 176.5t141.5 57.5q62 0 98.5 -41.5t36.5 -99.5q0 -42 -14 -73t-35.5 -45.5t-41 -21t-36.5 -6.5q-32 0 -52.5 13t-25.5 34q-7 31 -12 45
t-17 24.5t-32 10.5q-57 0 -90 -100q-17 -56 -17 -133q0 -361 4 -412q1 -25 11.5 -37t42 -19t96.5 -10l-6 -26q-16 0 -117.5 4t-163.5 4q-63 0 -164.5 -4t-107.5 -4l8 26q61 1 81 12t23 40q9 106 9 276z" />
    <glyph glyph-name="s" unicode="s" horiz-adv-x="790" 
d="M666 584l-25 -11q-2 105 -67.5 194t-170.5 89q-71 0 -110 -36.5t-39 -92.5q0 -64 61 -100q35 -19 149.5 -64.5t145.5 -62.5q129 -66 129 -207q0 -84 -30.5 -147.5t-84 -100.5t-119 -54.5t-143.5 -17.5q-141 0 -284 54q4 122 -4 311l22 6q17 -107 56 -180
q35 -72 99.5 -114t137.5 -42q158 0 158 133q0 67 -68 99q-88 43 -221 100q-176 74 -176 246q0 142 96.5 222.5t239.5 80.5q61 0 125 -18t90 -44l31 80l18 -12q-21 -152 -16 -311z" />
    <glyph glyph-name="t" unicode="t" horiz-adv-x="669" 
d="M424 860h231l-4 -33l-227 -14q0 -27 -2 -149t-2 -207q0 -287 8 -361q6 -61 61 -61q64 0 107.5 60.5t52.5 127.5h10l23 -53q-30 -89 -113 -143t-200 -54q-138 0 -199 70q-34 42 -37 125q-2 87 2 334.5t4 312.5l-119 12l11 33h110q0 29 1 112.5t1 119.5q204 45 281 98
l12 -4q-12 -177 -12 -326z" />
    <glyph glyph-name="u" unicode="u" horiz-adv-x="1118" 
d="M588 829l-2 29q153 0 254 8q42 2 91.5 6.5t59.5 4.5q-8 -94 -8 -275v-258q0 -182 8 -256q3 -26 11 -36.5t29.5 -14t72.5 -2.5l-2 -29q-28 -1 -59.5 -3t-77.5 -5.5t-80 -5.5q-101 -9 -185 -21q-4 110 -4 170q-157 -170 -338 -170q-89 0 -141 32.5t-67 72.5q-19 51 -19 112
q1 82 3 240t3 221q1 55 -4 144q-3 27 -19.5 32.5t-80.5 5.5v29q93 0 233 8q112 6 172 15q-22 -90 -22 -412q0 -277 10 -338q9 -72 74 -72q124 0 182 148q16 45 16 110v285q0 140 -6 187q-2 16 -13.5 24t-30 10.5t-60.5 3.5z" />
    <glyph glyph-name="v" unicode="v" horiz-adv-x="917" 
d="M-33 840l-4 26q159 -6 250 -6q59 0 155 3t117 3l9 -26l-62 -6q-29 -5 -35.5 -13t0.5 -33q58 -184 197 -524q12 31 61 157t78.5 208.5t48.5 152.5q7 24 -2.5 35t-36.5 14l-88 9v26q24 0 80 -3t88 -3q40 0 92.5 3t67.5 3l-2 -26q-60 -5 -90 -24.5t-60 -80.5
q-134 -282 -307 -751q-46 -2 -110 -11q-59 152 -163.5 407t-154.5 368q-28 62 -47.5 76.5t-81.5 15.5z" />
    <glyph glyph-name="w" unicode="w" horiz-adv-x="1390" 
d="M-27 842v24q88 -6 248 -6q61 0 277 6l2 -24l-64 -11q-30 -3 -36 -11.5t1 -33.5q26 -95 86.5 -270t73.5 -221q94 272 182 567q64 -3 119 2q13 -35 112 -276t124 -307q130 363 153 503q4 24 -6.5 32.5t-48.5 14.5l-74 11v24q147 -6 174 -6q63 0 162 6v-24
q-72 -6 -100.5 -27.5t-61.5 -99.5q-95 -229 -262 -731q-41 -2 -110 -11q-15 44 -58 149.5t-97.5 237.5t-78.5 193q-157 -441 -201 -580q-67 9 -112 11q-45 138 -137.5 396.5t-137.5 371.5q-23 55 -45.5 70t-83.5 20z" />
    <glyph glyph-name="x" unicode="x" horiz-adv-x="931" 
d="M-16 840v26q17 0 107 -3.5t142 -2.5q69 1 248 6l8 -26l-47 -6q-33 -5 -14 -43q22 -42 63 -115.5t54 -97.5q103 140 135 210q8 24 1.5 31t-30.5 10l-65 11l6 26q13 0 67.5 -3t98.5 -3q31 0 92.5 3t77.5 3l-2 -26q-67 -6 -100.5 -18t-69.5 -44q-74 -71 -193 -233
q209 -372 291 -477q21 -26 43.5 -35t85.5 -15l-2 -26q-23 0 -112.5 4t-151.5 4q-44 0 -131.5 -4t-136.5 -4l-5 26l45 7q44 7 17 55q-9 18 -141 264q-9 -14 -43.5 -66t-49.5 -75.5t-37 -59t-34 -59.5q-13 -29 -4.5 -41.5t43.5 -15.5l71 -9l-4 -26q-29 0 -99 4t-97 4
q-35 0 -90 -4t-70 -4l-2 26q71 6 109 27.5t85 71.5q33 38 98 122t105 142q-23 40 -69 123t-83.5 148t-74.5 122q-24 38 -50.5 50.5t-84.5 15.5z" />
    <glyph glyph-name="y" unicode="y" horiz-adv-x="894" 
d="M-29 840v26q114 -6 240 -6q117 0 264 6l6 -26l-55 -9q-27 -3 -32 -11.5t3 -33.5q20 -59 64.5 -168t89 -215.5t53.5 -128.5q83 230 150 471q13 45 -0.5 61.5t-61.5 24.5l-71 9l2 26q18 0 74.5 -3t86.5 -3q27 0 88.5 3t85.5 3l-2 -26q-68 -3 -92 -21.5t-59 -99.5
q-51 -127 -160 -426.5t-174 -489.5q-56 -165 -109 -235t-139 -70q-60 0 -96.5 36.5t-36.5 96.5q0 57 34 89t79 32q51 0 69 -45q13 -33 24.5 -45t33.5 -12q14 0 28.5 14t29 43.5t25.5 54t25 66t19 58t16 51.5q-17 10 -38 37.5t-32 58.5q-249 606 -317 733q-19 37 -32.5 50.5
t-37.5 17.5z" />
    <glyph glyph-name="z" unicode="z" horiz-adv-x="899" 
d="M109 557l-27 2q18 140 22 328q50 -27 222 -27h192q106 0 318 4q-10 -44 -43 -102q-46 -91 -192 -364t-198 -367q157 0 244 16q77 11 119 68.5t78 208.5l22 -19q-37 -227 -35 -315q-225 10 -546 10q-74 0 -148 -3t-78 -3l-12 20q92 136 255.5 433.5t195.5 379.5
q-107 3 -209 -10q-56 -8 -81 -24t-46 -62q-25 -55 -53 -174z" />
    <glyph glyph-name="braceleft" unicode="{" horiz-adv-x="679" 
d="M598 1442l-8 -37q-46 0 -73 -2.5t-51 -11.5t-35 -23.5t-18 -42.5t-6 -65t7 -93q3 -36 12 -114t13 -130.5t3 -103.5q-3 -120 -62.5 -188t-193.5 -111q134 -47 195 -112t61 -183q0 -106 -18 -313q-5 -63 -7 -90t-2.5 -66t6.5 -52.5t17.5 -33t32 -24t49.5 -9t70 -4.5l8 -36
q-56 -6 -117.5 10t-116.5 50t-90.5 94t-35.5 134q0 53 5 223.5t5 243.5q0 88 -41 120t-133 32l-15 31q101 0 145 33.5t44 123.5q0 61 -6 216t-4 210q0 87 33.5 154t87 104t115 53.5t124.5 12.5z" />
    <glyph glyph-name="bar" unicode="|" horiz-adv-x="483" 
d="M180 1538h127v-2048h-127v2048z" />
    <glyph glyph-name="braceright" unicode="}" horiz-adv-x="679" 
d="M82 -406l6 39q44 0 70 2.5t51 11t36.5 23.5t19 42t6.5 65t-7 94q-3 29 -10.5 90t-10.5 92.5t-5.5 78.5t-1.5 87q3 120 62.5 188t193.5 113q-132 45 -194 113.5t-62 185.5t20 309q7 87 10.5 141.5t-15 85t-54.5 41.5t-107 11l-8 37q44 5 92.5 -3.5t96.5 -32t86.5 -58
t62.5 -86t24 -111.5q0 -53 -6 -220t-6 -239q0 -90 41 -124.5t133 -34.5l12 -31q-100 0 -144 -34.5t-44 -123.5q0 -74 7 -228t7 -200q0 -88 -36 -156t-92 -105t-117 -53t-117 -10z" />
    <glyph glyph-name="asciitilde" unicode="~" horiz-adv-x="921" 
d="M756 598l82 -20q-23 -158 -76.5 -228.5t-143.5 -70.5q-53 0 -98.5 34.5t-101.5 104.5q-34 41 -47 55.5t-37.5 30.5t-48.5 16q-86 0 -125 -231l-78 14q40 303 213 303q51 0 94.5 -30.5t93.5 -92.5q86 -114 148 -114q20 0 36 8.5t33.5 31t31.5 70.5t24 119z" />
    <glyph glyph-name="uni00A0" unicode="&#xa0;" horiz-adv-x="327" 
 />
    <glyph glyph-name="exclamdown" unicode="&#xa1;" horiz-adv-x="497" 
d="M250 -479h-2q-41 0 -114 64t-73 130q0 51 43 156q127 303 127 549h37q0 -240 125 -549q43 -105 43 -156q0 -62 -70.5 -128t-115.5 -66zM244 887h2q66 0 109.5 -46t43.5 -116q0 -67 -45.5 -113.5t-109.5 -46.5q-65 0 -110.5 46t-45.5 112q0 70 45.5 117t110.5 47z" />
    <glyph glyph-name="cent" unicode="&#xa2;" horiz-adv-x="1024" 
d="M913 485l2 -67q-50 -85 -139 -133.5t-174 -55.5l-6 -172l-55 -18l12 188q-242 3 -348 115q-109 106 -109 299q0 215 140 339.5t364 127.5l6 158l56 14l-13 -174q136 -6 208.5 -60t72.5 -139q0 -50 -29.5 -78t-73.5 -28q-35 0 -56.5 17.5t-10.5 47.5q12 46 12 76
q0 113 -127 131q-3 -56 -13.5 -242t-16 -308t-9.5 -242q111 2 182 50.5t107 157.5zM387 670v-2q0 -228 57 -308q37 -59 115 -77q3 64 18.5 350t20.5 444q-60 -6 -104 -48t-66 -106.5t-31.5 -127t-9.5 -125.5z" />
    <glyph glyph-name="sterling" unicode="&#xa3;" horiz-adv-x="1024" 
d="M20 647l27 53q65 -6 164 -6q-26 207 -2 307q39 150 166 230q102 63 243 63q74 0 132 -13t93 -33.5t58 -48t32 -53t9 -52.5q0 -73 -44.5 -107.5t-106.5 -34.5q-37 0 -58 15q-27 16 -22 43q10 42 10 90q0 68 -25.5 115t-87.5 47q-122 0 -119 -222q0 -96 23 -346
q177 0 291 6l-25 -53q-102 4 -262 4q2 -75 -14 -148.5t-49 -123.5q-68 -95 -224 -176q632 11 668 30q19 14 27 33q29 84 41 115l30 10q-63 -244 -59 -405l-21 -9q-292 23 -634 23q-68 0 -115 -1.5t-84 -4t-49 -2.5l-6 14l57 148l27 13.5t27 16.5t29 23t24.5 29.5t22.5 40.5
t13 52.5t6 67.5q0 96 -18 254q-89 0 -195 -4z" />
    <glyph glyph-name="currency" unicode="&#xa4;" horiz-adv-x="1026" 
d="M512 950h-2q-101 0 -156 -85.5t-55 -219.5q0 -152 58.5 -231.5t152.5 -79.5q103 0 156 83t53 220q0 63 -11 117t-34 99t-64.5 71t-97.5 26zM520 1010h2q49 0 106.5 -15.5t98.5 -46.5l111 144l82 -80l-142 -119q82 -82 82 -254q0 -69 -23 -137t-63 -113l146 -127l-78 -80
l-125 156q-80 -64 -207 -64q-128 0 -211 58l-115 -146l-71 80l133 121q-86 90 -86 248q0 171 96 260l-139 117l78 82l116 -148q87 64 209 64z" />
    <glyph glyph-name="yen" unicode="&#xa5;" horiz-adv-x="1024" 
d="M-39 1245l8 27q67 0 170 -3t129 -3q101 0 180 3t89 3l-2 -27q-14 -2 -46.5 -5t-46.5 -5q-18 -3 -22 -14t4 -33q7 -20 38 -93t82 -191t77 -179q69 150 123 281.5t65 164.5q14 41 -10.5 54.5t-126.5 19.5l8 27q35 0 92 -2t88 -2q29 0 89 2t81 2l-2 -27q-65 0 -94.5 -17.5
t-61.5 -70.5q-17 -27 -35.5 -60.5t-38.5 -74.5t-35.5 -73.5t-36.5 -80t-31 -69.5t-29 -67.5t-21 -49.5q119 3 236 10l-19 -55q-11 0 -45.5 1t-86 2.5t-91.5 2.5v-156q147 0 240 7l-19 -54q-32 2 -221 6q0 -226 8 -362q3 -27 12.5 -38t28.5 -13q60 -11 127 -15l-4 -26
q-23 0 -134 3t-208 3q-34 0 -140 -3t-153 -3l2 26q77 8 117 17q45 5 51 53q6 96 10 361q-180 -4 -231 -7l12 54q200 -7 221 -7v156q-165 0 -235 -6l16 53q8 0 32 -1.5t70.5 -3.5t106.5 -3q-43 107 -124 270t-118 222q-29 44 -58 57.5t-87 11.5z" />
    <glyph glyph-name="brokenbar" unicode="&#xa6;" horiz-adv-x="483" 
d="M182 1382h129v-716h-129v716zM182 -358v716h129v-716h-129z" />
    <glyph glyph-name="section" unicode="&#xa7;" horiz-adv-x="882" 
d="M504 1223h2q97 0 158 -44t61 -114q0 -40 -29 -65t-67 -25q-44 0 -78 22q-17 17 -12 27q18 29 18 70t-32.5 65.5t-86.5 24.5q-42 0 -72 -29.5t-30 -73.5q0 -34 10.5 -57t38.5 -57q10 -12 154 -144.5t206 -208.5q31 -40 49.5 -101t18.5 -126q0 -224 -127 -385
q-46 -59 -91 -97.5t-86 -56.5t-73 -24t-69 -6q-53 0 -103.5 16.5t-88.5 56.5t-38 97q0 49 29 77.5t74 28.5q67 0 96 -49q16 -21 2 -39q-27 -27 -27 -63q0 -38 28.5 -63t78.5 -25q63 0 100 34.5t35 90.5q0 40 -22.5 73t-69.5 80q-22 22 -87.5 84.5t-120 116.5t-81.5 86
q-94 105 -94 266q0 135 52 243.5t124 180.5q113 113 250 113zM733 215v2q0 124 -86 227q-45 56 -178.5 184t-151.5 150q-31 38 -46.5 61t-32 78.5t-13.5 122.5q-57 -84 -57 -215q0 -139 141 -280q153 -147 250 -244q108 -116 121 -248q24 26 38.5 70t14.5 92z" />
    <glyph glyph-name="dieresis" unicode="&#xa8;" horiz-adv-x="933" 
d="M287 1294h2q54 0 84 -32t30 -86q0 -59 -38 -94t-82 -35q-46 0 -80.5 30t-34.5 88t33 93.5t86 35.5zM649 1294h2q54 0 84.5 -32t30.5 -84q0 -59 -37.5 -95t-81.5 -36q-49 0 -83 29.5t-34 88.5t33.5 94t85.5 35z" />
    <glyph glyph-name="copyright" unicode="&#xa9;" horiz-adv-x="1329" 
d="M664 1284h2q166 0 301.5 -83t211.5 -224t76 -309q0 -169 -77 -310.5t-213 -224t-301 -82.5q-124 0 -233.5 48.5t-187.5 131.5t-123.5 197t-45.5 240t45.5 239.5t123.5 196.5t187.5 131.5t233.5 48.5zM666 1241h-2q-230 0 -381.5 -162t-151.5 -411t152 -411.5t385 -162.5
q228 0 380 163t152 411q0 246 -150.5 409.5t-383.5 163.5zM954 553l21 -8q-23 -100 -105.5 -152.5t-187.5 -52.5q-88 0 -159 27t-113 75q-74 87 -74 228q0 168 108 262q95 84 258 84q117 0 195 -51q11 -7 16 0l25 51l14 -4q-19 -124 -10 -258h-18q-9 105 -66 174
q-52 61 -129 61t-125 -63q-59 -79 -59 -236q0 -160 57 -229q55 -68 154 -68q69 0 121 40t77 120z" />
    <glyph glyph-name="ordfeminine" unicode="&#xaa;" horiz-adv-x="702" 
d="M393 971v76q0 86 -65 86q-33 0 -51.5 -20t-18.5 -46q0 -17 8 -41q11 -32 -20 -51q-39 -27 -96 -27q-32 0 -52 17.5t-20 44.5q0 60 78.5 104.5t199.5 44.5q91 0 144 -23.5t73 -52.5q17 -24 17 -65q0 -4 -1 -111t-1 -164q0 -53 28 -53q35 0 60 78l20 -10
q-35 -135 -184 -135q-109 0 -119 77l-2 13q-88 -88 -190 -88q-70 0 -113 40.5t-43 104.5q0 44 22.5 74t59.5 39q202 57 266 88zM391 807l2 139q-60 -21 -96 -45q-47 -26 -47 -94q0 -51 18 -80t49 -29q49 0 68 56q6 21 6 53z" />
    <glyph glyph-name="guillemotleft" unicode="&#xab;" horiz-adv-x="935" 
d="M469 807l23 -16q-40 -172 -168 -361q144 -212 168 -354l-19 -15q-62 134 -174.5 232.5t-206.5 122.5l6 22q105 32 208.5 135.5t162.5 233.5zM825 809l23 -14q-24 -98 -72.5 -197t-97.5 -168q54 -77 105 -177.5t65 -178.5l-19 -15q-62 133 -174.5 233t-205.5 124l6 22
q104 32 207 136.5t163 234.5z" />
    <glyph glyph-name="logicalnot" unicode="&#xac;" horiz-adv-x="921" 
d="M733 197v356h-641v86h735v-442h-94z" />
    <glyph glyph-name="uni00AD" unicode="&#xad;" horiz-adv-x="620" 
d="M68 401l22 115q229 -6 463 0l-21 -115q-238 6 -464 0z" />
    <glyph glyph-name="registered" unicode="&#xae;" horiz-adv-x="339" 
d="M174 1292h2q67 0 111.5 -46.5t44.5 -115.5q0 -70 -45 -116.5t-113 -46.5t-113 46.5t-45 116.5q0 69 46 115.5t112 46.5zM174 1276h-2q-55 0 -93 -40.5t-38 -107.5q0 -61 39.5 -102t95.5 -41q59 0 96 40t37 103t-38 105.5t-97 42.5zM92 1200l2 12h92q23 0 36.5 -10.5
t13.5 -27.5q0 -33 -46 -41v-3q38 -3 43 -24q9 -12 9 -29q0 -16 10 -16q4 2 14 2l-2 -10q-15 -6 -28 -6q-33 0 -37 38q0 13 -4 25q-3 16 -21 16q-2 0 -6.5 -1t-11.5 -1q0 -45 2 -55q0 -6 6 -6l14 -2v-12h-84v12l15 2q10 0 10 6q2 12 2 66q0 49 -2 57q0 8 -8 8h-19zM197 1167
v2q0 31 -25 31q-14 0 -14 -4q-2 -4 -2 -59h16q10 0 17.5 8t7.5 22z" />
    <glyph glyph-name="macron" unicode="&#xaf;" horiz-adv-x="933" 
d="M242 1071l20 117h432l-16 -117h-436z" />
    <glyph glyph-name="degree" unicode="&#xb0;" horiz-adv-x="587" 
d="M303 1331h2q98 0 160.5 -58t62.5 -161q0 -110 -67 -169.5t-170 -59.5q-104 0 -167 53.5t-63 159.5q0 114 67 174.5t175 60.5zM299 1300h-2q-35 1 -59 -17t-35.5 -48.5t-16 -60t-4.5 -62.5q0 -94 30 -144t83 -50q37 0 62 19t35.5 52.5t14 62.5t3.5 66q0 182 -111 182z" />
    <glyph glyph-name="plusminus" unicode="&#xb1;" horiz-adv-x="907" 
d="M821 92v-86h-735v86h735zM502 166h-94v319h-322v86h322v301h94v-301h319v-86h-319v-319z" />
    <glyph glyph-name="twosuperior" unicode="&#xb2;" horiz-adv-x="684" 
d="M649 1208l25 -12q-43 -133 -49 -258q-105 6 -400 6q-101 0 -155 -4l-4 10q7 17 22 56.5t18 48.5q127 56 192.5 117.5t88.5 134.5q16 55 16 137q0 141 -75 141q-76 0 -76 -127q0 -11 8 -67q0 -25 -18 -37q-21 -15 -58 -15q-46 0 -74 23t-28 70q0 64 80 124q34 26 88 42
t108 16q122 0 183 -41q84 -56 84 -160q0 -51 -20.5 -85.5t-67.5 -65.5q-19 -14 -53.5 -34.5t-65.5 -37.5t-87.5 -47.5t-88.5 -48.5q272 8 338 14q24 2 34 22q23 40 35 78z" />
    <glyph glyph-name="threesuperior" unicode="&#xb3;" horiz-adv-x="684" 
d="M365 1614h2q62 0 115 -13.5t93.5 -50.5t40.5 -94q0 -85 -92 -119q-52 -19 -155 -41v-6q159 -6 225 -49q59 -37 59 -108q0 -93 -90 -150q-36 -22 -99.5 -38.5t-135.5 -16.5q-111 0 -184.5 39.5t-73.5 101.5q0 37 32.5 63.5t73.5 26.5q26 0 35.5 -12t11.5 -39
q4 -79 34.5 -116.5t76.5 -37.5q47 0 71.5 40.5t24.5 115.5q0 77 -29 119.5t-100 42.5q-41 0 -70 -10l-22 28l4 6q97 -3 141 25q60 37 60 129q0 60 -20.5 97.5t-65.5 37.5q-84 0 -84 -117q0 -21 4 -49q3 -21 -13.5 -31t-46.5 -10q-38 0 -66 17.5t-28 56.5q0 60 72 111t199 51
z" />
    <glyph glyph-name="acute" unicode="&#xb4;" horiz-adv-x="933" 
d="M473 975l-22 12q23 38 94 162.5t84 146.5q48 76 108 76q26 0 39.5 -19t11.5 -50q0 -46 -71 -113q-29 -29 -244 -215z" />
    <glyph glyph-name="mu" unicode="&#xb5;" horiz-adv-x="1134" 
d="M1130 182l29 -35q-65 -174 -285 -174q-42 0 -73 10.5t-49.5 27t-29.5 42t-15 51t-5 58.5q-53 -78 -127.5 -132t-158.5 -50q-61 0 -86 28q2 -85 10 -172.5t24 -206.5t17 -125l-16 -12q-71 1 -135.5 15t-96 28.5t-35.5 22.5q29 304 43 614v477q0 125 -4 215q89 -2 305 17
q-16 -188 -16 -408q0 -289 12 -348q15 -62 68 -62q134 0 186 195q15 59 15 115v254q0 95 -7 231q51 2 166.5 8.5t132.5 7.5q-8 -94 -8 -274v-256q0 -183 6 -244q3 -55 31 -55t57.5 31t44.5 106z" />
    <glyph glyph-name="paragraph" unicode="&#xb6;" horiz-adv-x="1009" 
d="M954 1124v-28l-125 -15q-30 -3 -38.5 -25.5t-8.5 -111.5v-616q0 -283 -21.5 -408t-96.5 -205q-78 -82 -211 -82q-42 0 -81.5 10.5t-75 32.5t-56.5 62t-21 94q0 52 33.5 90.5t79.5 38.5q25 0 43.5 -7.5t30 -22t16 -23.5t10.5 -23q11 -23 3 -33q-3 -3 -7 -2q-18 11 -39 11
q-35 0 -52.5 -22.5t-17.5 -51.5q0 -50 40.5 -82.5t107.5 -32.5q43 0 73.5 7.5t64 35t53.5 76.5t33.5 137t13.5 211v166q-42 -20 -104.5 -37.5t-90.5 -17.5q-191 0 -304.5 117.5t-113.5 310.5q0 130 52.5 230t156.5 159q57 31 109 41t131 10h219q59 0 194 6z" />
    <glyph glyph-name="periodcentered" unicode="&#xb7;" horiz-adv-x="501" 
d="M252 612h2q64 0 108 -46.5t44 -114.5q0 -69 -44.5 -114.5t-109.5 -45.5t-110.5 46t-45.5 114t45.5 114.5t110.5 46.5z" />
    <glyph glyph-name="cedilla" unicode="&#xb8;" horiz-adv-x="933" 
d="M479 -10h37q-10 -16 -34.5 -52t-37.5 -57q64 -9 110 -42.5t46 -100.5q0 -80 -55 -124t-137 -44q-63 0 -119 39l14 31q45 -25 96 -25q37 0 57.5 18t20.5 50q0 37 -35.5 58t-95.5 21l-10 21q22 33 71.5 104t71.5 103z" />
    <glyph glyph-name="onesuperior" unicode="&#xb9;" horiz-adv-x="684" 
d="M584 967l2 -29q-35 0 -112.5 3t-117.5 3q-46 0 -115 -3t-89 -3l-7 27l80 8q42 3 45 28q6 87 6 166v211q0 125 -4 154q-3 15 -16 12q-9 -2 -42 -7.5t-62 -10.5l10 33q254 36 307 55l6 -4q-6 -111 -6 -232v-209q0 -88 4 -170q4 -22 31 -24z" />
    <glyph glyph-name="ordmasculine" unicode="&#xba;" horiz-adv-x="735" 
d="M379 1159h2q140 0 221.5 -67t81.5 -195q0 -122 -87 -197t-241 -75q-153 0 -229 70t-76 186q0 123 85.5 200.5t242.5 77.5zM373 1133h-2q-46 0 -70 -46q-33 -61 -33 -196q0 -122 23 -184q24 -58 76 -58q54 0 75 56q27 73 27 198q0 117 -23 178q-23 52 -73 52z" />
    <glyph glyph-name="guillemotright" unicode="&#xbb;" horiz-adv-x="935" 
d="M471 61l-22 17q40 173 167 360q-55 81 -104.5 178.5t-62.5 176.5l18 14q62 -134 174 -232t207 -122l-6 -23q-105 -32 -208.5 -135.5t-162.5 -233.5zM115 59l-23 15q24 98 72.5 196t97.5 168q-54 77 -105 178t-65 179l19 14q62 -133 174.5 -232.5t206.5 -123.5l-7 -23
q-104 -32 -207 -136.5t-163 -234.5z" />
    <glyph glyph-name="onequarter" unicode="&#xbc;" horiz-adv-x="1388" 
d="M545 664l2 -29q-35 0 -112.5 3t-117.5 3q-46 0 -115 -3t-89 -3l-7 27l80 8q42 3 45 28q7 102 7 166v211q0 118 -5 154q-3 15 -16 12q-9 -2 -42 -7.5t-62 -10.5l10 32q250 35 307 56l6 -4q-6 -111 -6 -232v-209q0 -88 4 -170q4 -22 31 -24zM1116 1372l35 -35
q-459 -689 -858 -1325l-35 39q448 665 858 1321zM678 285l-14 30q226 255 323 406q110 15 184 39l7 -4q-4 -176 -4 -348v-95q72 4 126 31l3 -22q-48 -38 -129 -50q0 -86 4 -180q-142 -2 -215 -18l-7 6q5 37 11 184q-200 0 -289 21zM969 311q12 197 12 346
q-206 -274 -242 -325q92 -21 230 -21z" />
    <glyph glyph-name="onehalf" unicode="&#xbd;" horiz-adv-x="1388" 
d="M512 664l2 -29q-35 0 -112 3t-117 3q-46 0 -115.5 -3t-89.5 -3l-6 27l80 8q42 3 45 28q6 81 6 166v211q0 125 -4 154q-3 15 -17 12q-9 -2 -42 -7.5t-62 -10.5l10 32q250 35 307 56l6 -4q-6 -111 -6 -234v-209q0 -90 4 -168q4 -22 31 -24zM1069 1372l35 -35
q-508 -771 -858 -1325l-33 39q462 690 856 1321zM1307 367l24 -13q-41 -126 -47 -258q-111 6 -399 6q-115 0 -158 -6l-4 10q6 15 20.5 53.5t20.5 53.5q128 56 194 117t89 133q16 55 16 137q0 141 -76 141t-76 -127q0 -9 1.5 -21.5t4 -26.5t3.5 -19q3 -20 -19 -35
q-20 -14 -57 -14q-46 0 -74.5 21.5t-28.5 68.5q0 66 78 127q33 25 89 40t110 15q118 0 182 -41q82 -53 82 -158q0 -52 -20 -87t-66 -64q-19 -14 -54.5 -34.5t-65 -37t-88 -48.5t-87.5 -48q269 8 336 14q25 2 35 23q20 28 35 78z" />
    <glyph glyph-name="threequarters" unicode="&#xbe;" horiz-adv-x="1388" 
d="M356 1311h2q45 0 86.5 -8t79.5 -25t61 -49.5t23 -75.5q0 -85 -92 -119q-50 -19 -156 -41v-6q159 -6 228 -49q59 -37 59 -109q0 -92 -90 -149q-36 -22 -100.5 -38.5t-137.5 -16.5q-111 0 -184.5 39.5t-73.5 101.5q0 37 33 63.5t74 26.5q26 0 35.5 -12t11.5 -39
q4 -79 35 -116.5t78 -37.5t71.5 40.5t24.5 115.5q0 77 -29 119.5t-100 42.5q-40 0 -72 -11l-22 29l4 6q97 -3 141 25q60 37 60 129q0 60 -21 97.5t-66 37.5q-83 0 -83 -117q0 -21 4 -49q3 -21 -13.5 -31t-46.5 -10q-38 0 -66 17.5t-28 56.5q0 60 71.5 111t198.5 51z
M1157 1372l35 -35q-553 -839 -858 -1325l-33 39q462 690 856 1321zM707 285l-15 30q230 259 324 406q93 9 184 39l6 -6q-4 -176 -4 -346v-95q73 4 127 31l2 -22q-48 -38 -129 -50q0 -86 4 -180q-142 -2 -215 -18l-6 6q3 25 10 184q-199 0 -288 21zM997 311q13 213 13 344
q-169 -221 -242 -323q92 -21 229 -21z" />
    <glyph glyph-name="questiondown" unicode="&#xbf;" horiz-adv-x="839" 
d="M438 420l23 12q111 -115 119 -231q6 -80 -62 -144q-57 -57 -203 -188q-51 -48 -51 -121q0 -96 44 -144t112 -48q67 0 104 41t37 102q0 49 -22 102q-18 35 20 70q47 41 117 41q43 0 73.5 -31.5t30.5 -93.5t-33 -114.5t-86 -84.5t-115 -49.5t-124 -17.5q-180 0 -271.5 99
t-91.5 271q0 138 117 222q180 135 215 170q39 33 49.5 62.5t-2.5 74.5zM434 887h2q63 0 107.5 -46.5t44.5 -115.5q0 -68 -45 -114t-109 -46q-66 0 -110.5 46t-44.5 116q0 69 44 114.5t111 45.5z" />
    <glyph glyph-name="Agrave" unicode="&#xc0;" horiz-adv-x="1234" 
d="M1260 18v-26q-165 6 -306 6q-3 0 -303 -6l6 26q79 11 98 21.5t13 42.5q-3 18 -111 434q-43 2 -174 2q-133 0 -178 -2q-96 -316 -104 -379q-7 -25 -2.5 -44t11.5 -31t29.5 -20.5t52.5 -14t79 -9.5l-9 -26q-18 0 -81.5 4t-112.5 4q-26 0 -106.5 -4t-116.5 -4v26
q84 8 118.5 31.5t65.5 100.5q84 213 346 1048q16 50 19 98q44 -2 136 9.5t120 27.5q52 -223 186 -686.5t184 -566.5q19 -47 68 -53zM498 1145q-133 -427 -179 -584q20 0 79 -1t89 -1q34 0 89.5 1t68.5 1q-98 401 -147 584zM686 1413l-14 -16q-46 17 -125.5 45.5t-129.5 47
t-63 23.5q-21 8 -40 26t-25 38q-11 40 0 59.5t35 28.5q53 20 108 -20q17 -14 125 -113.5t129 -118.5z" />
    <glyph glyph-name="Aacute" unicode="&#xc1;" horiz-adv-x="1234" 
d="M1260 18v-26q-165 6 -306 6q-3 0 -303 -6l6 26q79 11 98 21.5t13 42.5q-3 18 -111 434q-43 2 -174 2q-133 0 -178 -2q-96 -316 -104 -379q-7 -25 -2.5 -44t11.5 -31t29.5 -20.5t52.5 -14t79 -9.5l-9 -26q-18 0 -81.5 4t-112.5 4q-26 0 -106.5 -4t-116.5 -4v26
q84 8 118.5 31.5t65.5 100.5q84 213 346 1048q16 50 19 98q44 -2 136 9.5t120 27.5q52 -223 186 -686.5t184 -566.5q19 -47 68 -53zM498 1145q-133 -427 -179 -584q20 0 79 -1t89 -1q34 0 89.5 1t68.5 1q-98 401 -147 584zM539 1397l-15 18q17 14 127 103t146 116
q28 22 60.5 29t60.5 -4q22 -10 28.5 -31.5t-6.5 -54.5q-19 -44 -92 -70q-224 -79 -309 -106z" />
    <glyph glyph-name="Acircumflex" unicode="&#xc2;" horiz-adv-x="1234" 
d="M1260 18v-26q-165 6 -306 6q-3 0 -303 -6l6 26q79 11 98 21.5t13 42.5q-3 18 -111 434q-43 2 -174 2q-133 0 -178 -2q-96 -316 -104 -379q-7 -25 -2.5 -44t11.5 -31t29.5 -20.5t52.5 -14t79 -9.5l-9 -26q-18 0 -81.5 4t-112.5 4q-26 0 -106.5 -4t-116.5 -4v26
q84 8 118.5 31.5t65.5 100.5q84 213 346 1048q16 50 19 98q44 -2 136 9.5t120 27.5q52 -223 186 -686.5t184 -566.5q19 -47 68 -53zM498 1145q-133 -427 -179 -584q20 0 79 -1t89 -1q34 0 89.5 1t68.5 1q-98 401 -147 584zM618 1647l19 6q96 -145 264 -250l-10 -19
q-195 64 -264 105q-110 -56 -262 -105l-13 19q75 47 136 100.5t86.5 85t43.5 58.5z" />
    <glyph glyph-name="Atilde" unicode="&#xc3;" horiz-adv-x="1234" 
d="M1260 18v-26q-165 6 -306 6q-3 0 -303 -6l6 26q79 11 98 21.5t13 42.5q-3 18 -111 434q-43 2 -174 2q-133 0 -178 -2q-96 -316 -104 -379q-7 -25 -2.5 -44t11.5 -31t29.5 -20.5t52.5 -14t79 -9.5l-9 -26q-18 0 -81.5 4t-112.5 4q-26 0 -106.5 -4t-116.5 -4v26
q84 8 118.5 31.5t65.5 100.5q84 213 346 1048q16 50 19 98q44 -2 136 9.5t120 27.5q52 -223 186 -686.5t184 -566.5q19 -47 68 -53zM498 1145q-133 -427 -179 -584q20 0 79 -1t89 -1q34 0 89.5 1t68.5 1q-98 401 -147 584zM403 1403l-28 6q5 37 16 71.5t29.5 68t48.5 53.5
t68 20q47 0 131 -57q67 -49 108 -49q28 0 49 31.5t27 84.5l29 -10q-5 -36 -15 -70t-28 -68.5t-47 -55.5t-66 -21q-52 0 -137 61q-63 45 -101 45q-30 0 -53 -31t-31 -79z" />
    <glyph glyph-name="Adieresis" unicode="&#xc4;" horiz-adv-x="1234" 
d="M1260 18v-26q-165 6 -306 6q-3 0 -303 -6l6 26q79 11 98 21.5t13 42.5q-3 18 -111 434q-43 2 -174 2q-133 0 -178 -2q-96 -316 -104 -379q-7 -25 -2.5 -44t11.5 -31t29.5 -20.5t52.5 -14t79 -9.5l-9 -26q-18 0 -81.5 4t-112.5 4q-26 0 -106.5 -4t-116.5 -4v26
q84 8 118.5 31.5t65.5 100.5q84 213 346 1048q16 50 19 98q44 -2 136 9.5t120 27.5q52 -223 186 -686.5t184 -566.5q19 -47 68 -53zM498 1145q-133 -427 -179 -584q20 0 79 -1t89 -1q34 0 89.5 1t68.5 1q-98 401 -147 584zM428 1620h2q48 0 76.5 -30t28.5 -74
q0 -52 -34 -83.5t-75 -31.5q-42 0 -72 25.5t-30 78.5q0 51 29 83t75 32zM807 1620h2q48 0 76 -30t28 -74q0 -52 -34 -83.5t-76 -31.5t-71.5 25.5t-29.5 78.5q0 51 29.5 83t75.5 32z" />
    <glyph glyph-name="Aring" unicode="&#xc5;" horiz-adv-x="1234" 
d="M625 1718h2q73 0 119.5 -41.5t46.5 -117.5q0 -79 -52 -123.5t-129 -44.5q-78 0 -126 40.5t-48 114.5q0 81 53 126.5t134 45.5zM616 1686h-2q-21 0 -35.5 -13t-21.5 -35t-9.5 -41.5t-2.5 -40.5q0 -67 20 -101t51 -34q20 0 34 11t21 24.5t10.5 36.5t4 35.5t0.5 32.5
t-2.5 38.5t-9.5 39.5t-22 34t-36 13zM1260 18v-26q-165 6 -306 6q-3 0 -303 -6l6 26q79 11 98 21.5t13 42.5q-3 18 -111 434q-43 2 -174 2q-133 0 -178 -2q-96 -316 -104 -379q-7 -25 -2.5 -44t11.5 -31t29.5 -20.5t52.5 -14t79 -9.5l-9 -26q-18 0 -81.5 4t-112.5 4
q-26 0 -106.5 -4t-116.5 -4v26q84 8 118.5 31.5t65.5 100.5q84 213 346 1048q16 50 19 98q44 -2 136 9.5t120 27.5q52 -223 186 -686.5t184 -566.5q19 -47 68 -53zM498 1145q-133 -427 -179 -584q20 0 79 -1t89 -1q34 0 89.5 1t68.5 1q-98 401 -147 584z" />
    <glyph glyph-name="AE" unicode="&#xc6;" horiz-adv-x="1775" 
d="M952 1307h383q85 0 183 4q83 7 108 14q-14 -83 -8 -367h-25q-1 5 -4 21.5l-4 22t-4 20.5t-5 22.5t-5.5 21t-7 23t-8 22t-10 24.5t-11.5 24q-34 67 -102.5 90t-221.5 23h-55q-37 0 -37 -33q-12 -132 -12 -336v-241h96q133 0 184.5 43t65.5 145h23q-10 -94 -11.5 -241.5
t6.5 -221.5l-24 2q-1 2 -2 7q-22 107 -46 145q-49 79 -181 84h-21h-90v-121q0 -319 8 -420q2 -21 9 -30t35 -14t89 -5q124 0 187.5 11.5t115.5 51.5q56 42 95.5 119.5t60.5 163.5l25 -6q-3 -40 -24 -183.5t-32 -203.5q-83 6 -260 10q-96 2 -313 2h-121q-72 0 -199 -4
t-155 -4l2 26l100 13q30 3 42 14.5t13 44.5q15 205 15 408v127q-12 0 -156 -3.5t-192 -5.5q-182 -353 -226 -497q-13 -39 3.5 -59.5t76.5 -26.5l90 -15l-2 -26q-35 0 -111 4t-128 4q-35 0 -99.5 -4t-89.5 -4v26q79 8 118 36t87 120q109 205 298.5 570.5t256.5 494.5
q10 20 5.5 27.5t-23.5 9.5l-160 12l-6 25q52 1 201.5 -2.5t209.5 -3.5zM799 662v602h-17q-214 -405 -307 -600q107 -6 324 -2z" />
    <glyph glyph-name="Ccedilla" unicode="&#xc7;" horiz-adv-x="1275" 
d="M768 -35q-6 -10 -25 -37.5t-28 -44.5q62 -9 106.5 -42t44.5 -99q0 -79 -53 -122.5t-135 -43.5q-61 0 -117 39l14 31q45 -25 95 -25q78 0 78 68q0 34 -36 56t-94 22l-8 20q15 24 32.5 49.5t44 63t44.5 63.5h-14q-343 0 -504 199q-141 165 -141 463q0 376 227 563
q181 153 471 153q125 0 221.5 -31.5t153.5 -86.5l37 110l20 -10q-14 -99 -18.5 -234t0.5 -202l-25 -6q-7 82 -31.5 155t-66 134.5t-107 98t-147.5 36.5q-84 0 -144 -30t-108 -95q-62 -82 -96.5 -219t-34.5 -302q0 -289 96 -450q103 -166 314 -166q132 0 235 78t150 239
l26 -18q-48 -171 -169 -269t-308 -108z" />
    <glyph glyph-name="Egrave" unicode="&#xc8;" horiz-adv-x="1155" 
d="M27 1288v25q24 0 156 -3t188 -3h350q215 0 289 18q-15 -109 -9 -369l-24 -6q-19 129 -72 224q-24 43 -51.5 62.5t-80 27.5t-159.5 8h-67q-21 0 -29 -7.5t-8 -25.5q-12 -198 -12 -346v-195q27 -2 114 -2q123 0 173 44.5t69 158.5h25q-12 -99 -14.5 -247.5t5.5 -225.5h-24
q-10 65 -22 103.5t-37.5 70.5t-69 45.5t-111.5 13.5q-94 0 -108 -2v-163q0 -305 8 -406q2 -30 25.5 -41.5t97.5 -11.5q126 0 185 12t112 55q52 39 93.5 120t65.5 167l25 -8q-1 -32 -26 -190.5t-35 -200.5q-160 10 -449 10h-233q-71 0 -197 -4t-156 -4l2 26l97 11
q33 3 48.5 18t18.5 51q10 137 10 416v354q0 284 -8 363q-3 26 -19.5 36.5t-51.5 12.5zM653 1423l-14 -16q-296 108 -317 117q-21 8 -40.5 26t-25.5 37q-11 40 0 59.5t35 28.5q53 20 108 -20q17 -14 125 -113.5t129 -118.5z" />
    <glyph glyph-name="Eacute" unicode="&#xc9;" horiz-adv-x="1155" 
d="M27 1288v25q24 0 156 -3t188 -3h350q215 0 289 18q-15 -109 -9 -369l-24 -6q-19 129 -72 224q-24 43 -51.5 62.5t-80 27.5t-159.5 8h-67q-21 0 -29 -7.5t-8 -25.5q-12 -198 -12 -346v-195q27 -2 114 -2q123 0 173 44.5t69 158.5h25q-12 -99 -14.5 -247.5t5.5 -225.5h-24
q-10 65 -22 103.5t-37.5 70.5t-69 45.5t-111.5 13.5q-94 0 -108 -2v-163q0 -305 8 -406q2 -30 25.5 -41.5t97.5 -11.5q126 0 185 12t112 55q52 39 93.5 120t65.5 167l25 -8q-1 -32 -26 -190.5t-35 -200.5q-160 10 -449 10h-233q-71 0 -197 -4t-156 -4l2 26l97 11
q33 3 48.5 18t18.5 51q10 137 10 416v354q0 284 -8 363q-3 26 -19.5 36.5t-51.5 12.5zM494 1407l-15 18q19 15 128 104t145 116q62 49 120 24q22 -10 29 -31.5t-6 -54.5q-19 -44 -92 -70q-224 -79 -309 -106z" />
    <glyph glyph-name="Ecircumflex" unicode="&#xca;" horiz-adv-x="1155" 
d="M27 1288v25q24 0 156 -3t188 -3h350q215 0 289 18q-15 -109 -9 -369l-24 -6q-19 129 -72 224q-24 43 -51.5 62.5t-80 27.5t-159.5 8h-67q-21 0 -29 -7.5t-8 -25.5q-12 -198 -12 -346v-195q27 -2 114 -2q123 0 173 44.5t69 158.5h25q-12 -99 -14.5 -247.5t5.5 -225.5h-24
q-10 65 -22 103.5t-37.5 70.5t-69 45.5t-111.5 13.5q-94 0 -108 -2v-163q0 -305 8 -406q2 -30 25.5 -41.5t97.5 -11.5q126 0 185 12t112 55q52 39 93.5 120t65.5 167l25 -8q-1 -32 -26 -190.5t-35 -200.5q-160 10 -449 10h-233q-71 0 -197 -4t-156 -4l2 26l97 11
q33 3 48.5 18t18.5 51q10 137 10 416v354q0 284 -8 363q-3 26 -19.5 36.5t-51.5 12.5zM575 1673l19 6q95 -144 264 -249l-10 -19q-195 64 -264 105q-110 -56 -262 -105l-13 19q183 114 266 243z" />
    <glyph glyph-name="Edieresis" unicode="&#xcb;" horiz-adv-x="1155" 
d="M27 1288v25q24 0 156 -3t188 -3h350q215 0 289 18q-15 -109 -9 -369l-24 -6q-19 129 -72 224q-24 43 -51.5 62.5t-80 27.5t-159.5 8h-67q-21 0 -29 -7.5t-8 -25.5q-12 -198 -12 -346v-195q27 -2 114 -2q123 0 173 44.5t69 158.5h25q-12 -99 -14.5 -247.5t5.5 -225.5h-24
q-10 65 -22 103.5t-37.5 70.5t-69 45.5t-111.5 13.5q-94 0 -108 -2v-163q0 -305 8 -406q2 -30 25.5 -41.5t97.5 -11.5q126 0 185 12t112 55q52 39 93.5 120t65.5 167l25 -8q-1 -32 -26 -190.5t-35 -200.5q-160 10 -449 10h-233q-71 0 -197 -4t-156 -4l2 26l97 11
q33 3 48.5 18t18.5 51q10 137 10 416v354q0 284 -8 363q-3 26 -19.5 36.5t-51.5 12.5zM387 1634h2q48 0 76.5 -30t28.5 -74q0 -52 -34 -83.5t-75 -31.5q-42 0 -72 26t-30 79q0 51 29 82.5t75 31.5zM766 1634h2q48 0 76 -30t28 -74q0 -52 -34 -83.5t-76 -31.5q-41 0 -70.5 26
t-29.5 79q0 51 29 82.5t75 31.5z" />
    <glyph glyph-name="Igrave" unicode="&#xcc;" horiz-adv-x="690" 
d="M190 473v373q0 296 -6 373q-4 39 -32 51t-115 18l2 27q23 0 131 -4t182 -4q62 0 167.5 4t129.5 4l4 -27q-85 -5 -113 -17t-32 -48q-8 -196 -8 -375v-375q0 -253 10 -385q3 -40 31 -52t116 -18l-4 -26q-29 0 -138 4t-173 4q-68 0 -178 -4t-133 -4l4 26q82 5 112 18t33 50
q10 78 10 387zM428 1417l-14 -16q-304 111 -318 117q-21 8 -40 25.5t-25 37.5q-11 40 0 59.5t35 28.5q53 20 108 -20q17 -14 125 -113.5t129 -118.5z" />
    <glyph glyph-name="Iacute" unicode="&#xcd;" horiz-adv-x="690" 
d="M190 473v373q0 296 -6 373q-4 39 -32 51t-115 18l2 27q23 0 131 -4t182 -4q62 0 167.5 4t129.5 4l4 -27q-85 -5 -113 -17t-32 -48q-8 -196 -8 -375v-375q0 -253 10 -385q3 -40 31 -52t116 -18l-4 -26q-29 0 -138 4t-173 4q-68 0 -178 -4t-133 -4l4 26q82 5 112 18t33 50
q10 78 10 387zM238 1395l-15 18q17 14 127 103t146 116q29 22 60 29t60 -4q22 -10 29 -31.5t-6 -54.5q-19 -44 -92 -70q-224 -79 -309 -106z" />
    <glyph glyph-name="Icircumflex" unicode="&#xce;" horiz-adv-x="690" 
d="M190 473v373q0 296 -6 373q-4 39 -32 51t-115 18l2 27q23 0 131 -4t182 -4q62 0 167.5 4t129.5 4l4 -27q-85 -5 -113 -17t-32 -48q-8 -196 -8 -375v-375q0 -253 10 -385q3 -40 31 -52t116 -18l-4 -26q-29 0 -138 4t-173 4q-68 0 -178 -4t-133 -4l4 26q82 5 112 18t33 50
q10 78 10 387zM340 1655l18 6q95 -144 265 -250l-11 -18q-199 65 -264 104q-105 -54 -262 -104l-12 18q75 47 136 100.5t86.5 85t43.5 58.5z" />
    <glyph glyph-name="Idieresis" unicode="&#xcf;" horiz-adv-x="690" 
d="M190 473v373q0 296 -6 373q-4 39 -32 51t-115 18l2 27q23 0 131 -4t182 -4q62 0 167.5 4t129.5 4l4 -27q-85 -5 -113 -17t-32 -48q-8 -196 -8 -375v-375q0 -253 10 -385q3 -40 31 -52t116 -18l-4 -26q-29 0 -138 4t-173 4q-68 0 -178 -4t-133 -4l4 26q82 5 112 18t33 50
q10 78 10 387zM152 1630h2q48 0 76 -30t28 -74q0 -52 -33.5 -83.5t-74.5 -31.5q-42 0 -72.5 26t-30.5 79q0 51 29.5 82.5t75.5 31.5zM530 1630h2q48 0 76.5 -30t28.5 -74q0 -52 -34.5 -83.5t-76.5 -31.5q-41 0 -70.5 26t-29.5 79q0 51 29 82.5t75 31.5z" />
    <glyph glyph-name="Eth" unicode="&#xd0;" horiz-adv-x="1425" 
d="M25 670l4 55q11 0 74.5 -2t109.5 -2v147q0 196 -6 349q-1 30 -12 44t-33 17l-115 12l4 25q7 0 109 -4t164 -4q42 0 166 4t204 4q291 0 414 -74q248 -152 248 -545q0 -102 -18.5 -194t-57.5 -178t-107 -154.5t-159 -110.5q-136 -65 -361 -65q-66 0 -198 4q-49 2 -142 2
q-58 0 -155 -3.5t-115 -2.5l2 24l86 9q39 4 52.5 16.5t15.5 40.5q14 158 14 455v137q-111 0 -188 -6zM797 725l-9 -57q-9 0 -46.5 1t-100.5 2.5t-121 2.5v-148q0 -393 8 -458q3 -41 93 -41q114 0 180 32.5t110 94.5q47 72 80 207t33 319q0 354 -111 491q-49 61 -107.5 86
t-172.5 25q-102 0 -105 -43q-8 -62 -8 -393v-129q117 0 277 8z" />
    <glyph glyph-name="Ntilde" unicode="&#xd1;" horiz-adv-x="1300" 
d="M23 1288v25q5 0 95.5 -3t151.5 -3q138 0 201 6q8 -15 21 -36.5t38.5 -61t47.5 -74.5q101 -164 516 -776q0 702 -17 823q-6 52 -25 70t-77 22l-84 8l10 25q29 0 104.5 -4t112.5 -4q41 0 111 4t86 4v-25q-13 -3 -45 -7t-45 -7q-27 -6 -39.5 -23t-20.5 -53q-14 -66 -23 -265
t-9 -452v-483q-62 0 -175 -21q-185 302 -718 1143q0 -861 16 -1005q10 -69 72 -80q9 -1 51.5 -8t66.5 -9l-4 -26q-23 0 -106 4t-146 4q-55 0 -110 -4t-70 -4v26q11 0 42.5 5t43.5 6q35 7 51.5 32t24.5 78q5 52 12 168t14 355.5t7 502.5q-15 33 -37 68q-25 37 -68 43z
M455 1417l-29 6q5 37 16 71.5t29.5 68t48.5 53.5t68 20q47 0 131 -57q67 -49 108 -49q28 0 49 32t27 85l29 -11q-5 -36 -15 -70t-28 -68.5t-47 -55.5t-66 -21q-50 0 -137 62q-63 45 -100 45q-30 0 -53 -31.5t-31 -79.5z" />
    <glyph glyph-name="Ograve" unicode="&#xd2;" horiz-adv-x="1419" 
d="M713 1341h2q294 0 464.5 -183t170.5 -478q0 -337 -167.5 -526t-473.5 -189q-155 0 -277.5 50t-201 140.5t-119.5 214.5t-41 275q0 116 26 219.5t79 191t129 151t180.5 99t228.5 35.5zM702 1309h-2q-123 0 -192 -127q-37 -73 -60.5 -202t-23.5 -294q0 -177 29 -335
t75 -232q70 -119 197 -119q129 0 193 127q36 74 56.5 212.5t20.5 305.5t-24 311t-64 224q-35 69 -85.5 99t-119.5 30zM780 1427l-14 -16q-296 108 -317 117q-21 8 -40.5 26t-25.5 37q-11 40 0 59.5t35 28.5q53 20 108 -20q17 -14 125 -113.5t129 -118.5z" />
    <glyph glyph-name="Oacute" unicode="&#xd3;" horiz-adv-x="1419" 
d="M713 1341h2q294 0 464.5 -183t170.5 -478q0 -337 -167.5 -526t-473.5 -189q-155 0 -277.5 50t-201 140.5t-119.5 214.5t-41 275q0 116 26 219.5t79 191t129 151t180.5 99t228.5 35.5zM702 1309h-2q-123 0 -192 -127q-37 -73 -60.5 -202t-23.5 -294q0 -177 29 -335
t75 -232q70 -119 197 -119q129 0 193 127q36 74 56.5 212.5t20.5 305.5t-24 311t-64 224q-35 69 -85.5 99t-119.5 30zM590 1417l-15 19q17 14 127 103t146 116q63 49 121 24q22 -10 28.5 -31.5t-6.5 -54.5q-18 -42 -92 -69q-259 -91 -309 -107z" />
    <glyph glyph-name="Ocircumflex" unicode="&#xd4;" horiz-adv-x="1419" 
d="M713 1341h2q294 0 464.5 -183t170.5 -478q0 -337 -167.5 -526t-473.5 -189q-155 0 -277.5 50t-201 140.5t-119.5 214.5t-41 275q0 116 26 219.5t79 191t129 151t180.5 99t228.5 35.5zM702 1309h-2q-123 0 -192 -127q-37 -73 -60.5 -202t-23.5 -294q0 -177 29 -335
t75 -232q70 -119 197 -119q129 0 193 127q36 74 56.5 212.5t20.5 305.5t-24 311t-64 224q-35 69 -85.5 99t-119.5 30zM694 1671l19 6q96 -145 264 -250l-10 -18l-39 13l-48 16t-44 15.5t-50 19t-42 18.5t-42 22q-105 -54 -262 -104l-12 18q75 47 136 100.5t86.5 85
t43.5 58.5z" />
    <glyph glyph-name="Otilde" unicode="&#xd5;" horiz-adv-x="1419" 
d="M713 1341h2q294 0 464.5 -183t170.5 -478q0 -337 -167.5 -526t-473.5 -189q-155 0 -277.5 50t-201 140.5t-119.5 214.5t-41 275q0 116 26 219.5t79 191t129 151t180.5 99t228.5 35.5zM702 1309h-2q-123 0 -192 -127q-37 -73 -60.5 -202t-23.5 -294q0 -177 29 -335
t75 -232q70 -119 197 -119q129 0 193 127q36 74 56.5 212.5t20.5 305.5t-24 311t-64 224q-35 69 -85.5 99t-119.5 30zM479 1425l-28 7q5 37 15.5 71.5t29 68t48.5 53.5t68 20q46 0 131 -58q67 -49 109 -49q28 0 49 32t27 85l28 -10q-5 -36 -15 -69.5t-27.5 -68.5t-46.5 -56
t-66 -21q-52 0 -137 61q-63 45 -101 45q-30 0 -53 -31.5t-31 -79.5z" />
    <glyph glyph-name="Odieresis" unicode="&#xd6;" horiz-adv-x="1419" 
d="M713 1341h2q294 0 464.5 -183t170.5 -478q0 -337 -167.5 -526t-473.5 -189q-155 0 -277.5 50t-201 140.5t-119.5 214.5t-41 275q0 116 26 219.5t79 191t129 151t180.5 99t228.5 35.5zM702 1309h-2q-123 0 -192 -127q-37 -73 -60.5 -202t-23.5 -294q0 -177 29 -335
t75 -232q70 -119 197 -119q129 0 193 127q36 74 56.5 212.5t20.5 305.5t-24 311t-64 224q-35 69 -85.5 99t-119.5 30zM514 1638h2q48 0 76.5 -30t28.5 -74q0 -52 -34 -83.5t-75 -31.5q-42 0 -72 26t-30 79q0 51 29 82.5t75 31.5zM893 1638h2q48 0 76 -30t28 -74
q0 -52 -34 -83.5t-76 -31.5q-41 0 -71 26t-30 79q0 51 29.5 82.5t75.5 31.5z" />
    <glyph glyph-name="multiply" unicode="&#xd7;" horiz-adv-x="907" 
d="M809 750l-295 -304l295 -299l-61 -65l-297 301l-293 -301l-62 65l293 299l-293 299l62 66l293 -299l297 303z" />
    <glyph glyph-name="Oslash" unicode="&#xd8;" horiz-adv-x="1425" 
d="M1169 1370l50 -22q-62 -86 -95 -129q108 -93 169 -234t61 -305q0 -327 -173.5 -521t-475.5 -194q-212 0 -357 94q-15 -24 -90 -137l-51 19q20 28 55.5 79t44.5 64q-113 90 -174 233.5t-61 321.5q0 147 43.5 274t125.5 222.5t208 150.5t282 55q207 0 354 -94q43 61 84 123
zM717 1309h-2q-111 0 -185 -109q-45 -73 -74.5 -225t-29.5 -311q0 -221 49 -365q81 131 475 782q-29 111 -84.5 169.5t-148.5 58.5zM715 0h2q66 0 112.5 27.5t83.5 95.5q40 77 63 218.5t23 320.5q0 223 -36 352q-92 -150 -260 -430.5t-211 -350.5q69 -233 223 -233z" />
    <glyph glyph-name="Ugrave" unicode="&#xd9;" horiz-adv-x="1310" 
d="M774 35h2q66 0 115.5 15t93 52t69.5 108t33 175q26 396 0 803q-3 54 -22 71.5t-61 20.5l-95 8l-4 27q24 0 99 -4t108 -4q40 0 100 4t86 4l9 -27l-68 -6q-41 -4 -54.5 -23t-15.5 -67q-4 -83 -10.5 -270.5t-13 -336.5t-15.5 -229q-23 -218 -157 -309q-115 -80 -311 -80
q-286 0 -400 131q-85 99 -88 318q-1 98 -2 399t-2 393q-2 38 -10.5 54.5t-32.5 17.5l-98 8v27q30 0 138.5 -4t166.5 -4q63 0 167 4t128 4l6 -27l-94 -10q-22 -3 -31 -14t-12 -35q-27 -308 -13 -805q3 -151 22 -219.5t64 -106.5q30 -29 87 -46t116 -17zM825 1415l-14 -16
q-296 108 -317 117q-21 8 -40.5 26t-25.5 37q-11 40 0 59.5t35 28.5q53 20 108 -20q17 -14 125 -113.5t129 -118.5z" />
    <glyph glyph-name="Uacute" unicode="&#xda;" horiz-adv-x="1310" 
d="M774 35h2q66 0 115.5 15t93 52t69.5 108t33 175q26 396 0 803q-3 54 -22 71.5t-61 20.5l-95 8l-4 27q24 0 99 -4t108 -4q40 0 100 4t86 4l9 -27l-68 -6q-41 -4 -54.5 -23t-15.5 -67q-4 -83 -10.5 -270.5t-13 -336.5t-15.5 -229q-23 -218 -157 -309q-115 -80 -311 -80
q-286 0 -400 131q-85 99 -88 318q-1 98 -2 399t-2 393q-2 38 -10.5 54.5t-32.5 17.5l-98 8v27q30 0 138.5 -4t166.5 -4q63 0 167 4t128 4l6 -27l-94 -10q-22 -3 -31 -14t-12 -35q-27 -308 -13 -805q3 -151 22 -219.5t64 -106.5q30 -29 87 -46t116 -17zM590 1405l-15 18
q17 14 127 103t146 116q28 22 60.5 29t60.5 -4q22 -10 28.5 -31.5t-6.5 -54.5q-19 -44 -92 -70q-224 -79 -309 -106z" />
    <glyph glyph-name="Ucircumflex" unicode="&#xdb;" horiz-adv-x="1310" 
d="M774 35h2q66 0 115.5 15t93 52t69.5 108t33 175q26 396 0 803q-3 54 -22 71.5t-61 20.5l-95 8l-4 27q24 0 99 -4t108 -4q40 0 100 4t86 4l9 -27l-68 -6q-41 -4 -54.5 -23t-15.5 -67q-4 -83 -10.5 -270.5t-13 -336.5t-15.5 -229q-23 -218 -157 -309q-115 -80 -311 -80
q-286 0 -400 131q-85 99 -88 318q-1 98 -2 399t-2 393q-2 38 -10.5 54.5t-32.5 17.5l-98 8v27q30 0 138.5 -4t166.5 -4q63 0 167 4t128 4l6 -27l-94 -10q-22 -3 -31 -14t-12 -35q-27 -308 -13 -805q3 -151 22 -219.5t64 -106.5q30 -29 87 -46t116 -17zM705 1661l18 6
q96 -145 264 -250l-10 -18q-199 65 -264 104q-105 -54 -262 -104l-13 18q75 47 136 100.5t87.5 85t43.5 58.5z" />
    <glyph glyph-name="Udieresis" unicode="&#xdc;" horiz-adv-x="1310" 
d="M774 35h2q66 0 115.5 15t93 52t69.5 108t33 175q26 396 0 803q-3 54 -22 71.5t-61 20.5l-95 8l-4 27q24 0 99 -4t108 -4q40 0 100 4t86 4l9 -27l-68 -6q-41 -4 -54.5 -23t-15.5 -67q-4 -83 -10.5 -270.5t-13 -336.5t-15.5 -229q-23 -218 -157 -309q-115 -80 -311 -80
q-286 0 -400 131q-85 99 -88 318q-1 98 -2 399t-2 393q-2 38 -10.5 54.5t-32.5 17.5l-98 8v27q30 0 138.5 -4t166.5 -4q63 0 167 4t128 4l6 -27l-94 -10q-22 -3 -31 -14t-12 -35q-27 -308 -13 -805q3 -151 22 -219.5t64 -106.5q30 -29 87 -46t116 -17zM518 1632h2
q48 0 76.5 -30t28.5 -74q0 -52 -34 -83.5t-75 -31.5q-42 0 -72 26t-30 79q0 51 29 82.5t75 31.5zM897 1632h2q48 0 76.5 -30t28.5 -74q0 -52 -34.5 -83.5t-76.5 -31.5q-41 0 -70.5 26t-29.5 79q0 51 29 82.5t75 31.5z" />
    <glyph glyph-name="Yacute" unicode="&#xdd;" horiz-adv-x="1110" 
d="M895 18l8 -26q-46 0 -170.5 4t-177.5 4q-88 0 -192 -4t-138 -4l-8 26q27 2 66.5 8t52.5 7q38 5 55 20.5t21 52.5q4 52 10 443q0 42 -19 84q-33 85 -127 268.5t-163 290.5q-30 44 -46.5 60.5t-43.5 25.5t-78 10l-2 27q19 0 131 -4t168 -4q84 0 188 4t125 4l4 -27l-84 -8
q-26 -3 -30 -17t8 -40q13 -31 260 -549q165 352 229 526q12 46 5.5 59.5t-32.5 16.5q-19 2 -62.5 6.5t-49.5 5.5l4 27q15 0 84 -4t115 -4q42 0 101 4t93 4l6 -27q-86 -5 -121 -21.5t-69 -74.5q-27 -44 -66 -119t-63.5 -125t-75.5 -156t-61 -126q-21 -46 -21 -103
q-5 -343 10 -485q3 -40 41 -45q13 -1 30.5 -3t42.5 -6t42 -6zM506 1411l-14 19q18 14 127 103t145 116q63 49 121 24q22 -10 28.5 -31.5t-6.5 -54.5q-18 -42 -92 -69q-259 -91 -309 -107z" />
    <glyph glyph-name="Thorn" unicode="&#xde;" horiz-adv-x="1204" 
d="M193 539v333q0 274 -3 347q-1 40 -29 53t-106 16l6 27q21 -1 58.5 -2t101.5 -2.5t117 -3.5q97 -2 195.5 3t103.5 5l2 -27q-76 -3 -101 -16t-28 -49q-6 -71 -6 -176q86 8 209 8q225 0 329 -97q99 -99 99 -268q0 -175 -101 -284q-64 -67 -163.5 -98.5t-210.5 -31.5
q-98 0 -166 21q0 -166 4 -203q4 -45 30 -56.5t130 -19.5l-2 -26q-28 0 -143 4t-187 4q-62 0 -172 -4t-127 -4v26q93 6 118 19t29 63q13 186 13 439zM500 823v-475q48 -39 131 -39q41 0 75.5 19t51.5 53q53 91 53 301q0 190 -51 266q-47 72 -176 72q-77 0 -80 -29
q-4 -36 -4 -168z" />
    <glyph glyph-name="germandbls" unicode="&#xdf;" horiz-adv-x="1171" 
d="M35 860h117v27q0 247 165 393q127 120 330 123q191 1 282 -82t91 -215q0 -61 -19 -98q-227 -60 -227 -193q0 -52 47 -108q37 -41 137 -121q80 -63 120 -125t40 -158q0 -155 -102 -241.5t-258 -86.5q-86 0 -201 27q6 75 2 182l23 9q9 -49 28.5 -88t60.5 -68t97 -29
t97.5 41.5t41.5 108.5q0 76 -69 139q-86 78 -119 111q-65 57 -94 112.5t-29 130.5q0 179 211 289q18 40 18 141q0 134 -46 211.5t-140 77.5q-57 0 -97 -39.5t-63 -117t-33 -177.5t-10 -235v-363q0 -280 4 -356q2 -36 14.5 -47t61.5 -17l-2 -26q-254 8 -276 8
q-41 0 -112.5 -4t-90.5 -4v26q66 1 86 15.5t22 56.5q9 212 9 424v301l-117 12v33z" />
    <glyph glyph-name="agrave" unicode="&#xe0;" horiz-adv-x="1001" 
d="M590 575l-2 105q0 178 -121 178q-70 0 -104.5 -41.5t-32.5 -116.5q0 -45 6 -75t-17 -50q-35 -28 -98 -28q-50 0 -83.5 26.5t-33.5 79.5q0 31 15 63t48 63t79.5 55.5t116 39.5t151.5 15q222 0 315 -123q29 -45 29 -100v-531q0 -47 9.5 -61.5t31.5 -14.5q28 0 55 44.5
t39 107.5l31 -14q-40 -226 -258 -226q-48 0 -82.5 11.5t-54.5 33.5t-30 46.5t-15 56.5q-139 -148 -283 -148q-115 0 -179.5 70t-64.5 186q0 67 26.5 113.5t76.5 65.5q46 18 147 53t173 63.5t110 52.5zM354 270v-2q0 -32 6 -63t18 -59.5t34 -46t51 -17.5q27 0 47 9.5t33 29
t18.5 30.5t13.5 33q11 55 11 86l4 273q-15 -8 -49 -25.5t-61 -31.5t-44 -25q-38 -25 -60 -66.5t-22 -124.5zM553 981l-23 -10q-204 192 -237 223q-49 53 -49 100q0 39 19 55.5t40 16.5q32 0 54 -18t44 -54q17 -30 77.5 -157.5t74.5 -155.5z" />
    <glyph glyph-name="aacute" unicode="&#xe1;" horiz-adv-x="1001" 
d="M590 575l-2 105q0 178 -121 178q-70 0 -104.5 -41.5t-32.5 -116.5q0 -45 6 -75t-17 -50q-35 -28 -98 -28q-50 0 -83.5 26.5t-33.5 79.5q0 31 15 63t48 63t79.5 55.5t116 39.5t151.5 15q222 0 315 -123q29 -45 29 -100v-531q0 -47 9.5 -61.5t31.5 -14.5q28 0 55 44.5
t39 107.5l31 -14q-40 -226 -258 -226q-48 0 -82.5 11.5t-54.5 33.5t-30 46.5t-15 56.5q-139 -148 -283 -148q-115 0 -179.5 70t-64.5 186q0 67 26.5 113.5t76.5 65.5q46 18 147 53t173 63.5t110 52.5zM354 270v-2q0 -32 6 -63t18 -59.5t34 -46t51 -17.5q27 0 47 9.5t33 29
t18.5 30.5t13.5 33q11 55 11 86l4 273q-15 -8 -49 -25.5t-61 -31.5t-44 -25q-38 -25 -60 -66.5t-22 -124.5zM455 975l-23 12q23 38 94 162.5t84 146.5q48 76 109 76q26 0 39.5 -19t11.5 -50q0 -45 -72 -113q-36 -36 -243 -215z" />
    <glyph glyph-name="acircumflex" unicode="&#xe2;" horiz-adv-x="1001" 
d="M590 575l-2 105q0 178 -121 178q-70 0 -104.5 -41.5t-32.5 -116.5q0 -45 6 -75t-17 -50q-35 -28 -98 -28q-50 0 -83.5 26.5t-33.5 79.5q0 31 15 63t48 63t79.5 55.5t116 39.5t151.5 15q222 0 315 -123q29 -45 29 -100v-531q0 -47 9.5 -61.5t31.5 -14.5q28 0 55 44.5
t39 107.5l31 -14q-40 -226 -258 -226q-48 0 -82.5 11.5t-54.5 33.5t-30 46.5t-15 56.5q-139 -148 -283 -148q-115 0 -179.5 70t-64.5 186q0 67 26.5 113.5t76.5 65.5q46 18 147 53t173 63.5t110 52.5zM354 270v-2q0 -32 6 -63t18 -59.5t34 -46t51 -17.5q27 0 47 9.5t33 29
t18.5 30.5t13.5 33q11 55 11 86l4 273q-15 -8 -49 -25.5t-61 -31.5t-44 -25q-38 -25 -60 -66.5t-22 -124.5zM492 1370l22 8q24 -70 80.5 -171.5t148.5 -211.5l-14 -20q-90 57 -227 194q-139 -139 -226 -194l-16 20q93 110 152 212t80 163z" />
    <glyph glyph-name="atilde" unicode="&#xe3;" horiz-adv-x="1001" 
d="M590 575l-2 105q0 178 -121 178q-70 0 -104.5 -41.5t-32.5 -116.5q0 -45 6 -75t-17 -50q-35 -28 -98 -28q-50 0 -83.5 26.5t-33.5 79.5q0 31 15 63t48 63t79.5 55.5t116 39.5t151.5 15q222 0 315 -123q29 -45 29 -100v-531q0 -47 9.5 -61.5t31.5 -14.5q28 0 55 44.5
t39 107.5l31 -14q-40 -226 -258 -226q-48 0 -82.5 11.5t-54.5 33.5t-30 46.5t-15 56.5q-139 -148 -283 -148q-115 0 -179.5 70t-64.5 186q0 67 26.5 113.5t76.5 65.5q46 18 147 53t173 63.5t110 52.5zM354 270v-2q0 -32 6 -63t18 -59.5t34 -46t51 -17.5q27 0 47 9.5t33 29
t18.5 30.5t13.5 33q11 55 11 86l4 273q-15 -8 -49 -25.5t-61 -31.5t-44 -25q-38 -25 -60 -66.5t-22 -124.5zM285 1028l-29 8q5 38 14.5 71.5t26.5 68t46 55t67 20.5q23 0 49 -12.5t78 -46.5q82 -55 110 -55q57 0 68 120l28 -10q-5 -43 -13.5 -76t-24.5 -69t-44 -56t-67 -20
q-42 0 -135 66q-37 27 -58.5 38t-44.5 11q-55 0 -71 -113z" />
    <glyph glyph-name="adieresis" unicode="&#xe4;" horiz-adv-x="1001" 
d="M590 575l-2 105q0 178 -121 178q-70 0 -104.5 -41.5t-32.5 -116.5q0 -45 6 -75t-17 -50q-35 -28 -98 -28q-50 0 -83.5 26.5t-33.5 79.5q0 31 15 63t48 63t79.5 55.5t116 39.5t151.5 15q222 0 315 -123q29 -45 29 -100v-531q0 -47 9.5 -61.5t31.5 -14.5q28 0 55 44.5
t39 107.5l31 -14q-40 -226 -258 -226q-48 0 -82.5 11.5t-54.5 33.5t-30 46.5t-15 56.5q-139 -148 -283 -148q-115 0 -179.5 70t-64.5 186q0 67 26.5 113.5t76.5 65.5q46 18 147 53t173 63.5t110 52.5zM354 270v-2q0 -32 6 -63t18 -59.5t34 -46t51 -17.5q27 0 47 9.5t33 29
t18.5 30.5t13.5 33q11 55 11 86l4 273q-15 -8 -49 -25.5t-61 -31.5t-44 -25q-38 -25 -60 -66.5t-22 -124.5zM322 1294h2q54 0 84 -32t30 -86q0 -59 -38 -94t-83 -35q-46 0 -80 29.5t-34 88.5q0 58 33 93.5t86 35.5zM684 1294h2q54 0 84.5 -32t30.5 -84q0 -59 -37.5 -95
t-81.5 -36q-49 0 -83 29.5t-34 88.5t33.5 94t85.5 35z" />
    <glyph glyph-name="aring" unicode="&#xe5;" horiz-adv-x="1001" 
d="M590 575l-2 105q0 178 -121 178q-70 0 -104.5 -41.5t-32.5 -116.5q0 -45 6 -75t-17 -50q-35 -28 -98 -28q-50 0 -83.5 26.5t-33.5 79.5q0 31 15 63t48 63t79.5 55.5t116 39.5t151.5 15q222 0 315 -123q29 -45 29 -100v-531q0 -47 9.5 -61.5t31.5 -14.5q28 0 55 44.5
t39 107.5l31 -14q-40 -226 -258 -226q-48 0 -82.5 11.5t-54.5 33.5t-30 46.5t-15 56.5q-139 -148 -283 -148q-115 0 -179.5 70t-64.5 186q0 67 26.5 113.5t76.5 65.5q46 18 147 53t173 63.5t110 52.5zM354 270v-2q0 -32 6 -63t18 -59.5t34 -46t51 -17.5q27 0 47 9.5t33 29
t18.5 30.5t13.5 33q11 55 11 86l4 273q-15 -8 -49 -25.5t-61 -31.5t-44 -25q-38 -25 -60 -66.5t-22 -124.5zM510 1329h2q75 0 121.5 -41.5t46.5 -118.5q0 -79 -51.5 -124.5t-128.5 -45.5q-79 0 -127.5 41.5t-48.5 116.5q0 82 52.5 127t133.5 45zM504 1298h-2
q-39 0 -55.5 -41t-16.5 -90q0 -68 20 -101.5t52 -33.5q25 0 40.5 14t21.5 39.5t7.5 42.5t1.5 43q0 19 -2.5 37.5t-9 40.5t-21.5 35.5t-36 13.5z" />
    <glyph glyph-name="ae" unicode="&#xe6;" horiz-adv-x="1445" 
d="M354 256v-2q0 -29 6 -59t18 -58t33 -45.5t48 -17.5q87 0 116 98q8 27 11 94l4 273q-107 -46 -162 -88q-34 -25 -54 -67t-20 -128zM1399 236q-47 -140 -139 -202.5t-250 -62.5q-128 0 -225.5 45t-141.5 136q-2 -1 -30 -26t-35.5 -31t-36 -28.5t-43 -30.5t-43 -24
t-50 -22.5t-50 -12.5t-56.5 -6q-116 1 -179 68t-63 176q0 80 25.5 123.5t81.5 67.5q43 17 139 51t170 63t117 53v111q-1 87 -35 130.5t-92 43.5q-66 0 -101 -42t-32 -114q0 -12 6 -81q9 -31 -19 -50q-37 -26 -96 -26q-48 0 -82.5 27t-34.5 81q0 41 25.5 82t72.5 76t126 56.5
t176 21.5q202 0 262 -111q47 54 120.5 82.5t149.5 28.5q70 0 126.5 -14.5t94 -37t65.5 -55t43 -63t24 -67t11.5 -61.5t2.5 -50q0 -56 -33 -76q-30 -18 -156 -25q-132 -6 -344 -2q-6 -156 45 -270q29 -64 77.5 -94.5t131.5 -30.5q97 0 156 55.5t96 149.5zM1016 858h-2
q-60 0 -99.5 -106t-42.5 -275q31 -6 111 -6q81 0 127 12q33 13 33 66q0 309 -127 309z" />
    <glyph glyph-name="ccedilla" unicode="&#xe7;" horiz-adv-x="917" 
d="M551 -27q-7 -13 -25.5 -38t-27.5 -41q62 -7 108.5 -41.5t46.5 -102.5q0 -80 -55 -124t-137 -44q-63 0 -119 39l14 31q45 -25 97 -25q37 0 57 18t20 52q0 35 -35.5 56.5t-95.5 21.5l-8 20q27 43 121 176q-125 0 -215 28t-156 107q-86 107 -86 306q0 104 31 190.5t90 150.5
t152 100t211 36q142 0 236.5 -55.5t94.5 -165.5q0 -65 -45.5 -95t-103.5 -30q-38 0 -64 18q-25 17 -20 47q12 70 12 92q0 160 -114 160q-82 0 -127.5 -110t-45.5 -299q0 -152 37 -250q31 -83 82 -119.5t125 -36.5q92 0 150 53.5t96 163.5l29 -12q-68 -260 -330 -277z" />
    <glyph glyph-name="egrave" unicode="&#xe8;" horiz-adv-x="931" 
d="M885 250q-84 -279 -389 -279q-241 0 -351 135q-90 111 -90 310q0 100 28.5 185t83 149.5t142.5 101.5t199 37q96 0 169 -28t111.5 -67.5t62.5 -91.5t30 -89.5t6 -73.5q0 -26 -9 -48.5t-22 -29.5q-65 -22 -283 -25h-217q-6 -143 45 -258q29 -65 77.5 -97t125.5 -32
q97 0 157 54.5t99 160.5zM506 858h-2q-64 0 -102.5 -106.5t-43.5 -282.5q39 2 113 2q83 0 121 12q39 10 39 84q0 41 -4.5 82.5t-16 93t-38.5 83.5t-66 32zM545 981l-23 -10q-204 192 -237 223q-49 53 -49 100q0 39 19 55.5t40 16.5q32 0 54 -18t44 -54q17 -30 77.5 -157.5
t74.5 -155.5z" />
    <glyph glyph-name="eacute" unicode="&#xe9;" horiz-adv-x="931" 
d="M885 250q-84 -279 -389 -279q-241 0 -351 135q-90 111 -90 310q0 100 28.5 185t83 149.5t142.5 101.5t199 37q96 0 169 -28t111.5 -67.5t62.5 -91.5t30 -89.5t6 -73.5q0 -26 -9 -48.5t-22 -29.5q-65 -22 -283 -25h-217q-6 -143 45 -258q29 -65 77.5 -97t125.5 -32
q97 0 157 54.5t99 160.5zM506 858h-2q-64 0 -102.5 -106.5t-43.5 -282.5q39 2 113 2q83 0 121 12q39 10 39 84q0 41 -4.5 82.5t-16 93t-38.5 83.5t-66 32zM449 975l-23 12q23 38 94 162.5t84 146.5q48 76 109 76q26 0 39.5 -19t11.5 -50q0 -45 -72 -113q-36 -36 -243 -215z
" />
    <glyph glyph-name="ecircumflex" unicode="&#xea;" horiz-adv-x="931" 
d="M885 250q-84 -279 -389 -279q-241 0 -351 135q-90 111 -90 310q0 100 28.5 185t83 149.5t142.5 101.5t199 37q96 0 169 -28t111.5 -67.5t62.5 -91.5t30 -89.5t6 -73.5q0 -26 -9 -48.5t-22 -29.5q-65 -22 -283 -25h-217q-6 -143 45 -258q29 -65 77.5 -97t125.5 -32
q97 0 157 54.5t99 160.5zM506 858h-2q-64 0 -102.5 -106.5t-43.5 -282.5q39 2 113 2q83 0 121 12q39 10 39 84q0 41 -4.5 82.5t-16 93t-38.5 83.5t-66 32zM485 1370l23 8q24 -70 80.5 -171.5t148.5 -211.5l-14 -20q-90 57 -227 194q-139 -139 -226 -194l-16 20
q93 109 151 211t80 164z" />
    <glyph glyph-name="edieresis" unicode="&#xeb;" horiz-adv-x="931" 
d="M885 250q-84 -279 -389 -279q-241 0 -351 135q-90 111 -90 310q0 100 28.5 185t83 149.5t142.5 101.5t199 37q96 0 169 -28t111.5 -67.5t62.5 -91.5t30 -89.5t6 -73.5q0 -26 -9 -48.5t-22 -29.5q-65 -22 -283 -25h-217q-6 -143 45 -258q29 -65 77.5 -97t125.5 -32
q97 0 157 54.5t99 160.5zM506 858h-2q-64 0 -102.5 -106.5t-43.5 -282.5q39 2 113 2q83 0 121 12q39 10 39 84q0 41 -4.5 82.5t-16 93t-38.5 83.5t-66 32zM309 1294h2q54 0 84.5 -32t30.5 -86q0 -59 -38 -94t-83 -35q-46 0 -80.5 30t-34.5 88t33 93.5t86 35.5zM672 1294h2
q54 0 84 -32t30 -84q0 -59 -37 -95t-81 -36q-49 0 -83 29.5t-34 88.5t33.5 94t85.5 35z" />
    <glyph glyph-name="igrave" unicode="&#xec;" horiz-adv-x="573" 
d="M539 18l-2 -26q-21 0 -106.5 4t-156.5 4q-77 0 -149 -4t-86 -4v26q63 4 82 16.5t22 45.5q7 65 7 250v223q0 173 -7 227q-2 27 -20.5 34.5t-79.5 4.5l2 29q226 7 395 39q-6 -73 -6 -326v-239q0 -170 6 -240q3 -36 20 -47t79 -17zM338 981l-23 -10q-204 192 -237 223
q-49 53 -49 100q0 39 19 55.5t40 16.5q32 0 54 -18t44 -54q17 -30 77.5 -157.5t74.5 -155.5z" />
    <glyph glyph-name="iacute" unicode="&#xed;" horiz-adv-x="573" 
d="M539 18l-2 -26q-21 0 -106.5 4t-156.5 4q-77 0 -149 -4t-86 -4v26q63 4 82 16.5t22 45.5q7 65 7 250v223q0 173 -7 227q-2 27 -20.5 34.5t-79.5 4.5l2 29q226 7 395 39q-6 -73 -6 -326v-239q0 -170 6 -240q3 -36 20 -47t79 -17zM264 975l-22 12q23 38 94 162.5t84 146.5
q48 76 108 76q26 0 40 -19t12 -50q0 -45 -72 -113q-29 -29 -244 -215z" />
    <glyph glyph-name="icircumflex" unicode="&#xee;" horiz-adv-x="573" 
d="M539 18l-2 -26q-21 0 -106.5 4t-156.5 4q-77 0 -149 -4t-86 -4v26q63 4 82 16.5t22 45.5q7 65 7 250v223q0 173 -7 227q-2 27 -20.5 34.5t-79.5 4.5l2 29q226 7 395 39q-6 -73 -6 -326v-239q0 -170 6 -240q3 -36 20 -47t79 -17zM276 1370l23 8q24 -70 80.5 -171.5
t148.5 -211.5l-14 -20q-90 57 -227 194q-139 -139 -226 -194l-16 20q93 109 151 211t80 164z" />
    <glyph glyph-name="idieresis" unicode="&#xef;" horiz-adv-x="573" 
d="M539 18l-2 -26q-21 0 -106.5 4t-156.5 4q-77 0 -149 -4t-86 -4v26q63 4 82 16.5t22 45.5q7 65 7 250v223q0 173 -7 227q-2 27 -20.5 34.5t-79.5 4.5l2 29q226 7 395 39q-6 -73 -6 -326v-239q0 -170 6 -240q3 -36 20 -47t79 -17zM106 1294h3q54 0 84 -32t30 -86
q0 -59 -38 -94t-83 -35q-46 0 -80 29.5t-34 88.5q0 58 32.5 93.5t85.5 35.5zM469 1294h2q54 0 84.5 -32t30.5 -84q0 -59 -37.5 -95t-81.5 -36q-49 0 -83 29.5t-34 88.5t33.5 94t85.5 35z" />
    <glyph glyph-name="eth" unicode="&#xf0;" horiz-adv-x="1062" 
d="M188 1372l9 31q126 3 250.5 -36t228.5 -114q142 81 225 127l21 -49q-23 -11 -93.5 -47t-115.5 -59q140 -116 212 -293t72 -373q0 -270 -127 -429t-368 -159q-200 0 -323.5 118.5t-123.5 324.5q0 210 129.5 342.5t337.5 132.5q96 0 164 -45q-13 182 -108 309
q-155 -84 -271 -154l-24 50q116 54 268 139q-69 84 -167.5 134t-195.5 50zM526 858h-2q-64 0 -100 -61q-57 -93 -57 -365q0 -195 36 -311q43 -119 136 -119q87 0 127 100q19 48 30.5 174.5t10.5 270.5q0 118 -19 215q-55 96 -162 96z" />
    <glyph glyph-name="ntilde" unicode="&#xf1;" horiz-adv-x="1134" 
d="M41 -8v26q67 3 84 13t18 49q9 99 9 235v224q0 189 -7 249q-2 22 -18 29t-76 10v25q175 0 373 29q11 -87 14 -138q37 33 60.5 51t65.5 44t87.5 38.5t96.5 12.5q85 0 140.5 -31t80.5 -76q30 -52 30 -112v-592q0 -32 17.5 -42.5t87.5 -17.5v-26q-28 1 -112.5 4.5t-131.5 3.5
q-71 0 -153.5 -4t-85.5 -4v26q52 3 68 14.5t18 43.5q8 82 8 305q1 221 -2 279t-15 81q-28 54 -92 54q-93 0 -147 -86q-23 -39 -23 -91v-313q0 -174 4 -233q3 -29 21 -39.5t76 -14.5l-2 -26q-19 0 -109 4t-141 4q-63 0 -145 -4t-99 -4zM350 1028l-28 8q5 38 14.5 71.5
t26.5 68t45.5 55t66.5 20.5q23 0 49 -12.5t78 -46.5q82 -55 111 -55q56 0 67 120l29 -10q-5 -43 -13.5 -76.5t-24.5 -69t-44.5 -55.5t-67.5 -20q-42 0 -135 66q-38 27 -58.5 38t-43.5 11q-56 0 -72 -113z" />
    <glyph glyph-name="ograve" unicode="&#xf2;" horiz-adv-x="1073" 
d="M545 889h2q219 0 345 -119t126 -332q0 -222 -133 -344.5t-353 -122.5q-232 0 -354.5 122t-122.5 329q0 216 129.5 341.5t360.5 125.5zM535 858h-3q-72 0 -118 -86q-47 -92 -47 -317q0 -229 51 -357q44 -96 135 -96q84 0 121 92q39 112 39 322q0 109 -14 203t-35 143
q-41 96 -129 96zM588 981l-23 -10q-204 192 -237 223q-49 53 -49 100q0 39 19 55.5t40 16.5q32 0 54 -18t44 -54q17 -30 77.5 -157.5t74.5 -155.5z" />
    <glyph glyph-name="oacute" unicode="&#xf3;" horiz-adv-x="1073" 
d="M545 889h2q219 0 345 -119t126 -332q0 -222 -133 -344.5t-353 -122.5q-232 0 -354.5 122t-122.5 329q0 216 129.5 341.5t360.5 125.5zM535 858h-3q-72 0 -118 -86q-47 -92 -47 -317q0 -229 51 -357q44 -96 135 -96q84 0 121 92q39 112 39 322q0 109 -14 203t-35 143
q-41 96 -129 96zM496 975l-23 12q23 38 94 162.5t84 146.5q48 76 109 76q26 0 39.5 -19t11.5 -50q0 -45 -72 -113q-36 -36 -243 -215z" />
    <glyph glyph-name="ocircumflex" unicode="&#xf4;" horiz-adv-x="1073" 
d="M545 889h2q219 0 345 -119t126 -332q0 -222 -133 -344.5t-353 -122.5q-232 0 -354.5 122t-122.5 329q0 216 129.5 341.5t360.5 125.5zM535 858h-3q-72 0 -118 -86q-47 -92 -47 -317q0 -229 51 -357q44 -96 135 -96q84 0 121 92q39 112 39 322q0 109 -14 203t-35 143
q-41 96 -129 96zM543 1370l22 8q24 -69 81 -171t149 -212l-15 -20q-90 57 -227 194q-141 -141 -225 -194l-17 20q93 110 152 212t80 163z" />
    <glyph glyph-name="otilde" unicode="&#xf5;" horiz-adv-x="1073" 
d="M545 889h2q219 0 345 -119t126 -332q0 -222 -133 -344.5t-353 -122.5q-232 0 -354.5 122t-122.5 329q0 216 129.5 341.5t360.5 125.5zM535 858h-3q-72 0 -118 -86q-47 -92 -47 -317q0 -229 51 -357q44 -96 135 -96q84 0 121 92q39 112 39 322q0 109 -14 203t-35 143
q-41 96 -129 96zM315 1028l-28 8q5 38 14.5 71.5t26.5 68t45.5 55t66.5 20.5q23 0 49 -12.5t78 -46.5q82 -55 111 -55q56 0 67 120l29 -10q-5 -43 -13.5 -76t-24.5 -69t-44 -56t-67 -20q-43 0 -136 66q-38 27 -58.5 38t-43.5 11q-56 0 -72 -113z" />
    <glyph glyph-name="odieresis" unicode="&#xf6;" horiz-adv-x="1073" 
d="M545 889h2q219 0 345 -119t126 -332q0 -222 -133 -344.5t-353 -122.5q-232 0 -354.5 122t-122.5 329q0 216 129.5 341.5t360.5 125.5zM535 858h-3q-72 0 -118 -86q-47 -92 -47 -317q0 -229 51 -357q44 -96 135 -96q84 0 121 92q39 112 39 322q0 109 -14 203t-35 143
q-41 96 -129 96zM350 1294h2q54 0 84.5 -32t30.5 -86q0 -59 -38 -94t-83 -35q-46 0 -80.5 30t-34.5 88t33 93.5t86 35.5zM713 1294h2q54 0 84 -32t30 -84q0 -59 -37 -95t-81 -36q-49 0 -83 29.5t-34 88.5t33.5 94t85.5 35z" />
    <glyph glyph-name="divide" unicode="&#xf7;" horiz-adv-x="907" 
d="M455 264h2q30 0 51.5 -22.5t21.5 -53.5q0 -30 -21.5 -51.5t-53.5 -21.5q-30 0 -53 22t-23 51q0 30 23 53t53 23zM455 623h-2q-28 0 -51 22.5t-23 52.5q0 29 23.5 51.5t52.5 22.5q32 0 53.5 -22t21.5 -52q0 -32 -21.5 -53.5t-53.5 -21.5zM86 487h735v-86h-735v86z" />
    <glyph glyph-name="oslash" unicode="&#xf8;" horiz-adv-x="1075" 
d="M866 924l56 -17l-78 -98q84 -57 130 -153.5t46 -215.5q0 -210 -138.5 -339.5t-357.5 -129.5q-155 0 -258 58l-65 -90l-56 18l80 98q-83 55 -126.5 151.5t-43.5 205.5q0 213 135.5 345t360.5 132q151 0 250 -55zM367 426v-2q0 -110 18 -180q188 277 301 456
q-44 158 -141 158q-73 3 -123 -86q-55 -101 -55 -346zM715 442v2q0 81 -17 193q-272 -416 -303 -463q9 -27 13.5 -41t18.5 -43t27.5 -45t36.5 -29.5t50 -13.5q89 0 127 86q47 112 47 354z" />
    <glyph glyph-name="ugrave" unicode="&#xf9;" horiz-adv-x="1118" 
d="M588 829l-2 29q153 0 254 8q42 2 91.5 6.5t59.5 4.5q-8 -94 -8 -275v-258q0 -182 8 -256q3 -26 11 -36.5t29.5 -14t72.5 -2.5l-2 -29q-28 -1 -59.5 -3t-77.5 -5.5t-80 -5.5q-101 -9 -185 -21q-4 110 -4 170q-157 -170 -338 -170q-89 0 -141 32.5t-67 72.5q-19 51 -19 112
q1 82 3 240t3 221q1 55 -4 144q-3 27 -19.5 32.5t-80.5 5.5v29q93 0 233 8q112 6 172 15q-22 -90 -22 -412q0 -277 10 -338q9 -72 74 -72q124 0 182 148q16 45 16 110v285q0 140 -6 187q-2 16 -13.5 24t-30 10.5t-60.5 3.5zM610 981l-22 -10q-151 142 -238 223
q-49 53 -49 100q0 39 19 55.5t40 16.5q33 0 55.5 -18.5t43.5 -53.5q17 -30 76.5 -157.5t74.5 -155.5z" />
    <glyph glyph-name="uacute" unicode="&#xfa;" horiz-adv-x="1118" 
d="M588 829l-2 29q153 0 254 8q42 2 91.5 6.5t59.5 4.5q-8 -94 -8 -275v-258q0 -182 8 -256q3 -26 11 -36.5t29.5 -14t72.5 -2.5l-2 -29q-28 -1 -59.5 -3t-77.5 -5.5t-80 -5.5q-101 -9 -185 -21q-4 110 -4 170q-157 -170 -338 -170q-89 0 -141 32.5t-67 72.5q-19 51 -19 112
q1 82 3 240t3 221q1 55 -4 144q-3 27 -19.5 32.5t-80.5 5.5v29q93 0 233 8q112 6 172 15q-22 -90 -22 -412q0 -277 10 -338q9 -72 74 -72q124 0 182 148q16 45 16 110v285q0 140 -6 187q-2 16 -13.5 24t-30 10.5t-60.5 3.5zM510 975l-23 12q24 38 95 162.5t84 146.5
q48 76 108 76q26 0 39.5 -19t11.5 -50q0 -46 -71 -113q-29 -29 -244 -215z" />
    <glyph glyph-name="ucircumflex" unicode="&#xfb;" horiz-adv-x="1118" 
d="M588 829l-2 29q153 0 254 8q42 2 91.5 6.5t59.5 4.5q-8 -94 -8 -275v-258q0 -182 8 -256q3 -26 11 -36.5t29.5 -14t72.5 -2.5l-2 -29q-28 -1 -59.5 -3t-77.5 -5.5t-80 -5.5q-101 -9 -185 -21q-4 110 -4 170q-157 -170 -338 -170q-89 0 -141 32.5t-67 72.5q-19 51 -19 112
q1 82 3 240t3 221q1 55 -4 144q-3 27 -19.5 32.5t-80.5 5.5v29q93 0 233 8q112 6 172 15q-22 -90 -22 -412q0 -277 10 -338q9 -72 74 -72q124 0 182 148q16 45 16 110v285q0 140 -6 187q-2 16 -13.5 24t-30 10.5t-60.5 3.5zM547 1370l22 8q24 -69 81 -171t149 -212l-15 -20
q-90 57 -227 194q-141 -141 -225 -194l-17 20q93 110 152 212t80 163z" />
    <glyph glyph-name="udieresis" unicode="&#xfc;" horiz-adv-x="1118" 
d="M588 829l-2 29q153 0 254 8q42 2 91.5 6.5t59.5 4.5q-8 -94 -8 -275v-258q0 -182 8 -256q3 -26 11 -36.5t29.5 -14t72.5 -2.5l-2 -29q-28 -1 -59.5 -3t-77.5 -5.5t-80 -5.5q-101 -9 -185 -21q-4 110 -4 170q-157 -170 -338 -170q-89 0 -141 32.5t-67 72.5q-19 51 -19 112
q1 82 3 240t3 221q1 55 -4 144q-3 27 -19.5 32.5t-80.5 5.5v29q93 0 233 8q112 6 172 15q-22 -90 -22 -412q0 -277 10 -338q9 -72 74 -72q124 0 182 148q16 45 16 110v285q0 140 -6 187q-2 16 -13.5 24t-30 10.5t-60.5 3.5zM379 1294h2q54 0 84.5 -32t30.5 -86
q0 -59 -38 -94t-83 -35q-46 0 -80.5 30t-34.5 88t33 93.5t86 35.5zM741 1294h2q54 0 84.5 -32t30.5 -84q0 -59 -37.5 -95t-81.5 -36q-49 0 -82.5 29.5t-33.5 88.5t33 94t85 35z" />
    <glyph glyph-name="yacute" unicode="&#xfd;" horiz-adv-x="894" 
d="M-29 840v26q114 -6 240 -6q117 0 264 6l6 -26l-55 -9q-27 -3 -32 -11.5t3 -33.5q20 -59 64.5 -168t89 -215.5t53.5 -128.5q83 230 150 471q13 45 -0.5 61.5t-61.5 24.5l-71 9l2 26q18 0 74.5 -3t86.5 -3q27 0 88.5 3t85.5 3l-2 -26q-68 -3 -92 -21.5t-59 -99.5
q-51 -127 -160 -426.5t-174 -489.5q-56 -165 -109 -235t-139 -70q-60 0 -96.5 36.5t-36.5 96.5q0 57 34 89t79 32q51 0 69 -45q13 -33 24.5 -45t33.5 -12q14 0 28.5 14t29 43.5t25.5 54t25 66t19 58t16 51.5q-17 10 -38 37.5t-32 58.5q-249 606 -317 733q-19 37 -32.5 50.5
t-37.5 17.5zM477 975l-22 12q23 38 94 162.5t84 146.5q48 76 108 76q26 0 40 -19t12 -50q0 -45 -72 -113q-29 -29 -244 -215z" />
    <glyph glyph-name="thorn" unicode="&#xfe;" horiz-adv-x="1103" 
d="M-31 -481l8 28q79 9 101.5 19.5t25.5 42.5q15 185 15 475v920q0 171 -6 288q-2 30 -21 38.5t-90 8.5l10 27q54 0 202 11t196 26q-4 -35 -4 -651q35 28 61.5 46t70 42t92.5 36.5t101 12.5q156 0 236 -113q37 -51 59.5 -131t22.5 -168q0 -254 -122.5 -380t-330.5 -126
q-126 0 -195 54q0 -316 5 -404q3 -40 26 -53t111 -17l-11 -24q-9 0 -48.5 1.5t-99.5 2.5t-126 0q-168 -2 -289 -12zM559 4h2q39 0 69.5 22.5t49.5 62.5t32 85t18.5 99.5t8 96t2.5 83.5q0 87 -14 165.5t-37 116.5q-45 68 -117 68q-47 0 -86 -28t-63 -81q-18 -38 -18 -86
q-5 -152 -5 -442q0 -51 23 -88q55 -74 135 -74z" />
    <glyph glyph-name="ydieresis" unicode="&#xff;" horiz-adv-x="894" 
d="M-29 840v26q114 -6 240 -6q117 0 264 6l6 -26l-55 -9q-27 -3 -32 -11.5t3 -33.5q20 -59 64.5 -168t89 -215.5t53.5 -128.5q83 230 150 471q13 45 -0.5 61.5t-61.5 24.5l-71 9l2 26q18 0 74.5 -3t86.5 -3q27 0 88.5 3t85.5 3l-2 -26q-68 -3 -92 -21.5t-59 -99.5
q-51 -127 -160 -426.5t-174 -489.5q-56 -165 -109 -235t-139 -70q-60 0 -96.5 36.5t-36.5 96.5q0 57 34 89t79 32q51 0 69 -45q13 -33 24.5 -45t33.5 -12q14 0 28.5 14t29 43.5t25.5 54t25 66t19 58t16 51.5q-17 10 -38 37.5t-32 58.5q-249 606 -317 733q-19 37 -32.5 50.5
t-37.5 17.5zM319 1294h3q54 0 84 -32t30 -86q0 -59 -38 -94t-83 -35q-46 0 -80 29.5t-34 88.5q0 58 32.5 93.5t85.5 35.5zM682 1294h2q54 0 84.5 -32t30.5 -84q0 -59 -37.5 -95t-81.5 -36q-49 0 -83 29.5t-34 88.5t33.5 94t85.5 35z" />
    <glyph glyph-name="dotlessi" unicode="&#x131;" horiz-adv-x="573" 
d="M539 18l-2 -26q-21 0 -106.5 4t-156.5 4q-77 0 -149 -4t-86 -4v26q63 4 82 16.5t22 45.5q7 65 7 250v223q0 173 -7 227q-2 27 -20.5 34.5t-79.5 4.5l2 29q226 7 395 39q-6 -73 -6 -326v-239q0 -170 6 -240q3 -36 20 -47t79 -17z" />
    <glyph glyph-name="Lslash" unicode="&#x141;" horiz-adv-x="1107" 
d="M88 1288l2 27q19 0 126.5 -4t164.5 -4q60 0 155 4t136 4l6 -27l-94 -8q-31 -3 -43 -14t-13 -39q-8 -288 -8 -342v-137q172 114 193 129l37 -33q-8 -5 -95.5 -59.5t-134.5 -86.5v-180q0 -391 6 -446q2 -21 17.5 -29t58.5 -8q135 0 201.5 16t111.5 62q92 102 140 278l24 -6
q-8 -52 -23.5 -205.5t-19.5 -189.5q-22 2 -252 10q-121 2 -419 2q-51 0 -175.5 -4t-138.5 -4v24l88 9q34 3 47.5 14t16.5 37q10 87 10 319v144q-116 -72 -127 -80l-39 31q16 10 76 44t90 54v305q0 252 -4 342q-1 24 -12.5 33t-38.5 12z" />
    <glyph glyph-name="lslash" unicode="&#x142;" horiz-adv-x="579" 
d="M53 1354l2 26q113 2 400 29q-11 -168 -11 -436v-117q17 9 57 33t50 29l33 -33q-23 -15 -140 -78v-373q0 -293 2 -346q2 -43 20 -55t87 -15v-26q-25 0 -116.5 4t-147.5 4q-63 0 -149 -4t-101 -4v26q65 1 84 14t24 56q13 166 13 406v178q-11 -7 -47.5 -28.5t-53.5 -31.5
l-26 37q19 11 64 36t63 36v272q0 264 -2 303q-3 38 -20.5 48t-84.5 10z" />
    <glyph glyph-name="OE" unicode="&#x152;" horiz-adv-x="2039" 
d="M428 637v-2q0 -319 98 -473q84 -137 242 -137q87 0 145 31t103 106q31 49 45 149t14 344q0 233 -5 306.5t-19 111.5q-15 43 -38.5 81t-58.5 73.5t-85.5 56.5t-110.5 21q-74 0 -120.5 -24.5t-86.5 -84.5q-57 -87 -90 -231t-33 -328zM1247 1307h352q85 0 183 4q83 7 106 16
q-8 -59 -8 -377h-27q-18 127 -59 211q-35 69 -99.5 90t-213.5 21h-58q-21 0 -29 -7.5t-10 -25.5q-14 -115 -14 -340v-194q38 -3 113 -3q111 0 162.5 44.5t66.5 150.5h25q-11 -105 -13 -242t5 -221l-25 2q-11 61 -23 97.5t-36 70t-65 48t-103 14.5q-82 0 -107 -4v-160
q0 -307 6 -418q3 -30 25.5 -39.5t107.5 -9.5q124 0 190 12.5t118 54.5q89 73 151 283l25 -8q-6 -83 -56 -389q-28 4 -168 8q-148 4 -286 4h-197q-211 0 -233 -4q0 61 2 137q-62 -78 -161.5 -122t-217.5 -44q-99 0 -192 21.5t-152 56.5q-132 84 -197 234.5t-65 349.5
q0 198 71.5 361t202.5 251q66 44 164 71t197 27q240 0 362 -145q0 88 -2 117q102 -4 182 -4z" />
    <glyph glyph-name="oe" unicode="&#x153;" horiz-adv-x="1572" 
d="M553 858h-2q-79 3 -127 -84q-55 -101 -55 -348q0 -212 43 -328q33 -96 120 -96q98 0 138 90q43 111 43 367q0 215 -35 311q-30 88 -125 88zM1528 240q-78 -269 -381 -269q-224 0 -309 142q-55 -71 -142 -106.5t-186 -35.5q-218 0 -336.5 119.5t-118.5 321.5
q0 207 132.5 342t347.5 135q225 0 329 -148q116 148 310 148q92 0 161.5 -27.5t105.5 -66t57.5 -89.5t27 -87.5t4.5 -71.5q0 -64 -33 -82q-30 -18 -166 -25q-88 -4 -332 -4q-5 -145 45 -270q51 -123 205 -123q99 0 158 55t96 152zM1145 858h-2q-64 0 -100.5 -101.5
t-41.5 -279.5q33 -6 111 -6q85 0 125 14q35 17 35 84q0 289 -127 289z" />
    <glyph glyph-name="Scaron" unicode="&#x160;" horiz-adv-x="997" 
d="M88 414l25 10q-3 -106 34 -200.5t120 -158t196 -63.5q104 0 163.5 59.5t59.5 167.5q0 118 -96 179q-16 12 -67.5 44t-128 78.5t-113.5 69.5q-195 116 -195 328q0 194 116.5 303.5t315.5 109.5q83 0 160.5 -23.5t116.5 -62.5l45 99l18 -6q-34 -208 -29 -408l-24 -8
q-9 165 -89.5 271t-197.5 106q-98 0 -153.5 -62t-55.5 -164q0 -127 107 -190q45 -31 96 -63t83 -50.5t82.5 -46.5t65.5 -37q98 -52 143.5 -124t45.5 -185q0 -137 -68 -234t-181.5 -142.5t-262.5 -45.5q-82 0 -182 21.5t-162 48.5q12 131 12 379zM512 1419l-16 -6
q-86 138 -267 250l11 18q192 -63 264 -104q119 58 262 104l12 -18q-163 -102 -266 -244z" />
    <glyph glyph-name="scaron" unicode="&#x161;" horiz-adv-x="790" 
d="M666 584l-25 -11q-2 105 -67.5 194t-170.5 89q-71 0 -110 -36.5t-39 -92.5q0 -64 61 -100q35 -19 149.5 -64.5t145.5 -62.5q129 -66 129 -207q0 -84 -30.5 -147.5t-84 -100.5t-119 -54.5t-143.5 -17.5q-141 0 -284 54q4 122 -4 311l22 6q17 -107 56 -180
q35 -72 99.5 -114t137.5 -42q158 0 158 133q0 67 -68 99q-88 43 -221 100q-176 74 -176 246q0 142 96.5 222.5t239.5 80.5q61 0 125 -18t90 -44l31 80l18 -12q-21 -152 -16 -311zM414 983l-23 -8q-71 194 -229 385l14 18q100 -63 227 -194q134 134 226 194l16 -18
q-92 -110 -150 -212t-81 -165z" />
    <glyph glyph-name="Ydieresis" unicode="&#x178;" horiz-adv-x="1110" 
d="M895 18l8 -26q-46 0 -170.5 4t-177.5 4q-88 0 -192 -4t-138 -4l-8 26q27 2 66.5 8t52.5 7q38 5 55 20.5t21 52.5q4 52 10 443q0 42 -19 84q-33 85 -127 268.5t-163 290.5q-30 44 -46.5 60.5t-43.5 25.5t-78 10l-2 27q19 0 131 -4t168 -4q84 0 188 4t125 4l4 -27l-84 -8
q-26 -3 -30 -17t8 -40q13 -31 260 -549q165 352 229 526q12 46 5.5 59.5t-32.5 16.5q-19 2 -62.5 6.5t-49.5 5.5l4 27q15 0 84 -4t115 -4q42 0 101 4t93 4l6 -27q-86 -5 -121 -21.5t-69 -74.5q-27 -44 -66 -119t-63.5 -125t-75.5 -156t-61 -126q-21 -46 -21 -103
q-5 -343 10 -485q3 -40 41 -45q13 -1 30.5 -3t42.5 -6t42 -6zM430 1638h2q48 0 76.5 -30t28.5 -74q0 -52 -34 -83.5t-75 -31.5q-42 0 -72 26t-30 79q0 51 29 82.5t75 31.5zM809 1638h2q48 0 76 -30t28 -74q0 -52 -34 -83.5t-76 -31.5q-41 0 -70.5 26t-29.5 79q0 51 29 82.5
t75 31.5z" />
    <glyph glyph-name="Zcaron" unicode="&#x17d;" horiz-adv-x="1228" 
d="M530 1307h150q180 0 248 2q61 0 209 8q-17 -70 -62 -150q-220 -384 -291 -510q-75 -139 -184 -334.5t-156 -287.5q247 0 359 9t153 27t80 64q69 82 125 291l21 -10q-3 -23 -15 -111t-21 -171t-11 -148q-98 10 -230 10q-90 4 -264 4h-377q-133 0 -203 -6l-8 24
q50 87 208 355t297.5 507.5t221.5 391.5h-178q-137 0 -215 -14.5t-110.5 -39t-57.5 -71.5q-39 -70 -82 -246l-24 12q12 80 18.5 208.5t3.5 203.5q69 -13 144 -16q51 -2 251 -2zM635 1415l-17 -6q-87 139 -266 250l10 18q194 -64 265 -104q119 58 262 104l12 -18
q-163 -102 -266 -244z" />
    <glyph glyph-name="zcaron" unicode="&#x17e;" horiz-adv-x="899" 
d="M109 557l-27 2q18 140 22 328q40 -18 91 -23q74 -4 131 -4h192q106 0 318 4q-10 -44 -43 -102q-46 -91 -192 -364t-198 -367q157 0 244 16q77 11 119 68.5t78 208.5l22 -19q-37 -227 -35 -315q-225 10 -546 10q-33 0 -83 -1t-65 -1q-74 -4 -78 -4l-12 20
q92 136 255.5 433.5t195.5 379.5q-107 3 -209 -10q-56 -8 -81 -24t-46 -62q-25 -55 -53 -174zM485 983l-22 -8q-70 192 -230 385l15 18q100 -63 227 -194q136 136 225 194l17 -18q-93 -110 -151.5 -212.5t-80.5 -164.5z" />
    <glyph glyph-name="longs" unicode="&#x17f;" horiz-adv-x="563" 
d="M33 825l4 31h117v98q0 220 114 334q112 115 264 115q117 0 170.5 -45t53.5 -111q0 -44 -33.5 -76t-95.5 -32q-60 0 -60 61q1 54 -2.5 87.5t-19 57t-43.5 23.5q-60 0 -66 -111q-2 -44 -2 -113t1 -162.5t1 -139.5v-365q0 -301 4 -385q3 -34 11.5 -48t29.5 -17q52 -9 74 -9
l-6 -26q-19 0 -104 4t-146 4q-4 0 -268 -8l4 26q67 3 86.5 13t21.5 39q9 133 9 292v451z" />
    <glyph glyph-name="florin" unicode="&#x192;" horiz-adv-x="1024" 
d="M74 666l22 55q117 -6 170 -6q27 191 67.5 291.5t98.5 162.5q78 83 155 114.5t169 31.5q86 0 142 -41.5t56 -106.5q0 -59 -34 -86.5t-86 -27.5q-24 0 -47 13.5t-19 35.5q6 35 6 74q0 56 -15 80t-46 24q-28 0 -46 -26t-32 -85q-24 -111 -66 -454q139 0 250 6l-18 -57
q-159 6 -238 6q-43 -354 -82 -551q-29 -173 -90.5 -273t-163.5 -163q-111 -70 -252 -70q-74 0 -123 35t-49 86q0 48 32.5 81t84.5 33q54 0 66 -57q31 -127 90 -127q35 0 50.5 30.5t29.5 117.5q20 147 57.5 460.5t48.5 397.5q-16 0 -188 -4z" />
    <glyph glyph-name="circumflex" unicode="&#x2c6;" horiz-adv-x="933" 
d="M457 1370l22 8q24 -69 81 -171t149 -212l-15 -20q-90 57 -227 194q-141 -141 -225 -194l-17 20q93 110 152 212t80 163z" />
    <glyph glyph-name="caron" unicode="&#x2c7;" horiz-adv-x="933" 
d="M477 983l-22 -8q-70 192 -230 385l15 18q100 -63 227 -194q136 136 225 194l17 -18q-93 -110 -151.5 -212.5t-80.5 -164.5z" />
    <glyph glyph-name="uni02C9" unicode="&#x2c9;" horiz-adv-x="933" 
d="M242 1071l20 117h432l-16 -117h-436z" />
    <glyph glyph-name="breve" unicode="&#x2d8;" horiz-adv-x="933" 
d="M266 1296h27q7 -57 22.5 -84t40.5 -43q36 -28 111 -28q74 0 113 28q50 40 61 127h27q0 -49 -4 -87t-16.5 -78.5t-33.5 -66.5t-58.5 -43t-88.5 -17q-53 0 -91.5 16.5t-59.5 41.5t-33 65.5t-15 78.5t-2 90z" />
    <glyph glyph-name="dotaccent" unicode="&#x2d9;" horiz-adv-x="700" 
d="M350 1307h2q56 0 89.5 -37t33.5 -92q0 -63 -40 -99.5t-89 -36.5t-85 33t-36 96q0 59 35.5 97.5t89.5 38.5z" />
    <glyph glyph-name="ring" unicode="&#x2da;" horiz-adv-x="782" 
d="M399 1329h2q75 0 121.5 -41.5t46.5 -118.5q0 -79 -51.5 -124.5t-128.5 -45.5q-79 0 -127.5 41.5t-48.5 116.5q0 82 52.5 127t133.5 45zM393 1298h-2q-39 0 -55.5 -41t-16.5 -90q0 -68 20 -101.5t52 -33.5q72 0 72 139q0 19 -2.5 38t-9.5 40.5t-22 35t-36 13.5z" />
    <glyph glyph-name="ogonek" unicode="&#x2db;" horiz-adv-x="933" 
d="M553 18h31q-174 -124 -174 -282q0 -47 28 -77t72 -30q71 0 121 56l14 -21q-14 -20 -32.5 -40t-49.5 -45.5t-73.5 -41.5t-88.5 -16q-63 0 -104 38t-41 107q0 51 28 104.5t73.5 99.5t95 83t100.5 65z" />
    <glyph glyph-name="tilde" unicode="&#x2dc;" horiz-adv-x="933" 
d="M250 1028l-29 8q5 38 14.5 71.5t26.5 68t46 55t67 20.5q23 0 49 -12.5t78 -46.5q82 -55 110 -55q57 0 68 120l29 -10q-5 -43 -13.5 -76.5t-24.5 -69t-44.5 -55.5t-67.5 -20q-42 0 -135 66q-38 27 -58.5 38t-43.5 11q-56 0 -72 -113z" />
    <glyph glyph-name="hungarumlaut" unicode="&#x2dd;" horiz-adv-x="933" 
d="M317 977l-22 12q13 40 43.5 144t36.5 124q28 89 92 89q24 0 37.5 -18.5t13.5 -45.5q0 -36 -43 -98q-45 -64 -158 -207zM592 977l-25 10q54 183 80 266q27 90 94 90q24 0 37 -17.5t13 -43.5q0 -43 -41 -102q-4 -5 -158 -203z" />
    <glyph glyph-name="pi" unicode="&#x3c0;" horiz-adv-x="958" 
d="M483 774h-219q-2 -336 -2 -512q0 -91 -10.5 -151t-31 -89.5t-43 -40t-54.5 -10.5q-44 0 -69 26t-25 73q0 26 9 42t25 13q36 -5 50 -4q46 2 73.5 37t28.5 133q8 258 -2 483q-51 0 -90 -3.5t-55.5 -7t-42 -11t-33.5 -9.5q-10 17 -10 21q74 52 113 68q65 28 147 28h428
q52 0 148 5.5t118 8.5l-14 -106q-12 0 -68 3t-84 3v-645q0 -43 8 -63.5t29 -20.5q26 0 55.5 31t44.5 106l29 -32q-66 -177 -281 -177q-98 0 -136 47.5t-38 145.5z" />
    <glyph glyph-name="uni2010" unicode="&#x2010;" horiz-adv-x="620" 
d="M68 401l22 115q229 -6 463 0l-21 -115q-238 6 -464 0z" />
    <glyph glyph-name="figuredash" unicode="&#x2012;" horiz-adv-x="620" 
d="M68 588l22 114q229 -6 463 0l-21 -114q-238 6 -464 0z" />
    <glyph glyph-name="endash" unicode="&#x2013;" horiz-adv-x="1087" 
d="M98 408l23 100q430 -3 870 0l-22 -100q-422 3 -871 0z" />
    <glyph glyph-name="emdash" unicode="&#x2014;" horiz-adv-x="1878" 
d="M98 408l23 100q191 -2 826.5 -2t836.5 2l-23 -100q-192 2 -827.5 2t-835.5 -2z" />
    <glyph glyph-name="quoteleft" unicode="&#x2018;" horiz-adv-x="421" 
d="M360 1444l11 -27q-106 -11 -174 -69.5t-68 -151.5q0 -12 5 -14t11 4q31 28 91 28q50 0 85 -33.5t35 -93.5q0 -51 -41 -87.5t-96 -36.5q-80 0 -122 53.5t-42 140.5q0 70 28.5 125.5t74.5 88.5t97.5 51.5t104.5 21.5z" />
    <glyph glyph-name="quoteright" unicode="&#x2019;" horiz-adv-x="421" 
d="M63 954l-10 27q105 11 173 69.5t67 151.5q0 8 -2.5 11.5t-5.5 3t-6 -4.5q-31 -28 -91 -28q-51 0 -86 33.5t-34 93.5q0 52 40 88.5t95 36.5q82 0 124 -53.5t42 -141.5q0 -70 -28.5 -125.5t-75 -88.5t-98 -51.5t-104.5 -21.5z" />
    <glyph glyph-name="quotesinglbase" unicode="&#x201a;" horiz-adv-x="450" 
d="M61 -221l-10 28q113 13 187.5 77t74.5 163q0 10 -6 12.5t-12 -2.5q-26 -26 -92 -26q-59 0 -98.5 36t-38.5 99q0 55 44.5 96t104.5 41q87 0 133.5 -60t46.5 -155q0 -76 -31.5 -136.5t-82 -96t-106.5 -55t-114 -21.5z" />
    <glyph glyph-name="quotedblleft" unicode="&#x201c;" horiz-adv-x="796" 
d="M733 1444l10 -27q-105 -11 -172.5 -69.5t-66.5 -151.5q0 -12 5 -14t11 4q28 28 88 28q51 0 86.5 -33.5t34.5 -93.5q0 -52 -40 -88t-95 -36q-80 0 -123 53.5t-43 140.5q0 70 28.5 125.5t74.5 88.5t97.5 51.5t104.5 21.5zM360 1444l11 -27q-106 -11 -174.5 -69.5
t-67.5 -151.5q0 -12 5 -14t11 4q31 28 91 28q50 0 85 -33.5t35 -93.5q0 -51 -41 -87.5t-96 -36.5q-80 0 -122 53.5t-42 140.5q0 70 28.5 125.5t74.5 88.5t97.5 51.5t104.5 21.5z" />
    <glyph glyph-name="quotedblright" unicode="&#x201d;" horiz-adv-x="796" 
d="M63 954l-10 27q104 11 172 69.5t68 151.5q0 8 -2.5 11.5t-5.5 3t-6 -4.5q-31 -28 -91 -28q-51 0 -86 33.5t-34 93.5q0 52 40 88.5t95 36.5q82 0 124 -53.5t42 -141.5q0 -70 -28.5 -125.5t-75 -88.5t-98 -51.5t-104.5 -21.5zM436 954l-10 27q105 11 173 69.5t67 151.5
q0 11 -5.5 14t-11.5 -4q-28 -28 -88 -28q-51 0 -87 33.5t-36 93.5q0 51 41.5 88t95.5 37q82 0 124 -53.5t42 -141.5q0 -70 -28.5 -125.5t-74.5 -88.5t-97.5 -51.5t-104.5 -21.5z" />
    <glyph glyph-name="quotedblbase" unicode="&#x201e;" horiz-adv-x="864" 
d="M61 -221l-10 28q113 13 187.5 77t74.5 163q0 10 -6 12.5t-12 -2.5q-26 -26 -92 -26q-59 0 -98.5 36t-38.5 99q0 55 44.5 96t104.5 41q87 0 133.5 -60t46.5 -155q0 -76 -31.5 -136.5t-82 -96t-106.5 -55t-114 -21.5zM471 -221l-10 28q114 13 189 77t75 163q0 10 -5.5 12.5
t-10.5 -2.5q-30 -26 -95 -26q-58 0 -98 36t-39 99q0 54 45 95.5t103 41.5q89 0 135.5 -60t46.5 -155q0 -76 -31.5 -136.5t-82 -96t-107.5 -55t-115 -21.5z" />
    <glyph glyph-name="dagger" unicode="&#x2020;" horiz-adv-x="933" 
d="M471 1176q18 -27 50.5 -57t56.5 -42q19 -7 4 -22q-38 -44 -71 -127.5t-36 -186.5q72 1 143.5 34t102.5 77q4 8 12 7.5t12 -9.5q6 -18 35 -53t56 -54q17 -14 0 -28q-27 -18 -57 -52.5t-38 -54.5q-1 -8 -9 -8t-13 8q-32 44 -103.5 75.5t-140.5 33.5q0 -276 23.5 -444
t66.5 -306q3 -18 -6 -20q-40 -15 -92 -56q-5 -3 -14 0q-69 48 -91 56q-8 6 -6 20q41 146 64.5 311.5t23.5 438.5q-70 -1 -139.5 -32.5t-103.5 -76.5q-5 -8 -13.5 -8t-11.5 8q-8 20 -36.5 54.5t-53.5 52.5q-20 14 0 28q25 19 53.5 54t36.5 53q3 9 11 9.5t14 -7.5
q33 -45 102.5 -77.5t140.5 -33.5q-1 103 -34 187t-72 127q-6 6 -5 12.5t9 9.5q44 19 109 97q10 8 20 2z" />
    <glyph glyph-name="daggerdbl" unicode="&#x2021;" horiz-adv-x="933" 
d="M467 1176q63 -72 106 -89q13 -6 5 -22q-39 -42 -71.5 -116.5t-33.5 -155.5q69 1 139.5 32t102.5 70q6 6 13.5 5.5t8.5 -7.5q6 -17 33.5 -46t56.5 -52q20 -13 -2 -29q-28 -22 -55 -51t-33 -47q-3 -7 -10.5 -7.5t-13.5 5.5q-33 40 -102.5 70.5t-137.5 31.5q0 -132 92 -217
q-84 -92 -92 -207q70 1 140.5 32.5t101.5 74.5q6 7 13.5 7t8.5 -7q6 -19 34.5 -52.5t55.5 -54.5q9 -4 8.5 -13t-10.5 -16q-27 -19 -54 -48.5t-34 -47.5q-3 -8 -10.5 -8.5t-13.5 6.5q-33 40 -102.5 70.5t-137.5 31.5q1 -101 34 -188.5t71 -132.5q12 -15 -7 -23
q-31 -13 -104 -86q-9 -9 -21 0q-71 71 -102 84q-16 12 -6 25q36 48 68.5 134.5t35.5 186.5q-69 -1 -138.5 -31t-104.5 -71q-3 -7 -11 -6.5t-10 8.5q-9 19 -37 48.5t-55 47.5q-8 7 -8 15.5t6 13.5q27 20 55.5 54t34.5 53q4 7 12 7t11 -7q33 -43 103.5 -74.5t141.5 -32.5
q-7 108 -94 207q94 83 94 217q-70 -1 -139 -31t-104 -71q-3 -6 -11.5 -5.5t-11.5 7.5q-8 18 -36 48t-56 50q-18 15 0 29q29 21 56.5 50.5t33.5 47.5q3 7 11 7.5t12 -5.5q33 -40 104 -70.5t141 -31.5q-1 80 -33.5 153t-70.5 119q-9 16 2 20q24 11 55 38.5t51 52.5q12 9 21 0z
" />
    <glyph glyph-name="bullet" unicode="&#x2022;" horiz-adv-x="620" 
d="M311 674h2q93 0 155 -67t62 -165q0 -100 -62.5 -163.5t-156.5 -63.5q-93 0 -157 64t-64 163q0 98 65 165t156 67z" />
    <glyph glyph-name="onedotenleader" unicode="&#x2024;" horiz-adv-x="698" 
d="M350 293h2q64 0 109 -47t45 -115t-45.5 -114t-110.5 -46t-110 46t-45 114q0 69 45 115.5t110 46.5z" />
    <glyph glyph-name="twodotenleader" unicode="&#x2025;" horiz-adv-x="1079" 
d="M270 293h2q64 0 109 -47t45 -115t-45.5 -114t-110.5 -46t-110 46t-45 114q0 69 45 115.5t110 46.5zM811 293h2q66 0 110 -46.5t44 -115.5q0 -68 -45.5 -114t-110.5 -46t-110.5 46t-45.5 114q0 69 45.5 115.5t110.5 46.5z" />
    <glyph glyph-name="ellipsis" unicode="&#x2026;" horiz-adv-x="1677" 
d="M281 293h2q63 0 107 -46.5t44 -115.5q0 -68 -44.5 -114t-108.5 -46q-65 0 -110.5 46t-45.5 114q0 69 45.5 115.5t110.5 46.5zM840 293h2q63 0 107 -46.5t44 -115.5q0 -68 -44.5 -114t-108.5 -46q-65 0 -110.5 46t-45.5 114q0 69 45.5 115.5t110.5 46.5zM1399 293h2
q63 0 107 -46.5t44 -115.5q0 -68 -44.5 -114t-108.5 -46q-65 0 -110.5 46t-45.5 114q0 69 45.5 115.5t110.5 46.5z" />
    <glyph glyph-name="perthousand" unicode="&#x2030;" horiz-adv-x="1918" 
d="M250 0l-35 43q118 168 387 569t395 594q-43 -27 -67 -39.5t-78 -25.5t-121 -13q-96 0 -156 25q29 -74 29 -178q0 -149 -70.5 -244.5t-197.5 -95.5q-128 0 -199 79.5t-71 235.5q0 159 84.5 250.5t218.5 91.5q64 0 123 -32l30 16q79 -109 242 -109q58 0 106.5 12.5
t80.5 32.5t50.5 36.5t30.5 33.5q30 38 49 64l76 8q-7 -11 -121.5 -177.5t-186 -271.5t-188 -278t-220.5 -331t-191 -296zM385 1251h-2q-21 0 -42 -11.5t-32 -27.5q-48 -73 -51 -251q-3 -179 45 -244q30 -41 86 -41q59 0 103.5 77.5t44.5 231.5q0 53 -7.5 97.5t-23.5 84
t-47 62t-74 22.5zM1012 694h2q88 0 145 -46.5t79 -115t22 -157.5q0 -146 -69 -240t-194 -94q-131 0 -202.5 80.5t-71.5 228.5q0 162 80.5 253t208.5 91zM1051 655h-2q-63 0 -86 -45q-48 -75 -48 -245q-3 -182 50 -248q25 -37 77 -37q64 0 107 78t43 223q0 65 -13 124.5
t-46 104.5t-82 45zM1608 694h2q129 0 188.5 -88.5t59.5 -230.5q0 -149 -69.5 -241.5t-193.5 -92.5q-131 0 -203.5 82.5t-72.5 226.5q0 162 80.5 253t208.5 91zM1649 655h-2q-62 0 -88 -45q-43 -73 -46 -245q-3 -181 50 -248q27 -37 75 -37q65 0 108.5 78t43.5 219
q0 52 -7.5 99t-23.5 88.5t-44.5 66t-65.5 24.5z" />
    <glyph glyph-name="guilsinglleft" unicode="&#x2039;" horiz-adv-x="593" 
d="M481 813l23 -16q-24 -98 -73.5 -197.5t-98.5 -169.5q55 -76 106.5 -177t65.5 -181l-19 -15q-63 134 -181 234.5t-214 124.5l8 22q105 34 214 140.5t169 234.5z" />
    <glyph glyph-name="guilsinglright" unicode="&#x203a;" horiz-adv-x="593" 
d="M113 57l-23 17q24 97 73 196.5t99 169.5q-55 75 -106.5 177t-65.5 182l19 14q43 -90 116 -169.5t145.5 -126.5t133.5 -62l-8 -23q-105 -34 -214 -140.5t-169 -234.5z" />
    <glyph glyph-name="fraction" unicode="&#x2044;" horiz-adv-x="182" 
d="M492 1376l34 -35q-531 -803 -862 -1333l-35 37q503 754 863 1331z" />
    <glyph glyph-name="zero.superior" unicode="&#x2070;" horiz-adv-x="684" 
d="M371 1614h2q140 0 213 -92t73 -246q0 -159 -77.5 -253.5t-225.5 -94.5q-143 0 -215.5 90t-72.5 248q0 153 78.5 250.5t224.5 97.5zM369 1587h-2q-22 0 -37 -11.5t-29 -43.5q-33 -73 -33 -262q0 -173 29 -252q23 -64 70 -64q40 0 65 62q31 80 31 260q0 179 -31 258
q-12 29 -26 41t-37 12z" />
    <glyph glyph-name="four.superior" unicode="&#x2074;" horiz-adv-x="684" 
d="M350 1163q10 166 10 346q-23 -32 -108.5 -147t-130.5 -178q92 -21 229 -21zM59 1139l-14 30q99 114 190 228.5t132 179.5q79 8 184 37l8 -4q-6 -132 -6 -348v-97q84 7 127 33l2 -22q-45 -39 -129 -52q0 -86 4 -180q-144 -2 -213 -18l-8 8q5 30 12 182q-191 0 -289 23z
" />
    <glyph glyph-name="five.superior" unicode="&#x2075;" horiz-adv-x="684" 
d="M137 1206l-22 31q22 59 36.5 190t12.5 181q64 -27 213 -27q118 0 171 11.5t77 56.5l16 -11q-13 -69 -43 -117.5t-66 -66.5q-56 -29 -161 -29q-120 0 -187 13q-17 -110 -32 -174q59 35 96 47q61 22 131 22q123 0 193.5 -46t70.5 -144q0 -80 -51 -131q-34 -38 -102.5 -61
t-163.5 -23q-115 0 -184.5 37.5t-69.5 99.5q0 40 32 64t78 24q44 0 47 -55q12 -144 101 -144q96 0 96 172q0 106 -57 142q-27 18 -70 18q-57 0 -99 -21.5t-63 -58.5z" />
    <glyph glyph-name="six.superior" unicode="&#x2076;" horiz-adv-x="684" 
d="M598 1604l4 -31q-30 12 -70 12q-114 0 -182 -80t-76 -211q38 35 88 56q49 24 95 24q105 0 158 -52t53 -144q0 -125 -89 -187.5t-219 -62.5q-139 0 -216.5 70.5t-77.5 211.5q0 211 151 324q109 80 293 80q50 0 88 -10zM367 954h2q28 0 48.5 18.5t30.5 50.5t14.5 64.5
t4.5 69.5q0 25 -3.5 50t-12 52t-27 43.5t-43.5 16.5q-70 0 -107 -76q-8 -27 -8 -82q0 -29 4.5 -61t15 -66.5t31.5 -57t50 -22.5z" />
    <glyph glyph-name="seven.superior" unicode="&#x2077;" horiz-adv-x="684" 
d="M98 1317l-22 6q21 72 32 165.5t7 125.5q74 -17 280 -17q220 0 254 5l6 -11q-27 -103 -73 -170q-93 -140 -144.5 -256t-50.5 -229l-10 -8q-77 0 -133 18q-43 19 -43 55q0 27 22 66q24 49 93.5 122.5t141.5 142.5t91 98q-41 4 -201 4q-127 0 -165 -7t-48 -26
q-19 -36 -37 -84z" />
    <glyph glyph-name="eight.superior" unicode="&#x2078;" horiz-adv-x="684" 
d="M385 1614h2q55 0 105 -16.5t86 -55.5t36 -92q0 -43 -36 -72q-44 -28 -95 -53q102 -45 136 -85.5t34 -98.5q0 -97 -78 -152q-38 -28 -98.5 -44.5t-122.5 -16.5q-122 0 -197 44.5t-75 125.5q0 63 53 94q17 9 50.5 24.5t47.5 22.5q-66 32 -94 67.5t-28 94.5q0 68 45 123
q73 90 229 90zM356 1587h-2q-41 0 -72.5 -25.5t-31.5 -70.5q0 -41 41 -74q43 -30 166 -80q43 32 43 105q0 65 -38.5 105t-105.5 40zM377 954h2q50 0 86.5 25.5t36.5 75.5q0 35 -50.5 73t-191.5 99q-21 -13 -36 -42.5t-15 -66.5q0 -63 43.5 -113.5t124.5 -50.5z" />
    <glyph glyph-name="nine.superior" unicode="&#x2079;" horiz-adv-x="684" 
d="M125 942l2 25q75 -11 125 2q174 38 197 266q-32 -33 -81.5 -53.5t-97.5 -20.5q-103 0 -157 55t-54 146q0 120 85 186t221 66q145 0 221 -81t76 -226q0 -98 -39 -178t-109 -128q-111 -73 -283 -73q-29 0 -106 14zM358 1587h-2q-28 0 -47.5 -20.5t-29 -54t-13.5 -65.5
t-4 -65q0 -69 22 -118.5t66 -49.5q63 0 94 66q15 34 15 86q0 221 -101 221z" />
    <glyph glyph-name="parenleft.superior" unicode="&#x207d;" horiz-adv-x="477" 
d="M440 768l-12 -27q-107 47 -180 123q-142 151 -142 414q0 268 142 416q55 60 180 121l12 -25q-126 -51 -164 -250q-14 -95 -14 -262t14 -262q38 -196 164 -248z" />
    <glyph glyph-name="parenright.superior" unicode="&#x207e;" horiz-adv-x="477" 
d="M78 1788l14 27q110 -49 180 -121q142 -151 142 -416q0 -268 -142 -416q-71 -71 -180 -121l-14 25q134 57 166 252q14 92 14 260q0 167 -14 262q-33 195 -166 248z" />
    <glyph glyph-name="n.superior" unicode="&#x207f;" horiz-adv-x="817" 
d="M35 637v25q54 3 66.5 8.5t15.5 29.5q2 31 2 140v114q0 76 -4 146q-3 13 -16.5 16.5t-63.5 3.5l2 25q115 -3 270 16q7 -49 17 -96q109 96 219 96q102 0 141 -63q21 -38 21 -105v-192q0 -47 4 -105q2 -20 14.5 -27t62.5 -10l-4 -22q-12 0 -77.5 2t-102.5 2q-48 0 -100.5 -2
t-57.5 -2v25q33 3 42 9.5t12 30.5q4 66 4 136q0 125 -2.5 167t-10.5 60q-12 35 -51 35q-62 0 -100 -74q-16 -31 -16 -72v-149q0 -78 4 -111q2 -17 12.5 -23t48.5 -9l-2 -25q-9 0 -67.5 2t-96.5 2q-41 0 -106 -2t-80 -2z" />
    <glyph glyph-name="zero.inferior" unicode="&#x2080;" horiz-adv-x="684" 
d="M268 483h2q140 0 213.5 -92.5t73.5 -245.5q0 -159 -77.5 -253.5t-225.5 -94.5q-144 0 -216.5 90.5t-72.5 247.5q0 153 78.5 250.5t224.5 97.5zM266 457h-2q-21 0 -36 -12t-29 -44q-33 -73 -33 -262q0 -173 29 -252q23 -63 69 -63q41 0 66 61q30 77 30 260q0 181 -30 258
q-23 54 -64 54z" />
    <glyph glyph-name="one.inferior" unicode="&#x2081;" horiz-adv-x="684" 
d="M481 -164l2 -29q-35 0 -112 3.5t-117 3.5q-46 0 -115.5 -3.5t-89.5 -3.5l-6 27l80 8q42 3 45 29q6 87 6 166v211q0 124 -4 153q-3 16 -16 13q-9 -2 -22 -4.5t-37.5 -6.5t-45.5 -8l10 33q256 36 308 55l6 -4q-6 -111 -6 -231v-209q0 -88 4 -170q4 -23 30 -25z" />
    <glyph glyph-name="two.inferior" unicode="&#x2082;" horiz-adv-x="684" 
d="M547 78l24 -12q-43 -133 -49 -259q-123 7 -399 7q-102 0 -156 -4l-4 10q11 28 41 104q127 56 192.5 117.5t88.5 134.5q16 55 16 137q0 142 -76 142q-75 0 -75 -127q0 -12 8 -68q0 -24 -19 -37q-20 -14 -57 -14q-46 0 -74 22.5t-28 69.5q0 66 79 125q33 26 87.5 41.5
t109.5 15.5q121 0 182 -41q84 -56 84 -159q0 -51 -20.5 -86t-67.5 -66q-19 -14 -53.5 -34.5t-65.5 -37.5t-87.5 -47.5t-88.5 -48.5q272 8 338 14q25 2 35 23q23 40 35 78z" />
    <glyph glyph-name="three.inferior" unicode="&#x2083;" horiz-adv-x="684" 
d="M262 483h2q62 0 115 -13t94 -50t41 -94q0 -85 -92 -119q-50 -19 -156 -41v-6q160 -6 226 -49q59 -37 59 -109q0 -92 -90 -149q-36 -23 -100.5 -39.5t-135.5 -16.5q-111 0 -184.5 40t-73.5 102q0 37 33 63.5t74 26.5q26 0 35.5 -12.5t11.5 -39.5q4 -79 34 -116t76 -37
q47 0 72 40.5t25 115.5q0 77 -29 119t-100 42q-41 0 -70 -10l-23 29l5 6q98 -3 141 24q59 37 59 129q0 61 -21 98.5t-65 37.5q-84 0 -84 -117q0 -21 4 -49q3 -21 -13.5 -31t-45.5 -10q-38 0 -66 17.5t-28 56.5q0 60 71.5 110.5t198.5 50.5z" />
    <glyph glyph-name="four.inferior" unicode="&#x2084;" horiz-adv-x="684" 
d="M248 33q10 166 10 346q-25 -34 -110 -149t-130 -177q88 -20 230 -20zM-43 8l-14 31q99 113 189.5 227.5t131.5 179.5q81 8 185 37l8 -4q-6 -132 -6 -348v-96q84 7 127 33l2 -23q-44 -38 -129 -51q0 -86 4 -180q-139 -2 -213 -19l-9 8q7 38 13 183q-196 0 -289 22z" />
    <glyph glyph-name="five.inferior" unicode="&#x2085;" horiz-adv-x="684" 
d="M35 76l-23 30q22 59 36.5 190t12.5 181q61 -26 213 -26q120 0 172 11t76 56l17 -10q-13 -69 -43 -117.5t-66 -66.5q-56 -29 -162 -29q-124 0 -186 12q-15 -98 -33 -174q108 70 227 70q123 0 194 -46.5t71 -144.5q0 -79 -52 -131q-34 -38 -102.5 -61t-163.5 -23
q-115 0 -184.5 37.5t-69.5 99.5q0 40 32.5 64.5t78.5 24.5q44 0 47 -56q12 -143 100 -143q97 0 97 172q0 105 -58 141q-29 19 -69 19q-57 0 -99 -21.5t-63 -58.5z" />
    <glyph glyph-name="six.inferior" unicode="&#x2086;" horiz-adv-x="684" 
d="M496 473l4 -31q-32 13 -70 13q-114 0 -182 -80t-76 -211q36 33 88.5 56.5t93.5 23.5q104 0 157.5 -52.5t53.5 -144.5q0 -125 -88.5 -187.5t-218.5 -62.5q-139 0 -217 71t-78 212q0 210 152 323q109 80 293 80q50 0 88 -10zM264 -176h2q28 0 48.5 18.5t31 50.5t15 64.5
t4.5 69.5q0 25 -3.5 50t-12 51.5t-27 43t-43.5 16.5q-70 0 -107 -75q-8 -27 -8 -82q0 -29 4.5 -61t14.5 -66.5t31 -57t50 -22.5z" />
    <glyph glyph-name="seven.inferior" unicode="&#x2087;" horiz-adv-x="684" 
d="M-4 186l-23 7q21 72 32 165t7 125q70 -16 281 -16q227 0 254 4l6 -10q-27 -101 -74 -170q-93 -139 -144 -255.5t-50 -230.5l-11 -8q-74 0 -133 19q-43 19 -43 55q0 25 23 66q24 49 93.5 122.5t141 142t90.5 97.5q-41 4 -200 4q-127 0 -165 -7t-48 -26q-19 -36 -37 -84z
" />
    <glyph glyph-name="eight.inferior" unicode="&#x2088;" horiz-adv-x="684" 
d="M283 483h2q55 0 105 -16.5t86 -55.5t36 -92q0 -41 -37 -71q-47 -30 -94 -53q101 -45 135.5 -86t34.5 -99q0 -96 -78 -151q-38 -28 -99 -45t-122 -17q-122 0 -197 44.5t-75 125.5q0 63 53 94q3 2 98 48q-66 32 -94.5 67t-28.5 94q0 68 45 123q73 90 230 90zM254 457h-2
q-41 0 -73 -26t-32 -71q0 -40 41 -73q43 -30 166 -80q43 32 43 104q0 65 -38 105.5t-105 40.5zM274 -176h2q50 0 86.5 25t36.5 75q0 35 -50 73t-191 99q-22 -13 -37 -42.5t-15 -65.5q0 -63 43.5 -113.5t124.5 -50.5z" />
    <glyph glyph-name="nine.inferior" unicode="&#x2089;" horiz-adv-x="684" 
d="M23 -188l2 24q75 -11 125 2q173 38 196 266q-32 -33 -81 -53t-97 -20q-103 0 -157 54.5t-54 145.5q0 120 84.5 186t220.5 66q145 0 221 -81t76 -226q0 -98 -39 -177.5t-108 -127.5q-113 -74 -283 -74q-24 0 -106 15zM256 457h-2q-28 0 -47.5 -20.5t-29 -54t-13.5 -65.5
t-4 -65q0 -69 22 -118.5t66 -49.5q63 0 94 66q14 31 14 86q0 221 -100 221z" />
    <glyph glyph-name="parenleft.inferior" unicode="&#x208d;" horiz-adv-x="477" 
d="M338 -362l-12 -27q-109 48 -181 123q-141 150 -141 413q0 269 141 416q55 59 181 121l12 -25q-126 -52 -164 -249q-14 -95 -14 -263q0 -167 14 -262q37 -195 164 -247z" />
    <glyph glyph-name="parenright.inferior" unicode="&#x208e;" horiz-adv-x="477" 
d="M-25 657l15 27q110 -49 180 -121q141 -150 141 -416q0 -268 -141 -415q-71 -71 -180 -121l-15 24q134 57 166 252q15 99 15 260t-15 263q-32 194 -166 247z" />
    <glyph glyph-name="colonmonetary" unicode="&#x20a1;" horiz-adv-x="1026" 
d="M371 635v-2q0 -182 31 -325.5t96 -192.5q14 192 43 565t43 565q-46 -11 -82.5 -51t-58.5 -98.5t-37.5 -121t-22.5 -132t-9.5 -117t-2.5 -90.5zM764 1276q39 -8 74.5 -23.5t66.5 -38.5t49.5 -57t18.5 -74q0 -106 -94 -106q-26 0 -41 12q-18 24 -15 39q11 63 11 74
q0 26 -5.5 51.5t-24 51.5t-46.5 32q-9 -108 -84 -1165q208 22 278 250l27 -15q-31 -118 -111.5 -193.5t-197.5 -97.5l-13 -194l-53 -19l21 207q-60 -4 -90 0q-11 -136 -15 -188l-51 -19l20 215q-97 12 -172.5 53.5t-123.5 100t-78.5 136t-43 156.5t-12.5 167q0 101 20 193
t62.5 174t103.5 144t148.5 100t192.5 44l12 170l49 10l-16 -176q24 0 52 -3t38 -3l12 172l51 10zM719 1245q-32 11 -92 8q-24 -264 -90 -1163q48 -23 90 -20q88 1112 92 1175z" />
    <glyph glyph-name="Euro" unicode="&#x20ac;" horiz-adv-x="1024" 
d="M461 745l416 5l-13 -52l-405 2v-104l368 4l-12 -53l-354 4q1 -53 5.5 -102t14 -110t28 -110.5t45 -92.5t67.5 -67t92 -24q99 0 158 48t100 175l24 -14q-49 -159 -135.5 -221t-238.5 -62q-101 0 -179.5 31t-129.5 82.5t-85.5 127.5t-50.5 158t-22 181h-121l16 45h101
q0 38 4 104h-86l16 45h74q13 115 50 211.5t98.5 173.5t156.5 120.5t213 43.5q88 0 152.5 -18.5t97 -49t47 -62t14.5 -66.5q0 -58 -38 -90.5t-85 -32.5q-38 0 -55 14q-24 20 -18 49q10 38 10 86q0 73 -35 106.5t-88 33.5q-42 0 -76 -27.5t-56 -76t-38.5 -101.5t-25.5 -117
t-13.5 -108t-7.5 -89z" />
    <glyph glyph-name="uni2113" unicode="&#x2113;" horiz-adv-x="788" 
d="M729 276l25 -10q-18 -82 -48.5 -138.5t-72 -87t-87 -43.5t-102.5 -13q-68 0 -116.5 17t-77.5 45.5t-46 74.5t-22.5 93.5t-5.5 113.5v94q-16 -10 -33.5 -19.5t-40.5 -20t-36 -17.5l-17 26q121 76 123 78v395q0 132 20.5 233t51.5 157.5t73.5 91.5t78.5 46t75 11
q178 0 178 -268q0 -323 -246 -578v-199q0 -153 28 -216.5t97 -63.5q78 0 123 42t78 156zM403 1090v-457q160 212 160 522q0 30 -4 63t-13 70t-28.5 60.5t-46.5 23.5q-22 0 -35.5 -19.5t-23 -84t-9.5 -178.5z" />
    <glyph glyph-name="trademark" unicode="&#x2122;" horiz-adv-x="509" 
d="M96 1245h33q68 0 80 4q0 -1 -1 -7.5t-1.5 -15t-0.5 -22t1 -26.5l-8 -4q-5 39 -15 49q-9 12 -45 10v-90q0 -23 1 -45l1 -23q3 -10 37 -10v-12q-4 0 -30 1t-44 1q-8 0 -26 -1t-29 -1l-2 12q34 0 37 10q0 2 1 24t1 46v88q-38 0 -45 -12q-3 -6 -16 -50l-11 3q3 12 5 27.5
t3.5 29.5t2.5 18q20 -4 71 -4zM221 1235v12q31 -2 51 -2q29 0 35 2q2 -4 13 -28t22 -49t18 -42q14 27 30.5 67.5t19.5 53.5q10 -2 39 -2q13 0 26.5 1t18.5 1v-12q-24 -2 -27 -10q-2 -8 -2 -35q0 -94 6 -115q0 -7 5 -9.5t24 -2.5l-2 -12q-1 0 -22 1t-36 1q-11 0 -32 -1
t-25 -1v12q12 0 18 1.5t8 3.5t3 7q0 8 4 148h-2q-13 -31 -27.5 -69t-24 -62t-14.5 -35l-18 -6q-6 20 -32 82t-32 84h-2q-4 -57 -4 -125q0 -27 14 -29h21l-2 -12q-7 0 -22 1t-23 1q-10 0 -26 -1t-17 -1v12q21 2 28.5 6.5t8.5 18.5q0 4 5.5 53.5t6.5 79.5l-2 6q0 4 -8 4z" />
    <glyph glyph-name="Omega" unicode="&#x2126;" horiz-adv-x="1449" 
d="M584 188v11q-465 126 -465 571q0 279 165.5 425t454.5 146q276 0 435 -146.5t159 -420.5q0 -118 -33.5 -212.5t-98 -163t-146.5 -116.5t-189 -83v-11h256q123 0 169.5 31.5t82.5 142.5l27 -2q-2 -53 -32 -191t-50 -175q-19 0 -61 3t-109 3h-379l-10 12q4 20 18.5 89
t18.5 89q91 56 142.5 210t51.5 358q0 281 -61 416t-205 135q-88 0 -145 -53.5t-88 -180t-31 -330.5q0 -430 186 -555q4 -17 9 -51.5t10.5 -74.5t7.5 -52l-6 -12h-361q-67 0 -121.5 -3t-76.5 -3q-14 36 -35 170.5t-25 187.5l29 8q14 -41 26 -67.5t28 -47t31.5 -31t42 -17
t53 -8t71.5 -1.5h254z" />
    <glyph glyph-name="estimated" unicode="&#x212e;" horiz-adv-x="1697" 
d="M1556 590h-1144q-11 0 -11 -8v-346q0 -24 17 -41q84 -88 196 -137.5t238 -49.5q134 0 252 56t203 155h100q-99 -115 -245.5 -181.5t-313.5 -66.5q-143 0 -274 50t-226 135t-151 202.5t-56 247.5t56 248.5t151 203.5t226 135t274 50t274 -50t226 -135t151.5 -203.5
t56.5 -248.5v-16zM1296 633v350q0 25 -18 43q-84 85 -193.5 132.5t-232.5 47.5q-125 0 -236.5 -48.5t-195.5 -135.5q-19 -19 -19 -45v-344q0 -8 11 -8h876q8 0 8 8z" />
    <glyph glyph-name="onethird" unicode="&#x2153;" horiz-adv-x="1388" 
d="M524 664l2 -29q-35 0 -112 3t-117 3q-46 0 -115.5 -3t-89.5 -3l-6 27l80 8q42 3 45 28q6 81 6 166v209q0 127 -4 156q-3 15 -16 12q-9 -2 -42.5 -7.5t-62.5 -10.5l10 32q251 35 308 56l6 -4q-6 -111 -6 -234v-209q0 -90 4 -168q4 -22 30 -24zM1087 1372l35 -35
q-510 -774 -856 -1325l-35 39q420 624 856 1321zM1044 776h3q62 0 114.5 -13t92.5 -49.5t40 -92.5q0 -85 -92 -119q-52 -19 -155 -41v-6q159 -6 225 -49q59 -35 59 -109q0 -93 -90 -150q-36 -22 -99.5 -38.5t-135.5 -16.5q-111 0 -184.5 39.5t-73.5 101.5q0 37 32.5 64
t73.5 27q26 0 35.5 -12.5t11.5 -39.5q4 -79 34.5 -116t76.5 -37q96 0 96 155q0 77 -29 119.5t-100 42.5q-39 0 -72 -8l-20 27l4 6q98 -3 141 24q60 37 60 129q0 60 -20.5 97t-63.5 37q-86 0 -86 -115q0 -21 4 -49q3 -21 -13.5 -31t-46.5 -10q-38 0 -66 16.5t-28 54.5
q0 62 71.5 112t200.5 50z" />
    <glyph glyph-name="twothirds" unicode="&#x2154;" horiz-adv-x="1388" 
d="M621 905l24 -12q-43 -133 -49 -258q-105 6 -399 6q-102 0 -156 -4l-4 10q6 13 41 105q127 56 192 117t88 135q17 58 17 137q0 141 -76 141t-76 -127q0 -12 8 -68q0 -24 -18 -36q-21 -15 -57 -15q-103 0 -103 92q0 65 80 125q34 26 88.5 42t108.5 16q121 0 182 -41
q84 -56 84 -160q0 -51 -20.5 -86t-67.5 -66q-24 -18 -64.5 -41t-119 -65.5t-111.5 -60.5q272 8 338 14q25 3 35 20q28 55 35 80zM1133 1372l34 -35q-553 -839 -858 -1325l-35 39q462 685 859 1321zM1057 776h2q44 0 85 -8t79 -24.5t61 -48.5t23 -74q0 -84 -93 -119
q-52 -19 -155 -41v-6q159 -6 225 -49q59 -35 59 -109q0 -93 -90 -150q-36 -22 -99.5 -38.5t-135.5 -16.5q-111 0 -184.5 39.5t-73.5 101.5q0 37 32.5 64t73.5 27q26 0 35.5 -12.5t11.5 -39.5q4 -79 34.5 -116t76.5 -37q96 0 96 155q0 77 -29 119.5t-100 42.5q-38 0 -71 -8
l-21 27l4 6q98 -3 141 24q60 37 60 129q0 60 -20.5 97t-63.5 37q-86 0 -86 -115q0 -21 4 -49q3 -21 -13.5 -31t-45.5 -10q-38 0 -66.5 16.5t-28.5 54.5q0 60 72 111t201 51z" />
    <glyph glyph-name="oneeighth" unicode="&#x215b;" horiz-adv-x="1388" 
d="M522 664l2 -29q-35 0 -112 3t-117 3q-46 0 -115.5 -3t-89.5 -3l-6 27l80 8q42 3 45 28q6 81 6 166v211q0 125 -4 154q-3 15 -16 12q-9 -2 -42.5 -7.5t-62.5 -10.5l10 32q251 35 308 56l6 -4q-6 -111 -6 -234v-207q0 -92 4 -170q4 -22 30 -24zM1085 1372l33 -35
q-510 -774 -856 -1325l-33 37q474 712 856 1323zM1032 778h2q55 0 105 -16t85.5 -54.5t35.5 -91.5q0 -44 -39 -75q-40 -28 -93 -52q102 -45 137 -85.5t35 -98.5q0 -91 -77 -151q-38 -28 -100 -45t-124 -17q-122 0 -197 45t-75 127q0 58 55 92q13 8 26.5 14.5t37.5 16.5
t37 16q-67 34 -96 69.5t-29 94.5q0 68 43 121q76 90 231 90zM1004 752h-3q-41 0 -72.5 -26t-31.5 -71q0 -41 43 -73q46 -32 164 -80q43 34 43 106q0 63 -38 103.5t-105 40.5zM1024 119h2q50 0 85.5 25t35.5 75q0 35 -50.5 73t-191.5 99q-23 -13 -37 -41.5t-14 -66.5
q0 -63 44.5 -113.5t125.5 -50.5z" />
    <glyph glyph-name="threeeighths" unicode="&#x215c;" horiz-adv-x="1388" 
d="M352 1311h2q45 0 86.5 -8t79.5 -25t61 -49.5t23 -75.5q0 -85 -92 -119q-50 -19 -156 -41v-6q160 -6 226 -49q59 -37 59 -109q0 -92 -90 -149q-36 -22 -100.5 -38.5t-137.5 -16.5q-111 0 -184.5 39.5t-73.5 101.5q0 37 33 63.5t74 26.5q26 0 35.5 -12t11.5 -39
q4 -79 35 -116.5t78 -37.5t71.5 40.5t24.5 115.5q0 77 -29 119.5t-100 42.5q-40 0 -72 -11l-22 29l4 6q99 -3 143 25q59 37 59 129q0 60 -20.5 97.5t-65.5 37.5q-86 0 -86 -117q0 -21 4 -49q3 -21 -13.5 -31t-45.5 -10q-38 0 -66 17.5t-28 56.5q0 60 71.5 111t200.5 51z
M1118 1372l33 -35q-460 -698 -856 -1325l-35 37q458 683 858 1323zM1057 778h2q88 0 156.5 -42.5t68.5 -119.5q0 -44 -39 -75q-29 -20 -92 -49q102 -47 137 -88t35 -99q0 -90 -78 -151q-38 -28 -99.5 -45t-123.5 -17q-121 0 -195.5 45t-74.5 127q0 58 55 92q15 9 100 47
q-67 34 -96 69.5t-29 94.5q0 68 43 121q76 90 230 90zM1028 752h-2q-40 0 -71 -26t-31 -71q0 -39 43 -71q51 -37 161 -82q43 40 43 106q0 63 -38 103.5t-105 40.5zM1049 119h2q51 0 85.5 25t34.5 75q0 35 -50 73t-189 99q-23 -13 -37 -41.5t-14 -66.5q0 -63 44 -113.5
t124 -50.5z" />
    <glyph glyph-name="fiveeighths" unicode="&#x215d;" horiz-adv-x="1388" 
d="M137 903l-22 31q22 59 36.5 190t12.5 181q64 -27 213 -27q118 0 171 11t77 54l16 -8q-13 -69 -43 -117.5t-66 -66.5q-56 -29 -161 -29q-120 0 -187 13q-17 -110 -32 -174q107 69 227 69q123 0 193.5 -46t70.5 -144q0 -80 -51 -131q-34 -38 -102.5 -61t-163.5 -23
q-115 0 -184.5 37.5t-69.5 99.5q0 40 32 64t78 24q44 0 47 -55q12 -144 101 -144q96 0 96 172q0 106 -57 142q-27 18 -70 18q-57 0 -99 -21.5t-63 -58.5zM1122 1372l33 -37q-466 -703 -858 -1323l-33 37q436 650 858 1323zM1061 778h2q88 0 156.5 -42.5t68.5 -119.5
q0 -44 -39 -75q-32 -22 -94 -49q102 -47 137 -88t35 -99q0 -90 -78 -151q-38 -28 -99.5 -45t-123.5 -17q-121 0 -195.5 45t-74.5 127q0 58 55 92q15 9 100 47q-67 34 -96 69.5t-29 94.5q0 68 43 121q76 90 232 90zM1032 752h-2q-41 0 -72.5 -26t-31.5 -71q0 -39 43 -71
q53 -37 164 -82q43 40 43 106q0 63 -38.5 103.5t-105.5 40.5zM1051 119h2q51 0 86 25t35 75q0 35 -50 73t-190 99q-23 -13 -37 -41.5t-14 -66.5q0 -63 44 -113.5t124 -50.5z" />
    <glyph glyph-name="seveneighths" unicode="&#x215e;" horiz-adv-x="1388" 
d="M119 1014l-23 6q21 72 32 165.5t7 125.5q74 -17 281 -17q229 0 256 4l6 -10q-33 -111 -74 -170q-93 -137 -145 -255.5t-51 -233.5l-11 -8q-90 3 -133 20q-16 5 -29.5 19t-13.5 34q0 27 23 68q24 49 93.5 122.5t141.5 143t92 98.5q-43 4 -202 4q-127 0 -165 -6.5
t-48 -25.5q-25 -51 -37 -84zM1044 1372l33 -35q-440 -663 -858 -1325l-33 37q441 663 858 1323zM1024 778h2q55 0 104.5 -16.5t85 -55.5t35.5 -92q0 -46 -39 -73q-31 -24 -92 -52q102 -45 137 -85.5t35 -98.5q0 -94 -78 -151q-38 -28 -99.5 -45t-123.5 -17q-122 0 -197 45
t-75 127q0 58 55 92q15 9 100 47q-67 34 -95.5 69.5t-28.5 94.5q0 68 43 121q76 90 231 90zM995 752h-2q-41 0 -72.5 -26t-31.5 -71q0 -41 43 -73q46 -32 164 -80q43 34 43 106q0 63 -38.5 103.5t-105.5 40.5zM1016 119h2q50 0 85.5 25t35.5 75q0 35 -50.5 73t-191.5 99
q-22 -12 -36.5 -41.5t-14.5 -66.5q0 -63 44.5 -113.5t125.5 -50.5z" />
    <glyph glyph-name="uni2190" unicode="&#x2190;" horiz-adv-x="987" 
d="M936 428h-711l330 -295l-55 -72l-449 410v2l449 410l55 -72l-330 -295h711v-88z" />
    <glyph glyph-name="uni2192" unicode="&#x2192;" horiz-adv-x="987" 
d="M51 516h711l-328 295l55 72l447 -410v-2l-447 -410l-55 72l328 295h-711v88z" />
    <glyph glyph-name="partialdiff" unicode="&#x2202;" horiz-adv-x="1011" 
d="M117 1135q-14 21 2 82t37 81q26 22 90 40t151 18q77 0 152.5 -26t145.5 -81.5t123 -134.5t84.5 -194.5t31.5 -251.5q0 -202 -58.5 -357t-176.5 -244.5t-281 -89.5q-172 0 -263.5 93t-91.5 258q0 169 105 276t285 107q83 0 138.5 -30t82.5 -67h4q7 44 13.5 132.5
t6.5 144.5q0 211 -61 314.5t-203 103.5q-89 0 -170.5 -51t-140.5 -123h-6zM444 14h2q42 0 78.5 48.5t64 132.5t47 174t34.5 196q-39 80 -127 80q-86 0 -149.5 -102t-63.5 -279q0 -132 31.5 -191t82.5 -59z" />
    <glyph glyph-name="Delta" unicode="&#x2206;" horiz-adv-x="1183" 
d="M1124 -6l-72 4q-72 3 -194 2q-244 -2 -417 -2t-272 1t-108 1v29q58 162 394 1151q16 51 22 110q51 2 139 14.5t123 26.5q58 -236 173 -621t212 -683v-33zM485 1155q-13 -45 -140 -443t-171 -560q-12 -59 35 -66q85 -14 260 -14q181 0 238 8q35 4 41 11q9 11 0 48
q-84 315 -263 1016z" />
    <glyph glyph-name="product" unicode="&#x220f;" horiz-adv-x="1386" 
d="M203 365v489q0 321 -4 391q-3 41 -23.5 52t-97.5 14l4 26q24 0 120 -4t140 -4h686q119 0 283 8l2 -26q-77 -3 -98 -13.5t-21 -46.5q-1 -22 -3.5 -90t-4.5 -141t-2 -141v-557q0 -337 12 -451q3 -26 25 -35.5t102 -13.5l-8 -25q-19 0 -116.5 3t-168.5 3q-70 0 -163 -3
t-115 -3l2 25q74 6 93.5 17.5t22.5 47.5q11 258 11 377v963q0 34 -10 45t-40 16q-46 6 -143 6q-76 0 -131 -6q-31 -5 -41 -17t-10 -50v-969q0 -259 8 -365q3 -39 24.5 -50.5t98.5 -14.5v-27q-31 0 -129.5 4t-167.5 4q-52 0 -144.5 -4t-129.5 -4v27q78 3 99.5 15t24.5 52
q13 153 13 476z" />
    <glyph glyph-name="summation" unicode="&#x2211;" horiz-adv-x="1091" 
d="M57 1311v22q32 0 150.5 -3t167.5 -3h295q197 0 262 14q-4 -49 -6 -173t0 -179h-27q-9 42 -30 104t-44 101q-18 34 -38 52.5t-71 32t-136 13.5h-154q-20 0 -30 -10t-7 -20l287 -590q-109 -159 -412 -635q-5 -10 0.5 -16t26.5 -9q65 -12 272 -12q172 0 251 11.5t108 37.5
q60 55 96 187l24 -9q-6 -57 -37.5 -230.5t-46.5 -211.5q-137 10 -387 10h-139q-77 0 -215 -3t-162 -3v31q152 207 422 637z" />
    <glyph glyph-name="minus" unicode="&#x2212;" horiz-adv-x="907" 
d="M86 485h735v-86h-735v86z" />
    <glyph glyph-name="uni2215" unicode="&#x2215;" horiz-adv-x="182" 
d="M492 1376l34 -35q-531 -803 -862 -1333l-35 37q503 754 863 1331z" />
    <glyph glyph-name="uni2219" unicode="&#x2219;" horiz-adv-x="501" 
d="M252 612h2q64 0 108 -46.5t44 -114.5q0 -69 -44.5 -114.5t-109.5 -45.5t-110.5 46t-45.5 114t45.5 114.5t110.5 46.5z" />
    <glyph glyph-name="radical" unicode="&#x221a;" horiz-adv-x="1069" 
d="M1034 1591l-393 -1892h-25l-391 879l-131 -66l-16 37l278 141l205 -483q65 -147 86 -223h4q12 85 37 206l285 1401h61z" />
    <glyph glyph-name="infinity" unicode="&#x221e;" horiz-adv-x="1189" 
d="M870 203h-2q-40 0 -76 13t-69 39.5t-57 51t-59 63.5q-3 3 -4.5 5t-4 5t-4.5 5q-33 -37 -48 -53.5t-48 -46.5t-57.5 -44t-61 -26t-74.5 -12q-97 0 -158 63.5t-61 171.5q0 98 69.5 167t166.5 69q31 0 60.5 -9t49 -18t47.5 -34t38.5 -35.5t40 -44.5t36.5 -41q36 42 61 67
t63 55.5t79.5 45t87.5 14.5q94 0 156.5 -65.5t62.5 -168.5q0 -98 -70 -167.5t-164 -69.5zM319 281h3q29 0 57 10.5t46.5 21t45.5 37.5t36.5 38t37.5 44q-13 13 -50 53.5t-57 59t-54 37t-67 18.5q-67 0 -107 -46t-40 -114q0 -71 42.5 -115t106.5 -44zM872 281h2
q64 0 104 45.5t40 113.5q0 73 -38 116.5t-103 43.5q-34 0 -65 -11.5t-62 -37.5t-48 -43.5t-48 -51.5q-2 -2 -3 -3.5t-3 -3t-3 -3.5q4 -5 24.5 -29.5t26.5 -31t24.5 -26.5t27.5 -26.5t26.5 -19.5t31 -18t31 -9.5t35.5 -4.5z" />
    <glyph glyph-name="integral" unicode="&#x222b;" horiz-adv-x="698" 
d="M680 1491v-2q0 -35 -21.5 -53.5t-56.5 -18.5q-29 0 -47.5 16.5t-25 36t-22.5 36t-42 16.5q-75 0 -68 -244q2 -64 27 -447.5t27 -564.5q3 -195 -32.5 -342t-111.5 -232t-184 -85q-60 0 -94.5 25.5t-34.5 70.5q0 34 23 59t65 25q33 0 52.5 -16.5t26 -35.5t24.5 -35.5
t48 -16.5q77 0 70 309q-4 141 -23.5 470t-21.5 369q-11 201 6.5 349.5t59.5 236t100.5 129t134.5 41.5q55 0 88 -27.5t33 -68.5z" />
    <glyph glyph-name="approxequal" unicode="&#x2248;" horiz-adv-x="913" 
d="M758 684l67 -33q-26 -88 -76 -127t-135 -39q-79 0 -194 68q-77 45 -131 45q-98 0 -139 -106l-66 34q34 88 87 121t122 33q74 0 192 -66q83 -49 142 -49q98 0 131 119zM758 416l67 -33q-26 -88 -77.5 -128t-137.5 -40q-67 0 -190 70q-81 45 -133 45q-96 0 -137 -105
l-66 33q60 154 213 154q86 0 192 -68q79 -47 140 -47q96 0 129 119z" />
    <glyph glyph-name="notequal" unicode="&#x2260;" horiz-adv-x="907" 
d="M86 639h418q20 40 51.5 105.5t40.5 84.5q10 -5 34 -16t34 -16l-78 -158h233v-86h-272l-103 -217h375v-88h-416q-56 -119 -88 -182q-32 18 -67 30l71 152h-233v88h274l103 217h-377v86z" />
    <glyph glyph-name="lessequal" unicode="&#x2264;" horiz-adv-x="892" 
d="M109 500v84l675 336v-103l-571 -272v-6l571 -275v-102zM109 100h675v-86h-675v86z" />
    <glyph glyph-name="greaterequal" unicode="&#x2265;" horiz-adv-x="892" 
d="M784 582v-82l-675 -338v102l569 275v4l-569 276v101zM109 100h675v-86h-675v86z" />
    <glyph glyph-name="uni25A0" unicode="&#x25a0;" horiz-adv-x="583" 
d="M92 684h400v-410h-400v410z" />
    <glyph glyph-name="uni25B6" unicode="&#x25b6;" horiz-adv-x="837" 
d="M102 152q2 634 0 634h2l664 -313v-2l-664 -321z" />
    <glyph glyph-name="uni25B7" unicode="&#x25b7;" horiz-adv-x="837" 
d="M176 674l2 -404l424 205zM102 156q2 635 0 635h2l664 -314v-2l-664 -321z" />
    <glyph glyph-name="uni25C0" unicode="&#x25c0;" horiz-adv-x="837" 
d="M735 784q-2 -634 0 -634h-2l-663 313v2l663 321z" />
    <glyph glyph-name="uni25C1" unicode="&#x25c1;" horiz-adv-x="837" 
d="M659 270v404l-426 -205zM735 788q-2 -634 0 -634h-2l-663 313v2l663 322z" />
    <glyph glyph-name="uni25C6" unicode="&#x25c6;" horiz-adv-x="686" 
d="M59 483l281 281l287 -289l-281 -280z" />
    <glyph glyph-name="uni25C9" unicode="&#x25c9;" horiz-adv-x="677" 
d="M340 770h2q110 0 187 -79.5t77 -192.5t-77 -193t-189 -80q-114 0 -191 79.5t-77 193.5t77 193t191 79zM340 696h-2q-77 0 -128.5 -58.5t-51.5 -139.5q0 -83 52 -141t130 -58t129 59t51 140t-51 139.5t-129 58.5zM340 604h-2q-42 0 -70 -31t-28 -75q0 -45 28.5 -77
t71.5 -32q42 0 70 32.5t28 76.5t-28 75t-70 31z" />
    <glyph glyph-name="lozenge" unicode="&#x25ca;" horiz-adv-x="1073" 
d="M977 614l-404 -704h-94l-383 694l381 715h105zM866 602l-334 635h-4q-32 -68 -112 -224t-144 -277l-65 -122l321 -612h2z" />
    <glyph glyph-name="uni2610" unicode="&#x2610;" horiz-adv-x="1406" 
d="M207 1110h1020v-1036l-78 -74h-1014v1042zM180 1030v-983h959v983h-959z" />
    <glyph glyph-name="uni2611" unicode="&#x2611;" horiz-adv-x="1406" 
d="M207 1110h1020v-1036l-78 -74h-1014v1042zM180 1030v-983h959v983h-959zM874 899q18 24 68 45.5t94 26.5v-4q-51 -56 -103 -131t-111.5 -182.5t-92 -170t-100 -199t-80.5 -161.5h-2q-36 30 -129.5 196t-93.5 203q9 20 39 48t49 32h2q10 -52 59.5 -175t83.5 -185
q62 157 156 362t161 295z" />
    <glyph glyph-name="A.sc" unicode="&#xe000;" horiz-adv-x="1040" 
d="M1079 20v-28q-43 0 -135 4t-139 4q-59 0 -155 -4t-136 -4l-2 28q52 5 74.5 11t27.5 16t0 25q-41 165 -88 321q-41 4 -137 4q-104 0 -139 -4q-10 -36 -34.5 -118t-34.5 -121t-11 -56q-2 -24 8 -38.5t44.5 -24.5t101.5 -15v-28q-26 0 -89 4t-100 4q-21 0 -83.5 -4
t-100.5 -4v28q71 6 100 24.5t53 76.5q22 49 64 169t75.5 223t75 230.5t43.5 133.5q16 44 27 110q43 -5 135 4t125 25q69 -248 162 -545t137 -399q18 -40 64 -45zM399 874q-95 -306 -133 -438q62 -4 127 -4q90 0 121 4q-10 40 -53 203.5t-62 234.5z" />
    <glyph glyph-name="AE.sc" unicode="&#xe001;" horiz-adv-x="1447" 
d="M756 995h340q157 0 233 13q-10 -66 -6 -320l-25 -8q-16 112 -53 182q-31 55 -84.5 75.5t-167.5 20.5h-45q-15 0 -21 -4.5t-7 -17.5q-9 -51 -9 -254v-178h95q78 0 121 38t55 128h22q-20 -235 -8 -410l-25 2q-4 36 -9.5 62t-18 54t-30.5 46t-47.5 29.5t-68.5 11.5
q-68 0 -86 -2v-84q0 -212 7 -305q3 -24 18 -31.5t70 -7.5q108 0 167 14t95 53q83 96 118 269l25 -11q-2 -32 -11 -110.5t-19.5 -162t-12.5 -99.5q-136 12 -367 12h-247q-30 0 -83.5 -1.5t-118 -3.5t-87.5 -3v28l82 9q28 3 41 12.5t14 32.5q10 137 10 321v70q-211 0 -268 -4
q-143 -268 -180 -373q-9 -26 3 -38.5t56 -16.5l111 -13v-28q-52 0 -114.5 4t-86.5 4q-38 0 -105.5 -4t-105.5 -4v28q78 8 113 26t74 81q122 207 440 807q14 28 -21 31l-155 10l-4 29q333 -9 387 -9zM612 504v442h-14q-64 -115 -231 -442q80 -4 245 0z" />
    <glyph glyph-name="Aacute.sc" unicode="&#xe002;" horiz-adv-x="1040" 
d="M1079 20v-28q-43 0 -135 4t-139 4q-59 0 -155 -4t-136 -4l-2 28q52 5 74.5 11t27.5 16t0 25q-41 165 -88 321q-41 4 -137 4q-104 0 -139 -4q-10 -36 -34.5 -118t-34.5 -121t-11 -56q-2 -24 8 -38.5t44.5 -24.5t101.5 -15v-28q-26 0 -89 4t-100 4q-21 0 -83.5 -4
t-100.5 -4v28q71 6 100 24.5t53 76.5q22 49 64 169t75.5 223t75 230.5t43.5 133.5q16 44 27 110q43 -5 135 4t125 25q69 -248 162 -545t137 -399q18 -40 64 -45zM399 874q-95 -306 -133 -438q62 -4 127 -4q90 0 121 4q-10 40 -53 203.5t-62 234.5zM475 1112l-18 16
q24 32 99 137t93 128q61 67 109 67q28 0 44.5 -15t16.5 -44q0 -60 -88 -121q-15 -11 -51 -34.5t-96.5 -62.5t-108.5 -71z" />
    <glyph glyph-name="Acircumflex.sc" unicode="&#xe003;" horiz-adv-x="1040" 
d="M1079 20v-28q-43 0 -135 4t-139 4q-59 0 -155 -4t-136 -4l-2 28q52 5 74.5 11t27.5 16t0 25q-41 165 -88 321q-41 4 -137 4q-104 0 -139 -4q-10 -36 -34.5 -118t-34.5 -121t-11 -56q-2 -24 8 -38.5t44.5 -24.5t101.5 -15v-28q-26 0 -89 4t-100 4q-21 0 -83.5 -4
t-100.5 -4v28q71 6 100 24.5t53 76.5q22 49 64 169t75.5 223t75 230.5t43.5 133.5q16 44 27 110q43 -5 135 4t125 25q69 -248 162 -545t137 -399q18 -40 64 -45zM399 874q-95 -306 -133 -438q62 -4 127 -4q90 0 121 4q-10 40 -53 203.5t-62 234.5zM508 1464l20 9
q21 -58 82.5 -154.5t155.5 -202.5l-14 -16q-137 76 -234 166q-117 -101 -233 -166l-17 16q91 97 153.5 194t86.5 154z" />
    <glyph glyph-name="Adieresis.sc" unicode="&#xe004;" horiz-adv-x="1040" 
d="M1079 20v-28q-43 0 -135 4t-139 4q-59 0 -155 -4t-136 -4l-2 28q52 5 74.5 11t27.5 16t0 25q-41 165 -88 321q-41 4 -137 4q-104 0 -139 -4q-10 -36 -34.5 -118t-34.5 -121t-11 -56q-2 -24 8 -38.5t44.5 -24.5t101.5 -15v-28q-26 0 -89 4t-100 4q-21 0 -83.5 -4
t-100.5 -4v28q71 6 100 24.5t53 76.5q22 49 64 169t75.5 223t75 230.5t43.5 133.5q16 44 27 110q43 -5 135 4t125 25q69 -248 162 -545t137 -399q18 -40 64 -45zM399 874q-95 -306 -133 -438q62 -4 127 -4q90 0 121 4q-10 40 -53 203.5t-62 234.5zM350 1382h2q49 0 79 -32
t30 -82q0 -60 -35.5 -93.5t-79.5 -33.5q-47 0 -78.5 28t-31.5 88q0 56 31 90.5t83 34.5zM711 1382h2q50 0 79 -31.5t29 -82.5q0 -59 -35 -93t-79 -34q-47 0 -79 28t-32 88q0 56 31.5 90.5t83.5 34.5z" />
    <glyph glyph-name="Agrave.sc" unicode="&#xe005;" horiz-adv-x="1040" 
d="M1079 20v-28q-43 0 -135 4t-139 4q-59 0 -155 -4t-136 -4l-2 28q52 5 74.5 11t27.5 16t0 25q-41 165 -88 321q-41 4 -137 4q-104 0 -139 -4q-10 -36 -34.5 -118t-34.5 -121t-11 -56q-2 -24 8 -38.5t44.5 -24.5t101.5 -15v-28q-26 0 -89 4t-100 4q-21 0 -83.5 -4
t-100.5 -4v28q71 6 100 24.5t53 76.5q22 49 64 169t75.5 223t75 230.5t43.5 133.5q16 44 27 110q43 -5 135 4t125 25q69 -248 162 -545t137 -399q18 -40 64 -45zM399 874q-95 -306 -133 -438q62 -4 127 -4q90 0 121 4q-10 40 -53 203.5t-62 234.5zM561 1112
q-213 139 -250 166q-80 50 -80 111q0 31 19.5 50t48.5 19q26 0 47 -13.5t51 -47.5q31 -40 183 -269z" />
    <glyph glyph-name="Aring.sc" unicode="&#xe006;" horiz-adv-x="1040" 
d="M1079 20v-28q-43 0 -135 4t-139 4q-59 0 -155 -4t-136 -4l-2 28q52 5 74.5 11t27.5 16t0 25q-41 165 -88 321q-41 4 -137 4q-104 0 -139 -4q-10 -36 -34.5 -118t-34.5 -121t-11 -56q-2 -24 8 -38.5t44.5 -24.5t101.5 -15v-28q-26 0 -89 4t-100 4q-21 0 -83.5 -4
t-100.5 -4v28q71 6 100 24.5t53 76.5q22 49 64 169t75.5 223t75 230.5t43.5 133.5q16 44 27 110q43 -5 135 4t125 25q69 -248 162 -545t137 -399q18 -40 64 -45zM399 874q-95 -306 -133 -438q62 -4 127 -4q90 0 121 4q-10 40 -53 203.5t-62 234.5zM522 1438h2q76 0 124 -44
t48 -122q0 -83 -53 -130.5t-131 -47.5q-80 0 -129 43.5t-49 119.5q0 85 53 133t135 48zM516 1403h-2q-23 0 -39.5 -13.5t-23.5 -36t-10 -42.5t-3 -41q0 -72 21.5 -107t54.5 -35q27 0 44 14t23.5 40t8.5 44.5t2 45.5q0 131 -76 131z" />
    <glyph glyph-name="Atilde.sc" unicode="&#xe007;" horiz-adv-x="1040" 
d="M1079 20v-28q-43 0 -135 4t-139 4q-59 0 -155 -4t-136 -4l-2 28q52 5 74.5 11t27.5 16t0 25q-41 165 -88 321q-41 4 -137 4q-104 0 -139 -4q-10 -36 -34.5 -118t-34.5 -121t-11 -56q-2 -24 8 -38.5t44.5 -24.5t101.5 -15v-28q-26 0 -89 4t-100 4q-21 0 -83.5 -4
t-100.5 -4v28q71 6 100 24.5t53 76.5q22 49 64 169t75.5 223t75 230.5t43.5 133.5q16 44 27 110q43 -5 135 4t125 25q69 -248 162 -545t137 -399q18 -40 64 -45zM399 874q-95 -306 -133 -438q62 -4 127 -4q90 0 121 4q-10 40 -53 203.5t-62 234.5zM303 1135l-31 8
q7 56 22 101.5t51.5 82.5t88.5 37q28 0 54 -12t85 -49q77 -50 111 -50q27 0 48 29.5t30 87.5l29 -10q-5 -40 -15 -75t-27.5 -70t-47 -55.5t-68.5 -20.5q-46 0 -144 63q-4 2 -10 7q-51 36 -74 41q-7 1 -16 1q-31 0 -54 -30t-32 -86z" />
    <glyph glyph-name="B.sc" unicode="&#xe008;" horiz-adv-x="1124" 
d="M23 -6l-3 26q84 4 110 13.5t28 34.5q8 164 8 313v268q0 234 -6 281q-2 23 -30.5 34t-98.5 11v29q24 0 119.5 -4.5t142.5 -4.5q62 0 198 4.5t175 4.5q118 0 176.5 -14.5t99.5 -47.5q66 -49 66 -156q0 -146 -131 -198q-83 -36 -207 -45v-11q209 -9 301 -59
q100 -54 100 -186q0 -70 -30 -126.5t-83 -90.5q-113 -74 -368 -74q-48 0 -336 6q-37 0 -123.5 -4t-107.5 -4zM463 743v-194q18 -2 72 -2q86 0 128 51.5t42 169.5q0 94 -37 143q-22 30 -53 44t-85 14q-57 0 -61 -25q-6 -68 -6 -201zM463 512v-223q0 -180 6 -219q4 -41 78 -41
q112 0 155 61q50 66 50 186q0 140 -58 189q-32 29 -64.5 40t-92.5 11q-50 0 -74 -4z" />
    <glyph glyph-name="C.sc" unicode="&#xe009;" horiz-adv-x="1097" 
d="M1010 618l-29 -4q-6 81 -31 154.5t-61 122.5q-73 96 -201 96q-109 0 -178 -80q-104 -128 -104 -405q0 -119 28 -221t74 -152q82 -88 219 -88q102 0 175.5 59t127.5 187l25 -19q-55 -161 -164.5 -230t-288.5 -69q-293 0 -422 146q-117 132 -117 366q0 129 47.5 240.5
t135.5 181.5q72 59 165.5 90t235.5 31q109 0 196 -26t128 -70l33 106l22 -8q-22 -180 -16 -408z" />
    <glyph glyph-name="Ccedilla.sc" unicode="&#xe00a;" horiz-adv-x="1091" 
d="M672 -27q-9 -14 -27.5 -41.5t-26.5 -40.5q39 -6 71.5 -19.5t58.5 -46t26 -79.5q0 -80 -55 -124t-137 -44q-63 0 -119 39l14 31q45 -25 96 -25q37 0 57.5 18t20.5 52q0 35 -35.5 56.5t-95.5 21.5l-10 22q17 24 56.5 80.5t66.5 95.5h-29q-294 0 -426 150q-115 130 -115 364
q0 128 47.5 240.5t135.5 181.5q72 59 165.5 90t237.5 31q105 0 193.5 -27.5t128.5 -72.5l33 110l22 -10q-22 -180 -16 -405l-29 -5q-12 166 -90 275q-78 98 -203 98q-109 0 -178 -82q-46 -55 -75 -159.5t-29 -247.5q0 -121 28.5 -221t75.5 -150q82 -88 217 -88
q102 0 177.5 59.5t129.5 184.5l23 -19q-50 -144 -144 -214t-241 -79z" />
    <glyph glyph-name="D.sc" unicode="&#xe00b;" horiz-adv-x="1241" 
d="M174 393v281q0 160 -4 250q-3 38 -39 41l-98 12l2 27q15 0 124 -4.5t140 -4.5q66 0 176.5 4.5t145.5 4.5q139 0 220.5 -17.5t143.5 -52.5q89 -50 140 -157t51 -255q0 -82 -16 -154t-51 -138t-98 -117t-149 -80q-122 -39 -305 -39q-46 0 -135.5 3t-130.5 3
q-55 0 -158.5 -3t-114.5 -3l2 26l80 7q35 5 48 13t16 28q10 83 10 325zM471 655v-272q0 -265 6 -320q1 -10 5.5 -17t22 -13t48.5 -6q156 0 227 98q34 50 57 154.5t23 232.5q0 272 -82 369q-36 46 -88.5 67t-136.5 21q-41 0 -55.5 -8t-16.5 -25q-10 -78 -10 -281z" />
    <glyph glyph-name="E.sc" unicode="&#xe00c;" horiz-adv-x="1011" 
d="M41 975v29q11 0 29 -1t45.5 -2t46.5 -2q102 -4 153 -4h332q168 0 246 19q-13 -80 -8 -320l-25 -8q-15 102 -55 174q-30 58 -82 78t-162 20h-49q-33 0 -35 -22q-6 -68 -6 -205v-196h84q79 0 123.5 39t56.5 128h23q-19 -213 -6 -403l-27 2q-4 42 -13.5 73t-28 60
t-52.5 44.5t-82 15.5q-64 0 -78 -2v-144q0 -221 4 -278q2 -21 18.5 -28t69.5 -7q111 0 171 14t97 53q69 75 123 240l21 -8q-4 -54 -22 -178t-27 -168q-140 12 -369 12h-238q-47 0 -157 -4t-137 -4v28l79 7q60 8 62 47q8 106 8 288v332q0 173 -4 230q0 23 -9 32.5t-38 10.5z
" />
    <glyph glyph-name="Eacute.sc" unicode="&#xe00d;" horiz-adv-x="1011" 
d="M41 975v29q11 0 29 -1t45.5 -2t46.5 -2q102 -4 153 -4h332q168 0 246 19q-13 -80 -8 -320l-25 -8q-15 102 -55 174q-30 58 -82 78t-162 20h-49q-33 0 -35 -22q-6 -68 -6 -205v-196h84q79 0 123.5 39t56.5 128h23q-19 -213 -6 -403l-27 2q-4 42 -13.5 73t-28 60
t-52.5 44.5t-82 15.5q-64 0 -78 -2v-144q0 -221 4 -278q2 -21 18.5 -28t69.5 -7q111 0 171 14t97 53q69 75 123 240l21 -8q-4 -54 -22 -178t-27 -168q-140 12 -369 12h-238q-47 0 -157 -4t-137 -4v28l79 7q60 8 62 47q8 106 8 288v332q0 173 -4 230q0 23 -9 32.5t-38 10.5z
M463 1112l-19 16q24 32 99.5 136.5t93.5 128.5q61 67 108 67q28 0 45 -15t17 -44q0 -60 -88 -121q-15 -11 -51 -34.5t-96.5 -62.5t-108.5 -71z" />
    <glyph glyph-name="Ecircumflex.sc" unicode="&#xe00e;" horiz-adv-x="1011" 
d="M41 975v29q11 0 29 -1t45.5 -2t46.5 -2q102 -4 153 -4h332q168 0 246 19q-13 -80 -8 -320l-25 -8q-15 102 -55 174q-30 58 -82 78t-162 20h-49q-33 0 -35 -22q-6 -68 -6 -205v-196h84q79 0 123.5 39t56.5 128h23q-19 -213 -6 -403l-27 2q-4 42 -13.5 73t-28 60
t-52.5 44.5t-82 15.5q-64 0 -78 -2v-144q0 -221 4 -278q2 -21 18.5 -28t69.5 -7q111 0 171 14t97 53q69 75 123 240l21 -8q-4 -54 -22 -178t-27 -168q-140 12 -369 12h-238q-47 0 -157 -4t-137 -4v28l79 7q60 8 62 47q8 106 8 288v332q0 173 -4 230q0 23 -9 32.5t-38 10.5z
M516 1464l21 9q21 -59 82 -155t155 -202l-14 -16q-137 76 -234 166q-117 -101 -233 -166l-17 16q91 97 153.5 194t86.5 154z" />
    <glyph glyph-name="Edieresis.sc" unicode="&#xe00f;" horiz-adv-x="1011" 
d="M41 975v29q11 0 29 -1t45.5 -2t46.5 -2q102 -4 153 -4h332q168 0 246 19q-13 -80 -8 -320l-25 -8q-15 102 -55 174q-30 58 -82 78t-162 20h-49q-33 0 -35 -22q-6 -68 -6 -205v-196h84q79 0 123.5 39t56.5 128h23q-19 -213 -6 -403l-27 2q-4 42 -13.5 73t-28 60
t-52.5 44.5t-82 15.5q-64 0 -78 -2v-144q0 -221 4 -278q2 -21 18.5 -28t69.5 -7q111 0 171 14t97 53q69 75 123 240l21 -8q-4 -54 -22 -178t-27 -168q-140 12 -369 12h-238q-47 0 -157 -4t-137 -4v28l79 7q60 8 62 47q8 106 8 288v332q0 173 -4 230q0 23 -9 32.5t-38 10.5z
M346 1374h2q49 0 79 -32t30 -82q0 -60 -35.5 -93.5t-79.5 -33.5q-47 0 -79 28t-32 88q0 56 31.5 90.5t83.5 34.5zM707 1374h2q50 0 79 -31.5t29 -82.5q0 -59 -35.5 -93t-79.5 -34q-47 0 -78.5 28t-31.5 88q0 56 31.5 90.5t83.5 34.5z" />
    <glyph glyph-name="Egrave.sc" unicode="&#xe010;" horiz-adv-x="1011" 
d="M41 975v29q11 0 29 -1t45.5 -2t46.5 -2q102 -4 153 -4h332q168 0 246 19q-13 -80 -8 -320l-25 -8q-15 102 -55 174q-30 58 -82 78t-162 20h-49q-33 0 -35 -22q-6 -68 -6 -205v-196h84q79 0 123.5 39t56.5 128h23q-19 -213 -6 -403l-27 2q-4 42 -13.5 73t-28 60
t-52.5 44.5t-82 15.5q-64 0 -78 -2v-144q0 -221 4 -278q2 -21 18.5 -28t69.5 -7q111 0 171 14t97 53q69 75 123 240l21 -8q-4 -54 -22 -178t-27 -168q-140 12 -369 12h-238q-47 0 -157 -4t-137 -4v28l79 7q60 8 62 47q8 106 8 288v332q0 173 -4 230q0 23 -9 32.5t-38 10.5z
M563 1112q-213 139 -250 166q-80 50 -80 111q0 31 19.5 50t48.5 19q26 0 47 -13.5t51 -47.5q31 -40 183 -269z" />
    <glyph glyph-name="Eth.sc" unicode="&#xe011;" horiz-adv-x="1267" 
d="M55 508l4 47q9 0 58 -2t84 -2v106q0 179 -4 269q0 33 -35 39l-109 12l2 27q16 0 127 -4.5t142 -4.5q64 0 148 4.5t151 4.5q152 0 241 -16.5t152 -51.5q89 -50 137.5 -154.5t48.5 -253.5q0 -180 -75 -309.5t-240 -183.5q-122 -41 -297 -41q-63 0 -158.5 3t-124.5 3
q-64 0 -158.5 -3t-107.5 -3l2 24l84 9q34 3 47 11.5t16 29.5q11 85 11 335v111q-79 0 -146 -6zM705 555l-11 -49q-3 0 -196 4v-127q0 -262 6 -317q4 -37 67 -37q95 0 149.5 23.5t88.5 72.5t57 152t23 235q0 271 -78 367q-38 48 -86.5 69t-142.5 21q-34 0 -54 -9t-22 -22
q0 -7 -2 -41t-4 -101.5t-2 -156.5v-88q55 -1 207 4z" />
    <glyph glyph-name="Euro.fitted" unicode="&#xe012;" horiz-adv-x="1024" 
d="M461 745l416 5l-13 -52l-405 2v-104l368 4l-12 -53l-354 4q1 -53 5.5 -102t14 -110t28 -110.5t45 -92.5t67.5 -67t92 -24q99 0 158 48t100 175l24 -14q-49 -159 -135.5 -221t-238.5 -62q-101 0 -179.5 31t-129.5 82.5t-85.5 127.5t-50.5 158t-22 181h-121l16 45h101
q0 38 4 104h-86l16 45h74q13 115 50 211.5t98.5 173.5t156.5 120.5t213 43.5q88 0 152.5 -18.5t97 -49t47 -62t14.5 -66.5q0 -58 -38 -90.5t-85 -32.5q-38 0 -55 14q-24 20 -18 49q10 38 10 86q0 73 -35 106.5t-88 33.5q-42 0 -76 -27.5t-56 -76t-38.5 -101.5t-25.5 -117
t-13.5 -108t-7.5 -89z" />
    <glyph glyph-name="Euro.oldstyle" unicode="&#xe013;" horiz-adv-x="1001" 
d="M446 625l390 2l-13 -47l-379 2v-101l344 2l-12 -49l-332 2q11 -393 244 -393q93 0 154.5 46.5t97.5 164.5l29 -16q-49 -145 -137.5 -206t-237.5 -61q-97 0 -173.5 25.5t-127 68.5t-84.5 104t-50 126.5t-20 140.5h-114l16 45h96q0 72 4 101h-80l17 43h67q15 91 49.5 167
t92 139t147.5 98.5t205 35.5q164 0 240.5 -58.5t76.5 -136.5q0 -59 -36.5 -87.5t-83.5 -28.5q-34 0 -50 16q-24 20 -18 45q10 30 10 82q0 69 -37 103t-94 34q-40 0 -72.5 -22t-53 -60.5t-35.5 -80t-23 -93t-11.5 -84.5t-5.5 -69z" />
    <glyph glyph-name="F.sc" unicode="&#xe014;" horiz-adv-x="960" 
d="M35 975v29q11 0 33 -1t56 -2t60 -2q126 -4 176 -4h246q164 0 303 17q-6 -74 -6 -332h-24q-13 107 -62 188q-18 33 -42 52t-72 30t-125 11h-70q-31 0 -31 -21q-6 -42 -6 -266v-164q16 -2 104 -2q93 0 139.5 33.5t55.5 126.5l27 -4q-7 -90 -5 -220.5t7 -175.5h-25
q-8 53 -17.5 85t-30.5 61.5t-58.5 43t-94.5 13.5q-70 0 -102 -4v-166q0 -198 4 -229q1 -20 10.5 -28.5t30.5 -10.5q4 0 27 -4t47 -6.5t43 -2.5l-4 -28q-26 0 -142 4t-168 4q-53 0 -158 -4t-130 -4l-4 28l82 9q50 4 55 39q10 102 10 294v318q0 224 -6 254q-3 30 -45 33z" />
    <glyph glyph-name="G.sc" unicode="&#xe015;" horiz-adv-x="1163" 
d="M1014 625l-27 -2q-9 170 -96.5 268t-210.5 98q-135 0 -201 -104q-90 -139 -90 -391q0 -242 68 -365q72 -125 202 -125q93 0 103 80q7 65 2 268q0 58 -19 76.5t-79 24.5l-58 4l-4 26q30 0 127 -3t137 -3q147 0 265 8l4 -26q-50 -5 -67.5 -16t-20.5 -42q-5 -54 -5 -182
q0 -100 11 -168q-24 -5 -82.5 -21t-91.5 -24q-148 -37 -258 -37q-166 0 -270 38t-169 112q-118 130 -118 370q0 140 54.5 254t155.5 183q142 100 373 100q128 0 212.5 -31.5t121.5 -66.5l37 98l18 -20q-10 -56 -18.5 -172.5t-5.5 -208.5z" />
    <glyph glyph-name="H.sc" unicode="&#xe016;" horiz-adv-x="1265" 
d="M174 340v313q0 224 -2 271q-2 28 -26 38t-101 13l2 29q22 0 114 -4.5t142 -4.5q38 0 78 1.5t98.5 4t106.5 3.5l-2 -29q-65 -3 -85.5 -13.5t-23.5 -41.5q0 -11 -2 -93t-2 -143v-139q41 -2 172 -2q125 0 152 2v160q0 176 -2 227q-2 22 -24.5 31t-86.5 12l2 29
q18 0 115.5 -4.5t146.5 -4.5q55 0 157.5 4.5t113.5 4.5v-29q-75 -4 -95.5 -15.5t-23.5 -48.5q-6 -123 -6 -243v-297q0 -239 8 -305q2 -26 26 -35.5t101 -10.5l-10 -28q-37 0 -131 4t-140 4q-6 0 -270 -8l2 28q70 4 90 16t23 46q4 144 4 274v144q-70 4 -158 4q-84 0 -166 -4
v-164q0 -227 4 -266q3 -25 24.5 -35.5t86.5 -14.5v-28q-23 0 -119.5 4t-163.5 4q-40 0 -134.5 -4t-133.5 -4v28q78 3 103.5 14t27.5 40q8 94 8 266z" />
    <glyph glyph-name="I.sc" unicode="&#xe017;" horiz-adv-x="647" 
d="M174 330v340q0 227 -4 260q-1 18 -8.5 25.5t-30.5 12t-78 7.5l2 29q12 0 103.5 -4.5t154.5 -4.5q76 0 169.5 4.5t107.5 4.5l2 -29q-73 -4 -92.5 -13t-22.5 -34q-6 -105 -6 -254v-344q0 -204 6 -260q2 -19 9 -27t31 -13.5t81 -9.5l-4 -28q-23 0 -129.5 4t-155.5 4
q-56 0 -151 -4t-113 -4v28q80 6 100.5 14.5t22.5 35.5q6 59 6 260z" />
    <glyph glyph-name="Iacute.sc" unicode="&#xe018;" horiz-adv-x="647" 
d="M174 330v340q0 227 -4 260q-1 18 -8.5 25.5t-30.5 12t-78 7.5l2 29q12 0 103.5 -4.5t154.5 -4.5q76 0 169.5 4.5t107.5 4.5l2 -29q-73 -4 -92.5 -13t-22.5 -34q-6 -105 -6 -254v-344q0 -204 6 -260q2 -19 9 -27t31 -13.5t81 -9.5l-4 -28q-23 0 -129.5 4t-155.5 4
q-56 0 -151 -4t-113 -4v28q80 6 100.5 14.5t22.5 35.5q6 59 6 260zM295 1112l-19 16q24 32 99.5 136.5t93.5 128.5q61 67 109 67q28 0 44.5 -15t16.5 -44q0 -60 -88 -121q-15 -11 -51 -34.5t-96.5 -62.5t-108.5 -71z" />
    <glyph glyph-name="Icircumflex.sc" unicode="&#xe019;" horiz-adv-x="647" 
d="M174 330v340q0 227 -4 260q-1 18 -8.5 25.5t-30.5 12t-78 7.5l2 29q12 0 103.5 -4.5t154.5 -4.5q76 0 169.5 4.5t107.5 4.5l2 -29q-73 -4 -92.5 -13t-22.5 -34q-6 -105 -6 -254v-344q0 -204 6 -260q2 -19 9 -27t31 -13.5t81 -9.5l-4 -28q-23 0 -129.5 4t-155.5 4
q-56 0 -151 -4t-113 -4v28q80 6 100.5 14.5t22.5 35.5q6 59 6 260zM303 1464l21 9q21 -59 82 -155t155 -202l-14 -16q-137 76 -234 166q-117 -101 -233 -166l-17 16q91 97 153.5 194t86.5 154z" />
    <glyph glyph-name="Idieresis.sc" unicode="&#xe01a;" horiz-adv-x="647" 
d="M174 330v340q0 227 -4 260q-1 18 -8.5 25.5t-30.5 12t-78 7.5l2 29q12 0 103.5 -4.5t154.5 -4.5q76 0 169.5 4.5t107.5 4.5l2 -29q-73 -4 -92.5 -13t-22.5 -34q-6 -105 -6 -254v-344q0 -204 6 -260q2 -19 9 -27t31 -13.5t81 -9.5l-4 -28q-23 0 -129.5 4t-155.5 4
q-56 0 -151 -4t-113 -4v28q80 6 100.5 14.5t22.5 35.5q6 59 6 260zM147 1374h3q49 0 78.5 -32t29.5 -82q0 -60 -35.5 -93.5t-79.5 -33.5q-47 0 -78.5 28t-31.5 88q0 56 31 90.5t83 34.5zM508 1374h2q50 0 79 -31.5t29 -82.5q0 -59 -35 -93t-79 -34q-47 0 -79 28t-32 88
q0 56 31.5 90.5t83.5 34.5z" />
    <glyph glyph-name="Igrave.sc" unicode="&#xe01b;" horiz-adv-x="647" 
d="M174 330v340q0 227 -4 260q-1 18 -8.5 25.5t-30.5 12t-78 7.5l2 29q12 0 103.5 -4.5t154.5 -4.5q76 0 169.5 4.5t107.5 4.5l2 -29q-73 -4 -92.5 -13t-22.5 -34q-6 -105 -6 -254v-344q0 -204 6 -260q2 -19 9 -27t31 -13.5t81 -9.5l-4 -28q-23 0 -129.5 4t-155.5 4
q-56 0 -151 -4t-113 -4v28q80 6 100.5 14.5t22.5 35.5q6 59 6 260zM365 1112q-213 139 -250 166q-80 50 -80 111q0 31 19 50t48 19q26 0 48 -13.5t51 -47.5q24 -31 182 -269z" />
    <glyph glyph-name="J.sc" unicode="&#xe01c;" horiz-adv-x="622" 
d="M39 975l6 29q28 0 120.5 -4.5t143.5 -4.5q55 0 157.5 4.5t119.5 4.5l-2 -29l-47 -6q-36 -3 -46.5 -11t-13.5 -30q-6 -53 -6 -654q0 -152 -33 -256q-38 -108 -114 -190q-72 -78 -163 -120t-173 -42q-60 0 -96.5 25t-36.5 57q0 36 31.5 67t58.5 31q28 0 45 -32
q56 -90 108 -90q56 0 64 131q12 212 12 553v301q0 174 -2 215q-3 23 -12 32.5t-33 10.5q-20 1 -88 8z" />
    <glyph glyph-name="K.sc" unicode="&#xe01d;" horiz-adv-x="1196" 
d="M176 338v280q0 204 -4 306q-1 29 -20 37t-101 14l4 29q16 0 120 -4.5t157 -4.5q65 0 155.5 4.5t104.5 4.5l2 -29q-74 -4 -93 -12.5t-22 -36.5q-6 -111 -6 -299v-113q75 26 173.5 116t165 172t83.5 118q9 20 4.5 27.5t-25.5 10.5l-124 17l8 24q12 0 84.5 -1t115.5 -1
q45 0 127.5 3.5t88.5 3.5l4 -27q-80 -7 -117.5 -18.5t-65.5 -32.5q-24 -18 -62 -54t-63.5 -63t-79.5 -83.5t-67 -70.5q63 -126 198 -332.5t189 -261.5q19 -19 41 -25.5t94 -12.5l-6 -27q-136 4 -291 0q-108 -6 -168 -12q-23 48 -262 458q-18 27 -26.5 36.5t-18.5 10.5v-122
q0 -221 4 -299q3 -24 24.5 -32.5t104.5 -15.5l-2 -28q-25 0 -119 4t-151 4q-53 0 -165 -4t-134 -4l2 28q60 5 87.5 11t35 13.5t8.5 23.5q8 140 8 270z" />
    <glyph glyph-name="L.sc" unicode="&#xe01e;" horiz-adv-x="964" 
d="M907 362l25 -8q-16 -89 -41 -364q-47 8 -215 8q-100 2 -338 2q-58 0 -174 -3.5t-139 -2.5v26l92 9q28 1 38.5 10t10.5 29q10 85 10 335v291q0 168 -4 234q-1 20 -11.5 28.5t-33.5 10.5l-82 8l2 29q19 0 117 -4.5t168 -4.5q55 0 149 4.5t144 4.5l6 -29l-105 -8
q-23 -3 -32.5 -11t-10.5 -28q-8 -236 -8 -322l-2 -209q-3 -264 4 -336q0 -14 11.5 -20t46.5 -6q102 0 158.5 14t90.5 51q85 92 123 262z" />
    <glyph glyph-name="Lslash.sc" unicode="&#xe01f;" horiz-adv-x="980" 
d="M68 975v29q24 0 125.5 -4.5t164.5 -4.5q44 0 140 4.5t151 4.5l6 -29l-108 -8q-22 -1 -30.5 -10t-10.5 -29q-8 -81 -8 -326q139 77 159 92l31 -32q-133 -69 -192 -105v-151q0 -261 4 -343q2 -15 14 -21.5t49 -6.5q97 0 151 15.5t91 53.5q83 87 123 250l26 -10
q-9 -40 -16.5 -105.5t-14.5 -143.5t-10 -103q-17 2 -215 6q-102 2 -336 2q-64 0 -182 -4t-141 -4v31l100 8q29 3 39 10.5t12 26.5q11 135 11 333q-4 -2 -111 -57l-29 31q56 27 142 74l-2 253q0 182 -6 228q-2 21 -9 28.5t-30 8.5z" />
    <glyph glyph-name="M.sc" unicode="&#xe020;" horiz-adv-x="1456" 
d="M696 16l-125 -22q-33 97 -167 442t-175 459h-6q0 -233 8 -733q3 -74 19.5 -99t73.5 -34l73 -9v-28q-28 0 -97 4t-107 4q-46 0 -106.5 -4t-74.5 -4v28q15 1 40 4.5t32 4.5q38 6 55 33t25 92q36 442 26 764q-4 16 -8 22q-7 24 -43 27l-92 8l2 29q43 -2 93.5 -4t84 -3.5
t64.5 -1.5q147 0 203 6q18 -53 123 -293t141 -327q56 141 130.5 352.5t90.5 267.5q17 -3 47 -6h96q61 0 164 4.5t111 4.5l8 -29l-100 -10q-24 0 -27 -37q-4 -50 -4 -172q0 -589 12 -680q3 -27 11.5 -35.5t35.5 -11.5l84 -9l-2 -28q-7 0 -106.5 4t-180.5 4q-41 0 -93.5 -1.5
t-110 -3.5t-82.5 -3l6 28q76 6 96.5 17.5t20.5 42.5q19 335 22 821h-6q-137 -408 -285 -885z" />
    <glyph glyph-name="N.sc" unicode="&#xe021;" horiz-adv-x="1146" 
d="M23 975v29q11 0 82 -4.5t128 -4.5q141 0 240 9q20 -41 80 -132q168 -257 401 -571q0 467 -18 596q-4 38 -26.5 53.5t-71.5 20.5l-62 4l6 29q42 0 100.5 -4.5t92.5 -4.5q30 0 92.5 4.5t83.5 4.5v-29q-67 -9 -70 -10q-30 -6 -42.5 -21t-22.5 -49q-8 -37 -14.5 -196
t-6.5 -334v-367q-151 0 -204 -16q-295 457 -568 860q0 -655 17 -736q8 -34 22 -50.5t43 -20.5q3 0 40.5 -7t60.5 -8l-5 -28q-25 0 -99 4t-118 4q-26 0 -89 -4t-91 -4v28q18 0 74 9q67 9 80 92q4 25 9.5 117.5t11 274t5.5 376.5q-2 3 -7 12.5t-10 18.5t-9 14q-16 27 -47 33z
" />
    <glyph glyph-name="Ntilde.sc" unicode="&#xe022;" horiz-adv-x="1146" 
d="M23 975v29q11 0 82 -4.5t128 -4.5q141 0 240 9q20 -41 80 -132q168 -257 401 -571q0 467 -18 596q-4 38 -26.5 53.5t-71.5 20.5l-62 4l6 29q42 0 100.5 -4.5t92.5 -4.5q30 0 92.5 4.5t83.5 4.5v-29q-67 -9 -70 -10q-30 -6 -42.5 -21t-22.5 -49q-8 -37 -14.5 -196
t-6.5 -334v-367q-151 0 -204 -16q-295 457 -568 860q0 -655 17 -736q8 -34 22 -50.5t43 -20.5q3 0 40.5 -7t60.5 -8l-5 -28q-25 0 -99 4t-118 4q-26 0 -89 -4t-91 -4v28q18 0 74 9q67 9 80 92q4 25 9.5 117.5t11 274t5.5 376.5q-2 3 -7 12.5t-10 18.5t-9 14q-16 27 -47 33z
M377 1135l-31 8q7 56 22 101.5t51.5 82.5t88.5 37q28 0 54 -12t85 -49q77 -50 111 -50q27 0 48 29.5t30 87.5l28 -10q-5 -40 -14.5 -75t-27 -70t-47 -55.5t-68.5 -20.5q-46 0 -144 63q-4 2 -10 7q-51 36 -74 41q-7 1 -16 1q-31 0 -54 -30t-32 -86z" />
    <glyph glyph-name="O.sc" unicode="&#xe023;" horiz-adv-x="1208" 
d="M614 1026h2q253 0 390 -142t137 -374q0 -249 -136 -395t-405 -146q-140 0 -244 37.5t-167.5 107t-94 161t-30.5 206.5q0 85 16.5 161t57 147.5t101.5 123t156.5 82.5t216.5 31zM606 993h-2q-47 0 -76.5 -20.5t-54.5 -63.5q-29 -53 -47 -155.5t-18 -223.5
q0 -151 17.5 -262.5t45.5 -165.5q49 -100 147 -100q96 0 138 100q49 101 49 379q0 127 -15.5 245.5t-46.5 178.5q-49 88 -137 88z" />
    <glyph glyph-name="OE.sc" unicode="&#xe024;" horiz-adv-x="1742" 
d="M913 504v2q0 252 -18 313q-25 83 -77.5 121.5t-145.5 38.5q-104 0 -166 -84q-39 -52 -65.5 -155.5t-26.5 -237.5q0 -246 73 -371q30 -50 81 -78t108 -28q119 0 176 77q35 42 48 129t13 273zM1069 995h324q155 0 235 13q-12 -80 -8 -322l-25 -8q-14 126 -49 192
q-30 54 -82.5 72.5t-169.5 18.5h-47q-15 0 -20.5 -5.5t-7.5 -17.5q-13 -98 -13 -260v-135q18 -2 90 -2q81 0 123 34.5t54 122.5h24q-20 -224 -8 -395h-27q-4 43 -12.5 75t-27 62t-52.5 46t-82 16q-64 0 -82 -2v-117q0 -209 8 -311q2 -22 16 -29.5t68 -7.5q110 0 173 14.5
t98 54.5q81 90 119 246l20 -6q-1 -40 -17.5 -167.5t-25.5 -184.5q-140 8 -369 8h-245q-119 0 -144 -4v104q-124 -131 -323 -131q-210 0 -326 78q-94 61 -142 173t-48 259q0 149 52 267t146 186q129 94 334 94q207 0 307 -117v92q87 -6 162 -6z" />
    <glyph glyph-name="Oacute.sc" unicode="&#xe025;" horiz-adv-x="1208" 
d="M614 1026h2q253 0 390 -142t137 -374q0 -249 -136 -395t-405 -146q-140 0 -244 37.5t-167.5 107t-94 161t-30.5 206.5q0 85 16.5 161t57 147.5t101.5 123t156.5 82.5t216.5 31zM606 993h-2q-47 0 -76.5 -20.5t-54.5 -63.5q-29 -53 -47 -155.5t-18 -223.5
q0 -151 17.5 -262.5t45.5 -165.5q49 -100 147 -100q96 0 138 100q49 101 49 379q0 127 -15.5 245.5t-46.5 178.5q-49 88 -137 88zM553 1112l-18 16q24 32 99 137t93 128q61 67 109 67q28 0 44.5 -15t16.5 -44q0 -60 -88 -121q-15 -11 -51 -34.5t-96.5 -62.5t-108.5 -71z" />
    <glyph glyph-name="Ocircumflex.sc" unicode="&#xe026;" horiz-adv-x="1208" 
d="M614 1026h2q253 0 390 -142t137 -374q0 -249 -136 -395t-405 -146q-140 0 -244 37.5t-167.5 107t-94 161t-30.5 206.5q0 85 16.5 161t57 147.5t101.5 123t156.5 82.5t216.5 31zM606 993h-2q-47 0 -76.5 -20.5t-54.5 -63.5q-29 -53 -47 -155.5t-18 -223.5
q0 -151 17.5 -262.5t45.5 -165.5q49 -100 147 -100q96 0 138 100q49 101 49 379q0 127 -15.5 245.5t-46.5 178.5q-49 88 -137 88zM592 1464l20 9q21 -58 82.5 -154.5t155.5 -202.5l-14 -16q-137 76 -234 166q-117 -101 -233 -166l-17 16q91 97 153.5 194t86.5 154z" />
    <glyph glyph-name="Odieresis.sc" unicode="&#xe027;" horiz-adv-x="1208" 
d="M614 1026h2q253 0 390 -142t137 -374q0 -249 -136 -395t-405 -146q-140 0 -244 37.5t-167.5 107t-94 161t-30.5 206.5q0 85 16.5 161t57 147.5t101.5 123t156.5 82.5t216.5 31zM606 993h-2q-47 0 -76.5 -20.5t-54.5 -63.5q-29 -53 -47 -155.5t-18 -223.5
q0 -151 17.5 -262.5t45.5 -165.5q49 -100 147 -100q96 0 138 100q49 101 49 379q0 127 -15.5 245.5t-46.5 178.5q-49 88 -137 88zM430 1378h2q49 0 79 -32t30 -82q0 -60 -35.5 -93.5t-79.5 -33.5q-47 0 -79 28t-32 88q0 56 31.5 90.5t83.5 34.5zM791 1378h2q50 0 79 -31.5
t29 -82.5q0 -59 -35.5 -93t-79.5 -34q-47 0 -78.5 28t-31.5 88q0 56 31.5 90.5t83.5 34.5z" />
    <glyph glyph-name="Ograve.sc" unicode="&#xe028;" horiz-adv-x="1208" 
d="M614 1026h2q253 0 390 -142t137 -374q0 -249 -136 -395t-405 -146q-140 0 -244 37.5t-167.5 107t-94 161t-30.5 206.5q0 85 16.5 161t57 147.5t101.5 123t156.5 82.5t216.5 31zM606 993h-2q-47 0 -76.5 -20.5t-54.5 -63.5q-29 -53 -47 -155.5t-18 -223.5
q0 -151 17.5 -262.5t45.5 -165.5q49 -100 147 -100q96 0 138 100q49 101 49 379q0 127 -15.5 245.5t-46.5 178.5q-49 88 -137 88zM649 1112q-213 139 -250 166q-80 50 -80 111q0 31 19.5 50t48.5 19q26 0 47 -13.5t51 -47.5q31 -40 183 -269z" />
    <glyph glyph-name="Oslash.sc" unicode="&#xe029;" horiz-adv-x="1208" 
d="M983 1075l49 -18q-5 -6 -86 -115q87 -61 143 -176t56 -254q0 -264 -147.5 -403.5t-403.5 -139.5q-192 0 -311 70l-86 -115l-54 15l99 122q-80 58 -128 163t-48 253q0 252 150.5 400.5t404.5 148.5q158 0 284 -63q12 17 38.5 55.5t39.5 56.5zM616 991h-2q-52 0 -84.5 -22
t-58.5 -68q-31 -60 -51.5 -168t-20.5 -229q0 -97 23 -232q46 65 184.5 279t167.5 256q-10 34 -20 60t-28.5 57.5t-46.5 49t-63 17.5zM594 2h2q94 0 147 90q32 54 50 172.5t18 243.5q0 160 -23 244q-32 -47 -170.5 -263t-181.5 -278q31 -106 59 -148q42 -60 99 -61z" />
    <glyph glyph-name="Otilde.sc" unicode="&#xe02a;" horiz-adv-x="1208" 
d="M614 1026h2q253 0 390 -142t137 -374q0 -249 -136 -395t-405 -146q-140 0 -244 37.5t-167.5 107t-94 161t-30.5 206.5q0 85 16.5 161t57 147.5t101.5 123t156.5 82.5t216.5 31zM606 993h-2q-47 0 -76.5 -20.5t-54.5 -63.5q-29 -53 -47 -155.5t-18 -223.5
q0 -151 17.5 -262.5t45.5 -165.5q49 -100 147 -100q96 0 138 100q49 101 49 379q0 127 -15.5 245.5t-46.5 178.5q-49 88 -137 88zM375 1133l-31 8q7 56 22 101.5t51.5 82.5t88.5 37q28 0 53.5 -12t85.5 -50q75 -49 111 -49q27 0 48 29.5t30 87.5l28 -10q-5 -40 -14.5 -75
t-27 -70t-47 -55.5t-68.5 -20.5q-46 0 -144 63q-4 2 -10 7q-51 36 -74 41q-7 1 -16 1q-31 0 -54 -30t-32 -86z" />
    <glyph glyph-name="P.sc" unicode="&#xe02b;" horiz-adv-x="1093" 
d="M174 436v234q0 204 -4 254q-2 24 -11.5 34t-33.5 11l-92 8l10 27q5 0 110 -4.5t162 -4.5q71 0 180.5 4.5t139.5 4.5q104 0 171 -11t96 -26.5t59 -42.5q81 -71 81 -217q0 -68 -23.5 -127.5t-60.5 -94.5q-102 -102 -321 -102q-59 0 -109 16l4 31q44 -18 76 -14
q26 0 51.5 17t36.5 46q35 81 35 213q0 73 -15 134t-36 87q-25 31 -57.5 43.5t-85.5 12.5q-34 0 -45 -6.5t-13 -24.5q-8 -57 -8 -317v-187v-166q0 -134 4 -192q3 -23 17.5 -32.5t48.5 -12.5l98 -11v-28q-13 0 -117 4t-205 4q-68 0 -168.5 -4t-123.5 -4v28l73 7q41 3 54 13.5
t14 45.5q8 152 8 350z" />
    <glyph glyph-name="Q.alt" unicode="&#xe02c;" horiz-adv-x="1421" 
d="M2167 -301l14 -23q-95 -137 -223.5 -202.5t-323.5 -65.5q-119 0 -258 65.5t-315 196.5q-28 21 -124.5 96.5t-156.5 118.5q-73 51 -122.5 71.5t-118.5 35.5q-103 24 -186.5 72.5t-148 125.5t-99.5 189.5t-35 253.5q0 156 40.5 284.5t119.5 223.5t203.5 147.5t285.5 52.5
q290 0 460.5 -181.5t170.5 -493.5q0 -113 -22 -210t-61.5 -167.5t-89.5 -126t-110 -92t-118.5 -58.5t-119.5 -32v-9q150 -44 367 -157q189 -96 356.5 -156.5t315.5 -60.5q214 0 299 102zM707 1311h-2q-118 0 -187 -117q-44 -78 -69 -218t-25 -306q0 -185 29 -338.5
t77 -229.5q71 -116 195 -116q62 0 106 25t76 87q39 76 62.5 226t23.5 333q0 175 -24 315.5t-66 219.5q-37 63 -83.5 91t-112.5 28z" />
    <glyph glyph-name="Q.sc" unicode="&#xe02d;" horiz-adv-x="1210" 
d="M1284 -184l2 -15q-91 -116 -287 -116q-90 0 -172 51t-213 166q-36 31 -71 47t-103 31q-82 19 -148 56.5t-117.5 96.5t-80 147t-28.5 199q0 254 150 400.5t398 146.5q152 0 270 -58t188.5 -177.5t70.5 -284.5q0 -128 -37.5 -228.5t-100.5 -161.5t-133.5 -95t-148.5 -46v-6
q81 -20 272 -100q77 -30 157 -44.5t132 -8.5zM610 993h-2q-49 0 -79 -21t-56 -65q-67 -119 -67 -401q0 -116 19 -236t46 -176q48 -98 147 -98q94 0 136 100q23 51 37 157.5t14 227.5q0 129 -16 246t-46 176q-47 90 -133 90z" />
    <glyph glyph-name="Q.scalt" unicode="&#xe02e;" horiz-adv-x="1208" 
d="M1921 -299l12 -25q-95 -114 -210 -169.5t-285 -55.5q-223 0 -490 213q-26 21 -88 72t-107.5 86.5t-93.5 66.5q-108 72 -219 97q-75 17 -137.5 50.5t-118 90t-87 146.5t-31.5 206q0 257 149.5 401t398.5 144q152 0 270 -58t188.5 -177.5t70.5 -284.5q0 -102 -24 -186
t-64 -141.5t-97 -99.5t-119.5 -64.5t-133.5 -30.5v-9q109 -15 387 -153q14 -7 66.5 -31.5t69.5 -32.5t63.5 -28.5t68.5 -28.5t62.5 -23.5t67 -22t61.5 -14.5t66.5 -11t63.5 -3q86 0 141.5 17t98.5 59zM612 991h-2q-50 0 -81 -20.5t-56 -63.5q-67 -119 -67 -403
q0 -129 18.5 -238t46.5 -168q48 -98 147 -98q96 0 138 100q49 107 49 381q0 128 -16 244.5t-46 175.5q-50 90 -131 90z" />
    <glyph glyph-name="R.sc" unicode="&#xe02f;" horiz-adv-x="1163" 
d="M174 371v258q0 237 -4 299q-2 20 -13.5 29t-41.5 10l-84 8l8 26q13 0 118 -4t152 -4q61 0 176 4t189 4q189 0 267.5 -50t78.5 -179q0 -67 -34 -117t-85 -75q-93 -49 -242 -60v-10q204 -17 289.5 -72t93.5 -170q9 -115 9 -151q0 -103 69 -103q24 0 54 9l-5 -27
q-22 -6 -78.5 -12.5t-103.5 -6.5q-136 0 -196.5 49t-65.5 158q0 47 -4 129q-1 57 -16.5 94t-46.5 55.5t-67.5 25t-90.5 6.5h-29v-134q0 -177 6 -288q1 -27 22.5 -34t116.5 -15l-2 -29q-22 0 -113 3t-139 3q-55 0 -181 -3t-146 -3v29q62 4 88.5 9t36 13t10.5 27q0 8 1 48.5
t2 108t1 142.5zM471 657v-129h33q102 0 145 29q66 48 66 199q0 96 -31 147q-37 64 -133 64q-41 0 -55 -4q-21 -3 -21 -35q0 -2 -0.5 -14t-1 -34t-1 -51.5t-1 -75t-0.5 -96.5z" />
    <glyph glyph-name="S.sc" unicode="&#xe030;" horiz-adv-x="942" 
d="M82 387l27 10q-1 -95 28 -172t77.5 -124.5t108 -73t123.5 -25.5q100 0 150.5 42.5t48.5 109.5q0 47 -22 77t-78 58q-32 16 -145 65.5t-158 73.5q-80 41 -120 108t-40 144q0 172 123 266q104 80 280 80q87 0 159 -22t110 -52l47 95l20 -11q-29 -153 -24 -385l-25 -2
q-5 64 -28 124.5t-60.5 109.5t-93.5 78.5t-121 29.5q-77 0 -122.5 -40t-45.5 -113q0 -94 121 -146q99 -41 132 -55t91 -39t84 -39t43 -27q59 -41 85 -93t28 -128q3 -130 -92 -225q-54 -55 -148 -87t-213 -32q-104 0 -239 27q-35 6 -127 24q16 107 16 369z" />
    <glyph glyph-name="Scaron.sc" unicode="&#xe031;" horiz-adv-x="942" 
d="M82 387l27 10q-1 -95 28 -172t77.5 -124.5t108 -73t123.5 -25.5q100 0 150.5 42.5t48.5 109.5q0 47 -22 77t-78 58q-32 16 -145 65.5t-158 73.5q-80 41 -120 108t-40 144q0 172 123 266q104 80 280 80q87 0 159 -22t110 -52l47 95l20 -11q-29 -153 -24 -385l-25 -2
q-5 64 -28 124.5t-60.5 109.5t-93.5 78.5t-121 29.5q-77 0 -122.5 -40t-45.5 -113q0 -94 121 -146q99 -41 132 -55t91 -39t84 -39t43 -27q59 -41 85 -93t28 -128q3 -130 -92 -225q-54 -55 -148 -87t-213 -32q-104 0 -239 27q-35 6 -127 24q16 107 16 369zM492 1110l-21 -8
q-21 58 -82.5 154t-155.5 202l15 17q137 -80 233 -166q103 89 234 166l16 -17q-91 -97 -153 -193.5t-86 -154.5z" />
    <glyph glyph-name="T.sc" unicode="&#xe032;" horiz-adv-x="1019" 
d="M659 748v-308q0 -224 7 -354q2 -26 10.5 -38t32.5 -15q25 -2 61 -5t61 -5v-29q-17 0 -144.5 3t-221.5 3q-52 0 -143 -3t-132 -3l-6 29q62 4 115 10q50 3 53 51q10 122 10 358v279q0 201 -4 244q-76 0 -120.5 -12.5t-64.5 -32.5t-40 -58q-47 -95 -78 -209l-24 15
q26 188 35 350q48 -14 131 -17q88 -6 213 -6h208q178 0 252 3.5t115 19.5q0 -1 -3.5 -36t-6 -70t-4 -101.5t-0.5 -138.5l-25 -19q-21 163 -69 242q-16 26 -33 39t-61 22t-121 9q-3 -61 -3 -217z" />
    <glyph glyph-name="Thorn.sc" unicode="&#xe034;" horiz-adv-x="1087" 
d="M174 451v237q0 191 -2 234q-1 20 -9.5 29.5t-36.5 15t-89 8.5l10 29q6 0 108.5 -4.5t157.5 -4.5q71 -1 169.5 4t117.5 5l2 -29q-56 -2 -81 -7.5t-32.5 -14t-9.5 -29.5q-6 -40 -6 -111q88 6 213 6q191 0 272 -74q37 -33 57.5 -91t20.5 -124q0 -149 -92 -237
q-106 -103 -334 -103q-68 0 -141 21q0 -94 4 -131q2 -21 10.5 -30t40.5 -16.5t103 -13.5l2 -28q-29 0 -126.5 4t-187.5 4q-62 0 -159.5 -4t-130.5 -4l2 28q90 6 112 16.5t25 47.5q10 190 10 367zM471 766l-2 -516q52 -23 94 -23q37 0 68 17t45 43q47 77 47 223
q0 162 -47 225q-36 51 -131 51q-44 0 -59 -4.5t-15 -15.5z" />
    <glyph glyph-name="U.sc" unicode="&#xe035;" horiz-adv-x="1122" 
d="M33 975v29q26 0 109.5 -4.5t150.5 -4.5q127 0 276 9l4 -29l-79 -10q-19 -2 -28.5 -10.5t-10.5 -30.5q-8 -102 -9 -320t7 -362q4 -67 22.5 -102.5t50.5 -61.5q23 -19 67 -30t85 -11q40 0 69.5 5t60 21.5t52 44.5t37.5 76t23 115q11 109 13 242t-2 216t-9 144q-3 33 -19 46
t-57 18l-84 10l-4 29q23 0 82 -4.5t104 -4.5q46 0 100.5 4t73.5 5l4 -29l-63 -8q-37 -4 -48 -16.5t-14 -47.5q-4 -70 -12.5 -307t-13.5 -287q-26 -200 -148 -278q-96 -62 -262 -62q-213 0 -313 90q-94 88 -94 252q0 552 -4 609q-2 24 -9.5 35t-27.5 12z" />
    <glyph glyph-name="Uacute.sc" unicode="&#xe036;" horiz-adv-x="1122" 
d="M33 975v29q26 0 109.5 -4.5t150.5 -4.5q127 0 276 9l4 -29l-79 -10q-19 -2 -28.5 -10.5t-10.5 -30.5q-8 -102 -9 -320t7 -362q4 -67 22.5 -102.5t50.5 -61.5q23 -19 67 -30t85 -11q40 0 69.5 5t60 21.5t52 44.5t37.5 76t23 115q11 109 13 242t-2 216t-9 144q-3 33 -19 46
t-57 18l-84 10l-4 29q23 0 82 -4.5t104 -4.5q46 0 100.5 4t73.5 5l4 -29l-63 -8q-37 -4 -48 -16.5t-14 -47.5q-4 -70 -12.5 -307t-13.5 -287q-26 -200 -148 -278q-96 -62 -262 -62q-213 0 -313 90q-94 88 -94 252q0 552 -4 609q-2 24 -9.5 35t-27.5 12zM580 1112l-19 16
q24 32 99.5 136.5t93.5 128.5q61 67 108 67q28 0 45 -15t17 -44q0 -60 -88 -121q-15 -11 -51 -34.5t-96.5 -62.5t-108.5 -71z" />
    <glyph glyph-name="Ucircumflex.sc" unicode="&#xe037;" horiz-adv-x="1122" 
d="M33 975v29q26 0 109.5 -4.5t150.5 -4.5q127 0 276 9l4 -29l-79 -10q-19 -2 -28.5 -10.5t-10.5 -30.5q-8 -102 -9 -320t7 -362q4 -67 22.5 -102.5t50.5 -61.5q23 -19 67 -30t85 -11q40 0 69.5 5t60 21.5t52 44.5t37.5 76t23 115q11 109 13 242t-2 216t-9 144q-3 33 -19 46
t-57 18l-84 10l-4 29q23 0 82 -4.5t104 -4.5q46 0 100.5 4t73.5 5l4 -29l-63 -8q-37 -4 -48 -16.5t-14 -47.5q-4 -70 -12.5 -307t-13.5 -287q-26 -200 -148 -278q-96 -62 -262 -62q-213 0 -313 90q-94 88 -94 252q0 552 -4 609q-2 24 -9.5 35t-27.5 12zM604 1464l21 9
q21 -59 82 -155t155 -202l-14 -16q-137 76 -234 166q-117 -101 -233 -166l-16 16q91 97 153 193.5t86 154.5z" />
    <glyph glyph-name="Udieresis.sc" unicode="&#xe038;" horiz-adv-x="1122" 
d="M33 975v29q26 0 109.5 -4.5t150.5 -4.5q127 0 276 9l4 -29l-79 -10q-19 -2 -28.5 -10.5t-10.5 -30.5q-8 -102 -9 -320t7 -362q4 -67 22.5 -102.5t50.5 -61.5q23 -19 67 -30t85 -11q40 0 69.5 5t60 21.5t52 44.5t37.5 76t23 115q11 109 13 242t-2 216t-9 144q-3 33 -19 46
t-57 18l-84 10l-4 29q23 0 82 -4.5t104 -4.5q46 0 100.5 4t73.5 5l4 -29l-63 -8q-37 -4 -48 -16.5t-14 -47.5q-4 -70 -12.5 -307t-13.5 -287q-26 -200 -148 -278q-96 -62 -262 -62q-213 0 -313 90q-94 88 -94 252q0 552 -4 609q-2 24 -9.5 35t-27.5 12zM436 1382h2
q49 0 79 -32t30 -82q0 -60 -35.5 -93.5t-79.5 -33.5q-47 0 -78.5 28t-31.5 88q0 56 31 90.5t83 34.5zM797 1382h2q50 0 79 -31.5t29 -82.5q0 -59 -35 -93t-79 -34q-47 0 -79 28t-32 88q0 56 31.5 90.5t83.5 34.5z" />
    <glyph glyph-name="Ugrave.sc" unicode="&#xe039;" horiz-adv-x="1122" 
d="M33 975v29q26 0 109.5 -4.5t150.5 -4.5q127 0 276 9l4 -29l-79 -10q-19 -2 -28.5 -10.5t-10.5 -30.5q-8 -102 -9 -320t7 -362q4 -67 22.5 -102.5t50.5 -61.5q23 -19 67 -30t85 -11q40 0 69.5 5t60 21.5t52 44.5t37.5 76t23 115q11 109 13 242t-2 216t-9 144q-3 33 -19 46
t-57 18l-84 10l-4 29q23 0 82 -4.5t104 -4.5q46 0 100.5 4t73.5 5l4 -29l-63 -8q-37 -4 -48 -16.5t-14 -47.5q-4 -70 -12.5 -307t-13.5 -287q-26 -200 -148 -278q-96 -62 -262 -62q-213 0 -313 90q-94 88 -94 252q0 552 -4 609q-2 24 -9.5 35t-27.5 12zM682 1112
q-213 139 -250 166q-80 50 -80 111q0 31 19.5 50t48.5 19q26 0 47 -13.5t51 -47.5q24 -31 182 -269z" />
    <glyph glyph-name="V.sc" unicode="&#xe03a;" horiz-adv-x="1085" 
d="M-39 975v29q20 0 131 -4.5t154 -4.5q42 0 144 4.5t163 4.5l10 -29l-92 -10q-35 0 -20 -43q81 -258 243 -703q63 171 135 390t91 306q4 23 -3.5 33t-29.5 13q-110 13 -131 14l-8 29q15 0 89.5 -4.5t104.5 -4.5q27 0 92.5 4.5t108.5 4.5l10 -29q-76 -3 -108.5 -21.5
t-61.5 -76.5q-82 -164 -330 -897q-23 3 -96.5 3t-95.5 -3q-214 619 -346 921q-22 45 -49 59t-105 15z" />
    <glyph glyph-name="W.sc" unicode="&#xe03b;" horiz-adv-x="1540" 
d="M1247 977l-8 27q24 0 87.5 -4.5t98.5 -4.5q25 0 80.5 4.5t91.5 4.5v-27q-51 -6 -77 -17.5t-38 -28t-28 -57.5q-44 -106 -132.5 -392.5t-147.5 -501.5q-37 4 -99 4t-82 -4q-21 77 -57.5 193t-99 310.5t-80.5 251.5q-165 -645 -189 -755q-14 4 -85.5 3.5t-90.5 -3.5
q-16 55 -54.5 187t-62.5 213t-56 186.5t-57 180.5t-44 121q-28 72 -51.5 90t-94.5 19v27q22 0 118 -4.5t155 -4.5q44 0 135.5 4.5t142.5 4.5l4 -27l-67 -10q-39 -6 -33 -33q82 -324 172 -649q40 143 103 406.5t71 307.5q55 -7 209 0q20 -72 108 -350.5t123 -394.5
q157 492 179 664q10 44 -43 49z" />
    <glyph glyph-name="X.sc" unicode="&#xe03c;" horiz-adv-x="1048" 
d="M1040 29l72 -9l4 -28q-26 1 -84.5 3t-116 3.5t-112.5 1.5q-69 0 -161 -4t-138 -4l-2 28q66 7 82.5 18.5t5.5 37.5q-46 97 -176 342q-120 -173 -191 -312q-20 -40 -12 -54t47 -19l107 -13l6 -28q-22 0 -92 4t-123 4q-37 0 -100 -4t-93 -4l-6 28q72 4 100.5 16t63.5 50
q52 54 272 367q-75 149 -155 290.5t-117 192.5q-12 19 -38 27t-99 12l-9 29q43 0 142.5 -4.5t158.5 -4.5q47 0 144.5 4.5t138.5 4.5l10 -27l-75 -8q-36 -6 -23 -35q43 -101 147 -283q50 67 98 143.5t70 120.5q12 22 2 36t-47 18l-69 6l8 29q34 0 95 -4.5t79 -4.5
q36 0 97 4.5t96 4.5l8 -29q-88 -6 -127.5 -23t-81.5 -57q-21 -20 -51.5 -61t-77 -107t-78.5 -109q24 -42 64.5 -114t60 -106.5t49.5 -87t46 -80t35 -59.5t32 -51.5t22 -31.5q27 -30 45.5 -43t46.5 -16z" />
    <glyph glyph-name="Y.sc" unicode="&#xe03d;" horiz-adv-x="1007" 
d="M848 20l6 -28q-48 0 -169.5 4t-197.5 4q-70 0 -165 -4t-142 -4l-4 28q13 1 129 15q28 1 40 14t17 39q4 34 8.5 143t4.5 172q0 29 -21 72q-29 62 -113.5 212.5t-134.5 219.5q-31 41 -59.5 53t-97.5 15v29q6 0 125.5 -4.5t185.5 -4.5q77 0 168.5 4.5t112.5 4.5l4 -29
l-80 -8q-34 -3 -25 -39q13 -27 96 -191.5t117 -234.5q131 254 189 416q6 19 -1.5 32.5t-25.5 14.5q-79 9 -110 10l2 29q19 0 83.5 -4.5t102.5 -4.5q33 0 88.5 4.5t93.5 4.5l6 -29q-72 -3 -104.5 -18t-65.5 -58q-24 -31 -57.5 -89.5t-56.5 -103t-60.5 -119.5l-44.5 -89
q-20 -44 -20 -80q-2 -81 1 -196t11 -156q7 -31 43 -33q6 -1 46.5 -6t74.5 -7z" />
    <glyph glyph-name="Yacute.sc" unicode="&#xe03e;" horiz-adv-x="1007" 
d="M848 20l6 -28q-48 0 -169.5 4t-197.5 4q-70 0 -165 -4t-142 -4l-4 28q13 1 129 15q28 1 40 14t17 39q4 34 8.5 143t4.5 172q0 29 -21 72q-29 62 -113.5 212.5t-134.5 219.5q-31 41 -59.5 53t-97.5 15v29q6 0 125.5 -4.5t185.5 -4.5q77 0 168.5 4.5t112.5 4.5l4 -29
l-80 -8q-34 -3 -25 -39q13 -27 96 -191.5t117 -234.5q131 254 189 416q6 19 -1.5 32.5t-25.5 14.5q-79 9 -110 10l2 29q19 0 83.5 -4.5t102.5 -4.5q33 0 88.5 4.5t93.5 4.5l6 -29q-72 -3 -104.5 -18t-65.5 -58q-24 -31 -57.5 -89.5t-56.5 -103t-60.5 -119.5l-44.5 -89
q-20 -44 -20 -80q-2 -81 1 -196t11 -156q7 -31 43 -33q6 -1 46.5 -6t74.5 -7zM510 1112l-18 16q24 32 99 137t93 128q61 67 109 67q28 0 44.5 -15t16.5 -44q0 -60 -88 -121q-15 -11 -51 -34.5t-96.5 -62.5t-108.5 -71z" />
    <glyph glyph-name="Ydieresis.sc" unicode="&#xe03f;" horiz-adv-x="1007" 
d="M848 20l6 -28q-48 0 -169.5 4t-197.5 4q-70 0 -165 -4t-142 -4l-4 28q13 1 129 15q28 1 40 14t17 39q4 34 8.5 143t4.5 172q0 29 -21 72q-29 62 -113.5 212.5t-134.5 219.5q-31 41 -59.5 53t-97.5 15v29q6 0 125.5 -4.5t185.5 -4.5q77 0 168.5 4.5t112.5 4.5l4 -29
l-80 -8q-34 -3 -25 -39q13 -27 96 -191.5t117 -234.5q131 254 189 416q6 19 -1.5 32.5t-25.5 14.5q-79 9 -110 10l2 29q19 0 83.5 -4.5t102.5 -4.5q33 0 88.5 4.5t93.5 4.5l6 -29q-72 -3 -104.5 -18t-65.5 -58q-24 -31 -57.5 -89.5t-56.5 -103t-60.5 -119.5l-44.5 -89
q-20 -44 -20 -80q-2 -81 1 -196t11 -156q7 -31 43 -33q6 -1 46.5 -6t74.5 -7zM369 1382h2q49 0 78.5 -32t29.5 -82q0 -60 -35 -93.5t-79 -33.5q-47 0 -79 28t-32 88q0 56 31.5 90.5t83.5 34.5zM729 1382h2q50 0 79.5 -32t29.5 -82q0 -59 -35.5 -93t-79.5 -34q-47 0 -79 28
t-32 88q0 56 31.5 90.5t83.5 34.5z" />
    <glyph glyph-name="Z.sc" unicode="&#xe040;" horiz-adv-x="1058" 
d="M117 606l-21 10q35 263 21 398q41 -8 127 -19q39 -2 252 -2q172 0 258 2q43 1 233 6q-19 -84 -47 -124q-13 -21 -40 -65.5t-82 -136.5t-113 -188q-107 -174 -279 -452q222 0 321.5 21.5t139.5 74.5q79 108 117 285l22 -13q-25 -291 -27 -413q-33 3 -192 8q-70 2 -209 2
h-367q-107 0 -168 -2l-14 27q100 149 288 449t298 484h-111q-147 0 -217.5 -29t-103.5 -91q-35 -65 -86 -232z" />
    <glyph glyph-name="Zcaron.sc" unicode="&#xe041;" horiz-adv-x="1058" 
d="M117 606l-21 10q35 263 21 398q41 -8 127 -19q39 -2 252 -2q172 0 258 2q43 1 233 6q-19 -84 -47 -124q-13 -21 -40 -65.5t-82 -136.5t-113 -188q-107 -174 -279 -452q222 0 321.5 21.5t139.5 74.5q79 108 117 285l22 -13q-25 -291 -27 -413q-33 3 -192 8q-70 2 -209 2
h-367q-107 0 -168 -2l-14 27q100 149 288 449t298 484h-111q-147 0 -217.5 -29t-103.5 -91q-35 -65 -86 -232zM559 1110l-20 -8q-21 58 -82.5 154t-155.5 202l14 17q140 -82 234 -166q105 91 233 166l17 -17q-91 -97 -153.5 -194t-86.5 -154z" />
    <glyph glyph-name="c_t" unicode="&#xe042;" horiz-adv-x="1591" 
d="M1577 856l-6 -33l-225 -14q-7 -259 -7 -352q0 -278 9 -361q6 -61 61 -61q64 0 107.5 59.5t52.5 126.5h10l23 -51q-30 -89 -113.5 -143t-200.5 -54q-137 0 -198 70q-34 42 -37 125q-1 112 0 194t4 235t4 214l-121 12l10 33h113q1 59 1 96t-0.5 61.5t-0.5 37.5q0 36 -19 55
q-12 12 -69.5 22.5t-93.5 10.5q-125 0 -168 -36t-43 -128q0 -63 35 -113q78 -19 118.5 -71.5t40.5 -116.5q0 -61 -42.5 -90t-96.5 -29q-35 0 -61 18q-24 15 -19 45q12 66 12 87q0 73 -30.5 114t-91.5 41q-82 0 -127.5 -110t-45.5 -299q0 -152 37 -250q31 -83 82 -119.5
t125 -36.5q91 0 150.5 54t95.5 163l29 -12q-78 -279 -379 -279q-139 0 -220.5 32.5t-140.5 105.5q-86 104 -86 303q0 104 31 190.5t90 150.5t152 100t211 36q58 0 116 -15q-43 46 -43 107q0 28 7 54.5t28.5 56t56 51t94 35.5t136.5 14q26 0 87 -3.5t71 -8.5q47 9 140 32.5
t122 34.5l6 -8q-12 -177 -12 -383h229z" />
    <glyph glyph-name="cent.fitted" unicode="&#xe043;" horiz-adv-x="1024" 
d="M913 485l2 -67q-50 -85 -139 -133.5t-174 -55.5l-6 -172l-55 -18l12 188q-242 3 -348 115q-109 106 -109 299q0 215 140 339.5t364 127.5l6 158l56 14l-13 -174q136 -6 208.5 -60t72.5 -139q0 -50 -29.5 -78t-73.5 -28q-35 0 -56.5 17.5t-10.5 47.5q12 46 12 76
q0 113 -127 131q-3 -56 -13.5 -242t-16 -308t-9.5 -242q111 2 182 50.5t107 157.5zM387 670v-2q0 -228 57 -308q37 -59 115 -77q3 64 18.5 350t20.5 444q-60 -6 -104 -48t-66 -106.5t-31.5 -127t-9.5 -125.5z" />
    <glyph glyph-name="currency.taboldstyle" unicode="&#xe044;" horiz-adv-x="980" 
d="M487 778h-2q-101 0 -156 -86t-55 -221q0 -155 58.5 -235t152.5 -80q105 0 158 84t53 223q0 63 -11 117t-34 100t-65 72t-99 26zM496 838h2q49 0 106 -16t98 -48l113 146l82 -80l-141 -121q82 -82 82 -254q0 -72 -22.5 -141t-63.5 -113l145 -129l-78 -82l-125 160
q-85 -66 -209 -66t-213 60l-114 -150l-74 82l135 123q-86 90 -86 252q0 169 96 262l-139 117l78 82l117 -148q90 64 211 64z" />
    <glyph glyph-name="dollar.fitted" unicode="&#xe045;" horiz-adv-x="1024" 
d="M754 250v2q0 21 -2.5 38t-12 33.5t-16 27.5t-25.5 25.5t-29.5 22.5t-39 24t-42.5 23.5t-52 26.5l-17 -412q106 3 171 52.5t65 136.5zM305 1030v-2q0 -72 50.5 -117.5t154.5 -93.5l18 402q-61 -1 -106 -17.5t-69.5 -44.5t-36 -59.5t-11.5 -67.5zM537 1405l51 12l-13 -168
q74 -3 148.5 -24.5t112.5 -55.5l32 88l21 -12q-45 -225 -45 -401l-29 6q2 155 -59 251t-183 116l-24 -418q40 -20 90.5 -45t74 -36.5t51 -26t44.5 -24.5t31 -20q110 -78 110 -248q0 -142 -84 -229q-126 -133 -350 -141l-4 -179l-57 -18l12 197q-47 0 -103 6t-89.5 12
t-96.5 19t-80 16q24 151 33 379l27 10q-2 -107 22 -187.5t69 -126.5t100 -69t122 -25l21 429q-169 78 -230 116q-145 93 -145 277q0 168 125 272q48 40 125 66t163 26z" />
    <glyph glyph-name="dotlessi.sc" unicode="&#xe046;" horiz-adv-x="647" 
d="M174 330v340q0 227 -4 260q-1 18 -8.5 25.5t-30.5 12t-78 7.5l2 29q12 0 103.5 -4.5t154.5 -4.5q76 0 169.5 4.5t107.5 4.5l2 -29q-73 -4 -92.5 -13t-22.5 -34q-6 -105 -6 -254v-344q0 -204 6 -260q2 -19 9 -27t31 -13.5t81 -9.5l-4 -28q-23 0 -129.5 4t-155.5 4
q-56 0 -151 -4t-113 -4v28q80 6 100.5 14.5t22.5 35.5q6 59 6 260z" />
    <glyph glyph-name="egrave.superior" unicode="&#xe047;" horiz-adv-x="679" 
d="M403 1223l-20 -13q-161 128 -172 138q-30 22 -33 57q0 26 16.5 40.5t36.5 14.5q38 0 66 -39q10 -15 51.5 -96t54.5 -102zM625 793q-50 -168 -279 -168q-161 0 -233 75q-60 60 -60 177q0 125 79.5 203.5t232.5 78.5q66 0 116.5 -15.5t77.5 -37.5t44 -51t21.5 -51t4.5 -43
q0 -39 -21 -48q-20 -8 -108 -16q-28 -2 -68.5 -2t-90.5 1t-73 1q-3 -76 27 -141q32 -80 131 -80q65 0 108 29t70 98zM362 1137h-2q-39 0 -63 -56.5t-27 -150.5q40 -4 74 -4q52 0 76 6q20 6 20 33q0 172 -78 172z" />
    <glyph glyph-name="florin.fitted" unicode="&#xe04a;" horiz-adv-x="1024" 
d="M74 666l22 55q117 -6 170 -6q27 191 67.5 291.5t98.5 162.5q78 83 155 114.5t169 31.5q86 0 142 -41.5t56 -106.5q0 -59 -34 -86.5t-86 -27.5q-24 0 -47 13.5t-19 35.5q6 35 6 74q0 56 -15 80t-46 24q-28 0 -46 -26t-32 -85q-24 -111 -66 -454q139 0 250 6l-18 -57
q-159 6 -238 6q-43 -354 -82 -551q-29 -173 -90.5 -273t-163.5 -163q-111 -70 -252 -70q-74 0 -123 35t-49 86q0 48 32.5 81t84.5 33q54 0 66 -57q31 -127 90 -127q35 0 50.5 30.5t29.5 117.5q20 147 57.5 460.5t48.5 397.5q-16 0 -188 -4z" />
    <glyph glyph-name="florin.oldstyle" unicode="&#xe04b;" horiz-adv-x="995" 
d="M104 608l21 54q33 -5 156 -5q25 172 62.5 263.5t90.5 150.5q120 131 320 131q79 0 131.5 -39t52.5 -100q0 -56 -34 -83.5t-83 -27.5q-23 0 -46 13t-19 34q6 69 6 70q0 55 -11.5 77.5t-39.5 22.5q-55 0 -74 -96q-24 -102 -59 -416q167 0 229 5l-16 -54q-94 4 -222 4
q-43 -348 -69 -491q-28 -159 -85 -255t-149 -155q-105 -65 -235 -65q-81 0 -129.5 33.5t-48.5 84.5q0 45 33 79t79 34q47 0 64 -63q27 -123 73 -123q35 0 51 27t29 112q18 133 50.5 415t43.5 367q-78 0 -172 -4z" />
    <glyph glyph-name="g.superior" unicode="&#xe04c;" horiz-adv-x="708" 
d="M190 547l7 -15q-24 -10 -34.5 -23.5t-10.5 -39.5q0 -41 52.5 -72.5t145.5 -31.5q114 0 169.5 38.5t55.5 88.5q0 30 -23.5 46.5t-62.5 16.5h-251q-124 0 -177 63q-32 36 -32 95q0 81 94 147q-45 42 -45 107q0 53 25.5 92.5t67 60t85.5 30t90 9.5q58 0 100 -10t56 -19
q87 68 141 68q25 0 46.5 -14.5t21.5 -28.5q-5 -13 -26 -35.5t-32 -25.5q-36 24 -78 24q-31 0 -45 -4q74 -48 74 -133q0 -51 -25 -88.5t-66.5 -57.5t-86 -29t-92.5 -9q-132 0 -187 41q-45 -11 -45 -58t70 -47q36 0 147.5 2t202.5 2q68 0 115 -35q26 -20 41.5 -54.5
t15.5 -67.5q0 -81 -57.5 -140t-144 -85.5t-187.5 -26.5q-127 0 -197.5 36t-70.5 93q0 36 59 65q42 21 94 25zM340 1130h-2q-30 0 -46 -33t-16 -114q0 -160 66 -160q61 0 61 154q0 153 -63 153z" />
    <glyph glyph-name="germandbls.sc" unicode="&#xe04d;" horiz-adv-x="1884" 
d="M82 387l27 10q-1 -95 28 -172t77.5 -124.5t108 -73t123.5 -25.5q100 0 150.5 42.5t48.5 109.5q0 47 -22 77t-78 58q-32 16 -145 65.5t-158 73.5q-80 41 -120 108t-40 144q0 172 123 266q104 80 280 80q87 0 159 -22t110 -52l47 95l20 -11q-29 -153 -24 -385l-25 -2
q-5 64 -28 124.5t-60.5 109.5t-93.5 78.5t-121 29.5q-77 0 -122.5 -40t-45.5 -113q0 -94 121 -146q99 -41 132 -55t91 -39t84 -39t43 -27q59 -41 85 -93t28 -128q3 -130 -92 -225q-54 -55 -148 -87t-213 -32q-104 0 -239 27q-35 6 -127 24q16 107 16 369zM1024 387l27 10
q-1 -95 28.5 -172t78 -124.5t108 -73t123.5 -25.5q99 0 149.5 42.5t48.5 109.5q0 47 -22 77t-78 58q-32 16 -145 65.5t-158 73.5q-80 41 -120 108t-40 144q0 172 123 266q104 80 280 80q87 0 159 -22t110 -52l47 95l20 -11q-29 -153 -24 -385l-25 -2q-5 64 -28 124.5
t-60.5 109.5t-93.5 78.5t-121 29.5q-77 0 -122.5 -40t-45.5 -113q0 -94 121 -146q99 -41 132 -55t91 -39t84 -39t43 -27q59 -41 85 -93t28 -128q3 -130 -92 -225q-54 -55 -148 -87t-213 -32q-104 0 -239 27q-35 6 -127 24q16 107 16 369z" />
    <glyph glyph-name="numbersign.oldstyle" unicode="&#xe04e;" horiz-adv-x="931" 
d="M590 567h-207l-49 -196h209zM422 965l67 6q-14 -36 -71 -254h207q49 220 53 248l70 6q-35 -98 -74 -254q43 0 107 1t79 1q-23 -81 -35 -154h-184l-51 -192q197 3 211 4q-23 -85 -35 -156q-17 1 -84 1.5t-123 2.5q-12 -57 -31 -153t-26 -129l-70 -9q15 52 76 291h-209
q-27 -109 -63 -282l-66 -13q14 39 78 295q-32 -2 -94 -2.5t-84 -1.5q18 61 30 154q8 0 185 -4l49 196q-77 2 -209 -2q20 62 33 154q17 0 96 -1t115 -1q35 133 53 248z" />
    <glyph glyph-name="bullet.001" unicode="&#xe04f;" horiz-adv-x="1771" 
d="M1026 864q76 9 115 44.5t39 90.5q0 79 -76 131q-14 9 -18.5 21t1.5 23q7 17 33.5 25.5t50.5 2.5q-8 10 -59 92q-30 56 -9 73.5t71 4.5q90 -23 133 -88.5t43 -140.5q0 -54 -21 -106t-60.5 -96.5t-103.5 -74t-143 -35.5q-10 -99 -49 -219q-3 -10 0.5 -17.5t12.5 -5.5t18 15
q40 57 101.5 99t131.5 42q113 0 170 -92.5t74 -300.5q6 -75 20 -116.5t29 -52.5t39 -11q26 0 45.5 26.5t19.5 75.5q0 40 -18.5 66t-34.5 33q-24 10 -8 26q36 41 76 41q25 0 48 -25.5t23 -76.5q0 -85 -110 -195q-80 -80 -160 -80q-84 0 -138 60.5t-83 191.5q-35 156 -160 156
q-30 0 -48.5 -20t-10.5 -33q41 -82 41 -158q0 -45 -22.5 -97.5t-44.5 -85t-62 -85.5q-41 -55 -57.5 -96t-16.5 -84q0 -36 11 -48t34 -12q22 0 46 28t65 101q13 22 26 -7q8 -16 8 -32q3 -64 -37 -101.5t-88 -37.5q-63 0 -110 47l-9 9t-9 7.5t-8 5.5t-8.5 4t-8 3t-10 3t-9.5 3
q-49 14 -93 63t-44 132q0 60 27.5 121t103.5 147q52 59 69.5 95.5t14.5 66.5q0 32 -28 59t-78 27q-24 0 -43 -4t-37.5 -17.5t-30 -24.5t-30.5 -40.5t-30 -50t-36 -66.5q-74 -135 -223 -135q-85 0 -158.5 61.5t-73.5 142.5q0 42 17 71.5t32.5 39t28.5 12.5q8 3 8 -5
q0 -2 -4 -19q-18 -64 16.5 -105t98.5 -41q48 0 77 36t31 88.5t-18 111.5q-7 12 -4.5 27t18.5 40q13 20 33 41.5t55.5 49.5t87.5 45.5t111 17.5q88 0 134 -32.5t73 -86.5q10 -22 26.5 -24t26.5 14q63 84 78 186q-132 11 -206.5 69t-74.5 161q0 53 38 97t97 61q-54 45 -169 45
q-125 0 -203 -68.5t-78 -169.5q0 -31 53 -68q23 -16 23 -36q0 -10 -13 -17.5t-26 -1.5q-15 5 -30 5t-24.5 -2.5t-25 -7.5t-23.5 -7q-13 -7 -18 -4.5t-16 16.5q-13 23 -13 72q0 42 18.5 97t57.5 101q56 67 139 107.5t179 40.5q79 0 144 -31t105 -77.5t67.5 -104t38.5 -107.5
t11 -92q0 -33 -2 -43zM981 862q2 20 2 45q0 79 -33 159.5t-96 131.5q-37 -9 -62.5 -47t-25.5 -78q0 -101 62 -153.5t153 -57.5z" />
    <glyph glyph-name="bullet.002" unicode="&#xe050;" horiz-adv-x="1771" 
d="M745 213q-76 -9 -114.5 -44.5t-38.5 -90.5q0 -79 76 -131q29 -20 16 -43q-7 -17 -34 -26t-50 -3q8 -10 59 -92q30 -56 9.5 -73.5t-70.5 -4.5q-90 23 -133 88.5t-43 140.5q0 54 21 106t60.5 96.5t103.5 74t143 35.5q10 99 49 219q3 10 -0.5 17.5t-12.5 5.5t-18 -15
q-40 -57 -101.5 -99t-131.5 -42q-113 0 -170 92.5t-74 300.5q-6 75 -20 116.5t-29 52.5t-39 11q-26 0 -46 -26.5t-20 -75.5q0 -40 18 -65.5t35 -32.5q25 -11 9 -27q-36 -41 -76 -41q-26 0 -49 25.5t-23 76.5q0 84 111 195q80 80 160 80q84 0 138 -60.5t83 -191.5
q35 -156 159 -156q30 0 49 20t11 33q-41 82 -41 158q0 45 22.5 97.5t44.5 85t62 85.5q74 99 74 181q0 35 -11 47t-34 12q-22 0 -46 -28t-65 -101q-13 -22 -27 7q-8 16 -8 32q-3 64 37 101.5t88 37.5q64 0 111 -47l9 -9t9 -7.5t7.5 -5t9 -4t7.5 -3t9.5 -3.5t9.5 -3
q50 -14 93.5 -62.5t43.5 -131.5q0 -60 -27.5 -121.5t-103.5 -147.5q-52 -60 -69.5 -95.5t-14.5 -65.5q0 -32 28.5 -59t78.5 -27q29 0 52.5 8.5t39.5 19.5t37 41.5t35 54.5t43 78q75 136 223 136q85 0 158 -62t73 -143q0 -42 -17 -71.5t-32.5 -39t-28.5 -12.5q-8 -3 -8 5
q0 2 4 19q18 64 -16 105t-98 41q-48 0 -77 -36t-31 -88.5t18 -111.5q12 -26 -15 -67q-13 -20 -33 -41.5t-55 -49.5t-87 -45.5t-111 -17.5q-88 0 -134 32.5t-73 86.5q-10 22 -27 24t-27 -14q-62 -82 -77 -186q131 -11 205.5 -69t74.5 -161q0 -53 -38 -96t-97 -61
q54 -45 170 -45q125 0 203 68.5t78 168.5q0 30 -54 68q-22 15 -22 37q0 10 13 17t26 1q15 -5 30 -5t24.5 2.5t24.5 7.5t23 7q13 7 18.5 4.5t16.5 -16.5q12 -22 12 -72q0 -42 -18.5 -97t-57.5 -101q-57 -68 -139 -108t-178 -40q-79 0 -144 31t-105 77.5t-68 104t-39 108
t-11 91.5q0 33 2 43zM791 215q-3 -30 -3 -45q0 -79 33.5 -159.5t96.5 -131.5q37 9 62.5 47t25.5 78q0 101 -62 153.5t-153 57.5z" />
    <glyph glyph-name="bullet.003" unicode="&#xe051;" horiz-adv-x="1771" 
d="M1212 401q9 -76 44.5 -114.5t91.5 -38.5q79 0 131 76q20 29 43 16q17 -7 25.5 -33.5t2.5 -50.5q10 8 92 59q56 30 73.5 9.5t4.5 -70.5q-23 -90 -88.5 -133t-140.5 -43q-54 0 -106 21t-96 60.5t-73.5 103.5t-35.5 143q-99 10 -219 49q-10 3 -17.5 -0.5t-6 -12.5t14.5 -18
q57 -40 99.5 -102t42.5 -132q0 -113 -92.5 -169.5t-301.5 -73.5q-75 -6 -116.5 -20t-52.5 -29t-11 -39q0 -26 27 -46t76 -20q40 0 65.5 18t32.5 35q11 25 27 9q40 -36 40 -76q0 -26 -25.5 -49t-76.5 -23q-48 0 -93.5 28t-100.5 83q-80 80 -80 159q0 84 60.5 138.5
t191.5 83.5q155 35 155 159q0 30 -20 49t-33 11q-82 -41 -158 -41q-45 0 -97.5 22.5t-85 44.5t-85.5 62q-55 41 -96 57.5t-84 16.5q-36 0 -48 -11t-12 -34q0 -22 28 -46t101 -65q22 -13 -7 -27q-17 -8 -32 -8q-64 -3 -101.5 37t-37.5 88q0 64 47 111l9 9t7.5 9t5 7.5t4 9
t3 7.5t3.5 9.5t3 9.5q14 49 63 93t132 44q60 0 121 -27.5t147 -103.5q59 -52 95.5 -69.5t66.5 -14.5q32 0 59 28.5t27 78.5q0 24 -4 43t-17.5 37.5t-24.5 30t-40.5 30.5t-50 30t-66.5 36q-135 74 -135 223q0 85 62 158t143 73q42 0 71.5 -17t39 -32.5t12.5 -28.5q3 -8 -5 -8
q-2 0 -20 4q-64 18 -104.5 -16t-40.5 -98q0 -48 36 -77t88 -31t111 18q27 12 68 -15q20 -13 41.5 -33t49 -55.5t45 -87.5t17.5 -111q0 -47 -10 -83t-29 -59t-37 -37t-43 -27q-22 -10 -24 -27t14 -27q82 -62 187 -77q11 132 68.5 206t160.5 74q53 0 97 -38t61 -97
q45 54 45 170q0 125 -68.5 203t-169.5 78q-29 0 -67 -54q-15 -22 -37 -22q-10 0 -17.5 13t-1.5 26q5 15 5 30t-2.5 24.5t-7.5 24.5t-7 23q-7 13 -4.5 18.5t16.5 16.5q22 12 72 12q42 0 97.5 -18.5t101.5 -57.5q67 -56 107 -138.5t40 -178.5q0 -79 -31 -144t-77.5 -105
t-104 -68t-108 -39t-91.5 -11q-33 0 -43 2zM1210 446q20 -2 45 -2q79 0 159.5 33t131.5 96q-9 37 -47 63t-78 26q-101 0 -153.5 -62.5t-57.5 -153.5z" />
    <glyph glyph-name="bullet.004" unicode="&#xe052;" horiz-adv-x="1771" 
d="M565 678q-9 76 -44.5 114.5t-90.5 38.5q-79 0 -131 -75q-20 -30 -43 -17q-17 7 -26 34t-3 50q-10 -8 -92 -59q-56 -30 -73.5 -9.5t-4.5 70.5q23 90 89 133t141 43q54 0 106 -21t96 -60t73.5 -103t35.5 -143q99 -10 219 -49q10 -3 17.5 0.5t5.5 12t-15 17.5
q-56 40 -98.5 102t-42.5 132q0 113 92.5 170t300.5 74q75 6 116.5 20t52.5 29t11 39q0 26 -26.5 45.5t-75.5 19.5q-40 0 -65.5 -18t-32.5 -35q-11 -25 -27 -8q-41 36 -41 75q0 25 26 48.5t77 23.5q48 0 94 -28t100 -82q80 -80 80 -160q0 -84 -60.5 -138t-191.5 -83
q-156 -35 -156 -160q0 -30 20.5 -48.5t33.5 -10.5q80 40 157 40q45 0 97.5 -22.5t86 -45t85.5 -61.5q97 -73 180 -73q35 0 47 11t12 34q0 22 -27.5 45.5t-101.5 64.5q-22 13 7 27q16 8 32 8q64 3 101.5 -37t37.5 -88q0 -63 -47 -110q-7 -7 -12 -12.5t-8.5 -13t-5 -10
t-4.5 -13.5t-4 -13q-14 -49 -63 -93t-132 -44q-60 0 -121 27.5t-147 103.5q-59 52 -95.5 69.5t-66.5 14.5q-32 0 -59 -28t-27 -78q0 -24 4 -43t17.5 -37.5t24.5 -30t40.5 -30.5t50 -30t66.5 -36q135 -74 135 -224q0 -85 -62 -158t-143 -73q-42 0 -71.5 17t-39 32.5
t-12.5 28.5q-3 8 5 8q2 0 20 -4q64 -18 104.5 16.5t40.5 98.5q0 48 -36 77t-88 31t-111 -18q-12 -7 -27.5 -4.5t-40.5 18.5q-20 13 -41.5 33t-49.5 55.5t-45.5 87.5t-17.5 111q0 88 32.5 134t86.5 73q22 10 24 26.5t-14 26.5q-84 63 -186 78q-11 -132 -68.5 -206.5
t-160.5 -74.5q-53 0 -97 38t-61 97q-45 -54 -45 -170q0 -125 68.5 -202.5t169.5 -77.5q30 0 67 53q16 23 37 23q10 0 17 -13t1 -26q-5 -15 -5 -30t3 -24.5t8 -25t7 -23.5q6 -13 4 -18.5t-17 -16.5q-22 -12 -71 -12q-42 0 -97.5 18.5t-101.5 57.5q-67 56 -107 138.5
t-40 178.5q0 79 31 144t77 105t103.5 68t108 39t91.5 11q33 0 43 -2zM567 633q-20 2 -45 2q-79 0 -159.5 -33t-131.5 -96q9 -37 47 -62.5t78 -25.5q101 0 153.5 62t57.5 153z" />
    </font>
</defs>
</svg>
